<svg xmlns="http://www.w3.org/2000/svg">
<defs>
<font id="PTSans-Regular" horiz-adv-x="545" >
  <font-face 
    font-family="PT Sans"
    font-weight="400"
    font-stretch="normal"
    units-per-em="1000"
    panose-1="2 11 5 3 2 2 3 2 2 4"
    ascent="800"
    descent="-200"
    x-height="500"
    cap-height="700"
    bbox="-355 -245 1093 993"
    underline-thickness="50"
    underline-position="-75"
    unicode-range="U+0020-U+FB02"
  />
<missing-glyph horiz-adv-x="1000" 
d="M50 700h650v-700h-650v700zM570 620l-195 -217l-195 217l-50 -50l197 -220l-197 -220l50 -50l195 217l195 -217l50 50l-198 220l198 220zM129 27h8v12h4c4 0 7.66667 0.833328 11 2.5c3.33333 1.66666 5 4.83334 5 9.5c0 5.33333 -1.83333 8.66666 -5.5 10
c-3.66667 1.33333 -7.5 2 -11.5 2h-11v-36zM141 57c5.33333 0 8 -1.66667 8 -5c0 -3.33334 -0.833328 -5.16666 -2.5 -5.5s-3.83334 -0.5 -6.5 -0.5h-3v11h4zM189 63h-31v-6h12v-30h7v30h12v6zM222 37c0 -2.66667 -2.33333 -4 -7 -4s-7.66667 0.666656 -9 2l-3 -7
c1.33333 0 3 -0.333328 5 -1s4.66667 -1 8 -1c9.33333 0 14 4 14 12c0 6 -3 9.33333 -9 10c-6 0.666656 -9 2.66666 -9 6c0 2 2 3 6 3c3.33333 0 6.33333 -0.666672 9 -2l2 7c-4 1.33333 -7.66667 2 -11 2c-9.33333 0 -14 -3.66667 -14 -11c0 -3.33334 1 -5.66666 3 -7
s4 -2.5 6 -3.5s4 -1.83334 6 -2.5c2 -0.666672 3 -1.66667 3 -3zM237 47c2.66667 1.33333 5.66667 2 9 2s5 -1.33334 5 -4v-2c-0.666672 0 -1.33334 0.166656 -2 0.5c-0.666672 0.333328 -1.66667 0.5 -3 0.5c-8 0 -12 -3.33334 -12 -10c0 -5.33333 2.66667 -8 8 -8
c4 0 7 1.66667 9 5l2 -4h6c-0.666656 1.33333 -1 3.66667 -1 7v11c0 6.66666 -3.33333 10 -10 10c-2.66667 0 -5.16667 -0.333344 -7.5 -1c-2.33333 -0.666672 -4.16666 -1.33334 -5.5 -2zM245 32c-2.66667 0 -4 1.33333 -4 4c0 2.66666 1.66667 4 5 4
c1.33333 0 2.33333 -0.166672 3 -0.5c0.666672 -0.333344 1.33334 -0.5 2 -0.5v-3c-1.33333 -2.66667 -3.33333 -4 -6 -4zM292 27v16c0 8 -3 12 -9 12c-4.66666 0 -8 -1.66667 -10 -5l-2 4h-5v-27h7v17c1.33334 2.66666 3.33334 4 6 4c3.33334 0 5 -2 5 -6v-15h8zM297 28

<glyph glyph-name="fi" unicode="fi" horiz-adv-x="540" 
d="M462 500v-500h-80v430h-202v-430h-80v430h-78v70h78v28c0 62.6667 15.5 108.167 46.5 136.5s76.5 42.5 136.5 42.5c39.3333 0 74.3333 -3.83331 105 -11.5s54.6667 -16.8334 72 -27.5l-27 -64c-18 11.3333 -39.3333 19.6666 -64 25c-24.6667 5.33331 -51 8 -79 8
c-24.6667 0 -44.1667 -2.83331 -58.5 -8.5c-14.3333 -5.66669 -25.3333 -14.3334 -33 -26c-7.66667 -11.6667 -12.6667 -26.1667 -15 -43.5s-3.5 -37 -3.5 -59h282z" />
    <glyph glyph-name="fl" unicode="fl" horiz-adv-x="583" 
d="M376 634c-10 2 -24.3333 3.83331 -43 5.5s-37 2.5 -55 2.5c-22.6667 0 -40.5 -3.16669 -53.5 -9.5s-22.8333 -15.6666 -29.5 -28c-6.66667 -12.3333 -10.8333 -27.3333 -12.5 -45c-1.66667 -17.6667 -2.5 -37.5 -2.5 -59.5h103v-70h-103v-430h-80v430h-78v70h78v28
c0 62.6667 13.5 109 40.5 139s72.1667 45 135.5 45c13.3333 0 28.3333 -0.5 45 -1.5s33.5 -2.33331 50.5 -4s33 -3.5 48 -5.5s27.1667 -4.33331 36.5 -7v-571c0 -23.3333 4.16666 -40 12.5 -50s19.5 -15 33.5 -15c9.33334 0 19 0.666656 29 2
c10 1.33333 21.3333 4.33333 34 9l8 -63c-5.33331 -2.66667 -11.8333 -5.16667 -19.5 -7.5s-15.8334 -4.16667 -24.5 -5.5c-8.66669 -1.33333 -17.3333 -2.5 -26 -3.5s-16.3333 -1.5 -23 -1.5c-30 0 -54.8333 8.5 -74.5 25.5s-29.5 45.8333 -29.5 86.5v534z" />
    <glyph glyph-name="space" unicode=" " horiz-adv-x="267" 
 />
    <glyph glyph-name="exclam" unicode="!" horiz-adv-x="305" 
d="M127 700h83v-347l-17 -176h-49l-17 176v347zM110 46c0 18 5.16666 32.1667 15.5 42.5c10.3333 10.3333 24.1667 15.5 41.5 15.5c18 0 32.3333 -5.16666 43 -15.5s16 -24.5 16 -42.5c0 -17.3333 -5.33333 -31.3333 -16 -42s-25 -16 -43 -16
c-17.3333 0 -31.1667 5.33333 -41.5 16s-15.5 24.6667 -15.5 42z" />
    <glyph glyph-name="quotedbl" unicode="&#x22;" horiz-adv-x="335" 
d="M207 700h78l-31 -193h-47v193zM90 700h78l-31 -193h-47v193z" />
    <glyph glyph-name="numbersign" unicode="#" 
d="M280 225h-105l-39 -167h-69l39 167h-78l14 64h79l31 131h-74l14 64h75l38 158h69l-38 -158h105l38 158h69l-38 -158h77l-16 -64h-76l-31 -131h73l-16 -64h-72l-39 -167h-69zM190 289h105l31 131h-105z" />
    <glyph glyph-name="dollar" unicode="$" 
d="M242 -12c-36.6667 0.666672 -69.1667 3.83333 -97.5 9.5c-28.3333 5.66667 -51.1667 13.1667 -68.5 22.5l27 73c13.3333 -8 31.5 -15.3333 54.5 -22s51.1667 -10.3333 84.5 -11v270c-20 10 -39.8333 20.6667 -59.5 32s-37.1667 24.8333 -52.5 40.5
c-15.3333 15.6667 -27.6667 34.1667 -37 55.5c-9.33334 21.3333 -14 46.6667 -14 76c0 48 13.5 87.3333 40.5 118s67.8333 49.6667 122.5 57v91h68v-88c34 -1.33331 61.8333 -4.5 83.5 -9.5s41.1667 -11.5 58.5 -19.5l-24 -70c-13.3333 6.66669 -29.3333 12.5 -48 17.5
s-42 8.16669 -70 9.5v-247c20.6667 -10.6667 41.3333 -22.1667 62 -34.5c20.6667 -12.3333 39.1667 -26.5 55.5 -42.5s29.5 -34.6667 39.5 -56c10 -21.3333 15 -46.3333 15 -75c0 -52 -14.5 -94.8333 -43.5 -128.5s-71.8333 -55.1667 -128.5 -64.5v-92h-68v88zM399 178
c0 16 -2.83334 30.3333 -8.5 43s-13.1667 24 -22.5 34s-20.3333 19 -33 27s-26.3333 15.6667 -41 23v-243c30.6667 4.66666 55.8333 16.5 75.5 35.5c19.6667 19 29.5 45.8333 29.5 80.5zM162 539c0 -28.6667 9.16667 -52 27.5 -70s41.1667 -34.3333 68.5 -49v219
c-35.3333 -4 -60.1667 -15.6667 -74.5 -35c-14.3333 -19.3333 -21.5 -41 -21.5 -65z" />
    <glyph glyph-name="percent" unicode="%" horiz-adv-x="773" 
d="M70 542c0 30 4 55.6667 12 77s18.8333 39 32.5 53s30 24.1667 49 30.5s39.5 9.5 61.5 9.5s42.5 -3 61.5 -9s35.3333 -15.6667 49 -29s24.5 -30.8333 32.5 -52.5s12 -48.1667 12 -79.5c0 -31.3333 -4 -57.8333 -12 -79.5s-18.8333 -39.1667 -32.5 -52.5s-30 -23 -49 -29
s-39.5 -9 -61.5 -9s-42.5 3 -61.5 9s-35.3333 15.6667 -49 29s-24.5 30.8333 -32.5 52.5s-12 48.1667 -12 79.5zM144 542c0 -40 7.16666 -68.6667 21.5 -86c14.3333 -17.3333 34.1667 -26 59.5 -26c12.6667 0 24 1.83334 34 5.5s18.5 9.66666 25.5 18s12.3333 19.6667 16 34
c3.66666 14.3333 5.5 32.5 5.5 54.5s-1.83334 40.1667 -5.5 54.5s-9 25.6666 -16 34c-7 8.33331 -15.5 14.3333 -25.5 18s-21.3333 5.5 -34 5.5c-25.3333 0 -45.1667 -7.83331 -59.5 -23.5s-21.5 -45.1667 -21.5 -88.5zM427 171c0 30 4 55.6667 12 77s18.8333 39 32.5 53
s30 24.1667 49 30.5s39.5 9.5 61.5 9.5s42.5 -3 61.5 -9s35.3334 -15.6667 49 -29s24.5 -30.8333 32.5 -52.5s12 -48.1667 12 -79.5c0 -31.3333 -4 -57.8333 -12 -79.5s-18.8334 -39.1667 -32.5 -52.5s-30 -23 -49 -29s-39.5 -9 -61.5 -9s-42.5 3 -61.5 9
s-35.3333 15.6667 -49 29s-24.5 30.8333 -32.5 52.5s-12 48.1667 -12 79.5zM501 171c0 -40 7.16666 -68.6667 21.5 -86c14.3333 -17.3333 34.1666 -26 59.5 -26c12.6667 0 24 1.83334 34 5.5s18.5 9.66666 25.5 18s12.3334 19.6667 16 34c3.66663 14.3333 5.5 32.5 5.5 54.5
s-1.83337 40.1667 -5.5 54.5s-9 25.6666 -16 34c-7 8.33331 -15.5 14.3333 -25.5 18s-21.3333 5.5 -34 5.5c-25.3333 0 -45.1666 -7.83331 -59.5 -23.5c-14.3333 -15.6667 -21.5 -45.1667 -21.5 -88.5zM637 713l49 -38l-513 -687l-50 39z" />
    <glyph glyph-name="ampersand" unicode="&#x26;" horiz-adv-x="814" 
d="M118 187c0 26.6667 4.66666 52.1667 14 76.5c9.33333 24.3333 22 46.8333 38 67.5s34.1667 39.6667 54.5 57s41.5 32.6667 63.5 46c-16 24 -29.8333 48 -41.5 72c-11.6667 24 -17.5 50 -17.5 78c0 16 2.66667 31.6667 8 47s13.8333 29 25.5 41
c11.6667 12 26.6667 21.6667 45 29s40.5 11 66.5 11c27.3333 0 50.3333 -3.5 69 -10.5s33.6667 -16.1667 45 -27.5s19.5 -24 24.5 -38s7.5 -28.3333 7.5 -43c0 -28 -10.8333 -56.8333 -32.5 -86.5c-21.6667 -29.6667 -55.8333 -58.1667 -102.5 -85.5
c10.6667 -19.3333 23.1667 -39.1667 37.5 -59.5c14.3333 -20.3333 29.5 -40.5 45.5 -60.5l49 -59.5c16.6667 -19.6667 33.3334 -37.8333 50 -54.5c7.33331 8 14.6666 18.1667 22 30.5c7.33331 12.3333 14.5 25.3333 21.5 39c7 13.6667 13.3333 27.8333 19 42.5
c5.66669 14.6667 10.8334 28.6667 15.5 42l62 -29c-4 -11.3333 -9.66669 -24.8333 -17 -40.5c-7.33331 -15.6667 -15.5 -31.6667 -24.5 -48s-18.1667 -32 -27.5 -47s-18 -27.5 -26 -37.5c14 -13.3333 26.6667 -24.8333 38 -34.5s21.8333 -18 31.5 -25s19 -13.3333 28 -19
l27.5 -16.5l-50 -56c-35.3333 17.3333 -75.6666 48.3333 -121 93c-12 -12 -25.1667 -23.5 -39.5 -34.5s-30.5 -20.8333 -48.5 -29.5c-18 -8.66667 -37.8333 -15.6667 -59.5 -21s-45.5 -8 -71.5 -8c-31.3333 0 -60.8333 4.33333 -88.5 13
c-27.6667 8.66667 -51.8333 21.5 -72.5 38.5c-20.6667 17 -37.1667 37.8333 -49.5 62.5c-12.3333 24.6667 -18.5 53 -18.5 85zM519 131c-19.3333 19.3333 -38.3333 40.3333 -57 63l-53.5 68c-17 22.6667 -32.6667 44.5 -47 65.5s-26.5 39.5 -36.5 55.5
c-18 -13.3333 -34.6667 -27 -50 -41s-28.8333 -28.8333 -40.5 -44.5c-11.6667 -15.6667 -20.6667 -32.5 -27 -50.5s-9.5 -37.3333 -9.5 -58s4.33333 -39.1667 13 -55.5c8.66667 -16.3333 20.5 -30 35.5 -41s32.1667 -19.5 51.5 -25.5s39.6667 -9 61 -9
c16.6667 0 32.8333 2.16666 48.5 6.5c15.6667 4.33334 30.5 9.83334 44.5 16.5s26.8333 14.3333 38.5 23c11.6667 8.66666 21.1667 17.6667 28.5 27zM307 584c0 -20 4.16666 -39.8333 12.5 -59.5c8.33334 -19.6667 19.1667 -39.1667 32.5 -58.5
c35.3333 22.6667 59.8333 43.3333 73.5 62s20.5 35 20.5 49c0 21.3333 -5.16666 38.6666 -15.5 52c-10.3333 13.3333 -28.1667 20 -53.5 20c-24 0 -41.6667 -6 -53 -18s-17 -27.6667 -17 -47z" />
    <glyph glyph-name="quotesingle" unicode="'" horiz-adv-x="218" 
d="M90 700h78l-31 -193h-47v193z" />
    <glyph glyph-name="parenleft" unicode="(" horiz-adv-x="280" 
d="M227 -220c-30.6667 32 -56.6667 67.1667 -78 105.5c-21.3333 38.3333 -38.5 77.6667 -51.5 118c-13 40.3333 -22.5 81 -28.5 122s-9 80.1667 -9 117.5c0 36.6667 3 75.3333 9 116c6 40.6667 15.6667 81.5 29 122.5s30.8333 81.1667 52.5 120.5
c21.6667 39.3333 48.1667 76 79.5 110l48 -35c-26.6667 -34 -48.8333 -69.1667 -66.5 -105.5c-17.6667 -36.3333 -31.8333 -73.1667 -42.5 -110.5c-10.6667 -37.3333 -18.1667 -74.5 -22.5 -111.5s-6.5 -72.5 -6.5 -106.5c0 -32 2.5 -66.8333 7.5 -104.5
s13 -75.3333 24 -113c11 -37.6667 25.3333 -74.5 43 -110.5s38.8333 -68.6667 63.5 -98z" />
    <glyph glyph-name="parenright" unicode=")" horiz-adv-x="280" 
d="M53 712c30.6667 -32 56.6667 -67.1667 78 -105.5c21.3333 -38.3333 38.5 -77.6666 51.5 -118c13 -40.3333 22.5 -81 28.5 -122s9 -80.1667 9 -117.5c0 -36.6667 -3 -75.3333 -9 -116c-6 -40.6667 -15.6667 -81.5 -29 -122.5s-30.8333 -81.1667 -52.5 -120.5
c-21.6667 -39.3333 -48.1667 -76 -79.5 -110l-48 35c26.6667 34 49 69.3333 67 106s32.1667 73.6667 42.5 111s17.6667 74.3333 22 111s6.5 72 6.5 106c0 32 -2.66667 66.6667 -8 104c-5.33334 37.3333 -13.5 75 -24.5 113s-25.1667 75 -42.5 111s-38.3333 68.6667 -63 98z
" />
    <glyph glyph-name="asterisk" unicode="*" horiz-adv-x="351" 
d="M130 715l25 -42l18 -56l21 57l24 40l48 -26l-26 -43l-46 -48l68 12h48v-56h-46l-64 12l46 -48l23 -39l-47 -28l-26 42l-23 61l-19 -58l-25 -42l-50 28l27 42l42 42l-58 -12h-50v56h50l62 -12l-45 44l-26 46z" />
    <glyph glyph-name="plus" unicode="+" horiz-adv-x="505" 
d="M40 374h176v181h72v-181h176v-72h-176v-180h-72v180h-176v72z" />
    <glyph glyph-name="comma" unicode="," horiz-adv-x="225" 
d="M49 43c0 16 5.33333 29 16 39c10.6667 10 24.3333 15 41 15c20.6667 0 37.5 -7.33334 50.5 -22c13 -14.6667 19.5 -36 19.5 -64c0 -24 -3.33333 -45 -10 -63s-15.3333 -33.5 -26 -46.5c-10.6667 -13 -22.3333 -23.6667 -35 -32
c-12.6667 -8.33333 -25.3333 -14.5 -38 -18.5l-25 39c24 9.33334 41.8333 23.8333 53.5 43.5s17.5 39.5 17.5 59.5c-6 -2 -11.6667 -3 -17 -3c-13.3333 0 -24.5 4.5 -33.5 13.5s-13.5 22.1667 -13.5 39.5z" />
    <glyph glyph-name="hyphen" unicode="-" horiz-adv-x="360" 
d="M59 325h242v-74h-242v74z" />
    <glyph glyph-name="period" unicode="." horiz-adv-x="214" 
d="M49 46c0 18 5.16666 32.1667 15.5 42.5s24.1667 15.5 41.5 15.5c18 0 32.3333 -5.16666 43 -15.5s16 -24.5 16 -42.5c0 -17.3333 -5.33333 -31.3333 -16 -42s-25 -16 -43 -16c-17.3333 0 -31.1667 5.33333 -41.5 16c-10.3333 10.6667 -15.5 24.6667 -15.5 42z" />
    <glyph glyph-name="slash" unicode="/" horiz-adv-x="354" 
d="M328 712l63 -28l-365 -824l-63 28z" />
    <glyph glyph-name="zero" unicode="0" 
d="M43 350c0 120 19.5 210.333 58.5 271s95.8333 91 170.5 91c80.6667 0 139.167 -29.8333 175.5 -89.5s54.5 -150.5 54.5 -272.5c0 -120 -19.5 -210.333 -58.5 -271c-39 -60.6667 -96.1667 -91 -171.5 -91c-79.3333 0 -137.333 31.6667 -174 95
c-36.6667 63.3333 -55 152.333 -55 267zM126 350c0 -43.3333 2.83333 -82.8333 8.5 -118.5c5.66667 -35.6667 14.5 -66.3333 26.5 -92s27.1667 -45.6667 45.5 -60s40.1667 -21.5 65.5 -21.5c50.6667 0 87.8333 23.5 111.5 70.5c23.6667 47 35.5 120.833 35.5 221.5
c0 42.6667 -2.5 82 -7.5 118s-13.3333 67 -25 93s-26.8333 46 -45.5 60c-18.6667 14 -41.6667 21 -69 21c-50 0 -86.8333 -23.6667 -110.5 -71s-35.5 -121 -35.5 -221z" />
    <glyph glyph-name="one" unicode="1" 
d="M108 74h140v484l10 59l-40 -47l-110 -79l-38 51l220 170h36v-638h137v-74h-355v74z" />
    <glyph glyph-name="two" unicode="2" 
d="M446 541c0 -35.3333 -6.5 -71.5 -19.5 -108.5s-30 -74.1667 -51 -111.5s-44.5 -73.8333 -70.5 -109.5c-26 -35.6667 -52 -69.5 -78 -101.5l-49 -43v-4l64 11h218v-74h-398v29l53 57c20.6667 22.6667 42.1667 47.8333 64.5 75.5s44.3333 57 66 88
c21.6667 31 41.3333 62.5 59 94.5c17.6667 32 31.8333 63.6667 42.5 95c10.6667 31.3333 16 61 16 89c0 32.6667 -9.33334 59.8334 -28 81.5c-18.6667 21.6667 -47 32.5 -85 32.5c-25.3333 0 -50 -5.16669 -74 -15.5s-44.6667 -22.1666 -62 -35.5l-33 57
c23.3333 20 51 35.6667 83 47s66.3333 17 103 17c28.6667 0 54 -4.16669 76 -12.5s40.6667 -20.1666 56 -35.5c15.3333 -15.3333 27 -33.5 35 -54.5s12 -43.8333 12 -68.5z" />
    <glyph glyph-name="three" unicode="3" 
d="M234 58c22.6667 0 43.6667 3.33333 63 10c19.3333 6.66666 36 16.5 50 29.5s25 28.5 33 46.5s12 37.6667 12 59c0 46.6667 -13.8333 81.3333 -41.5 104s-65.8333 34 -114.5 34h-74v29l144 222l46 44l-65 -10h-198v74h357v-29l-159 -239l-35 -29v-2l34 7
c26.6667 -0.666656 51.3333 -5.5 74 -14.5c22.6667 -9 42.3333 -22 59 -39c16.6667 -17 29.6667 -37.3333 39 -61s14 -50.5 14 -80.5c0 -36 -6.33334 -68 -19 -96s-29.8333 -51.5 -51.5 -70.5c-21.6667 -19 -47.1667 -33.5 -76.5 -43.5s-60.3333 -15 -93 -15
c-30 0 -57 2.33333 -81 7s-45 10.6667 -63 18l21 71c15.3333 -7.33334 33.5 -13.5 54.5 -18.5s44.5 -7.5 70.5 -7.5z" />
    <glyph glyph-name="four" unicode="4" 
d="M524 215h-118v-215h-78v215h-308v33l332 463h54v-426h118v-70zM328 503l10 82h-3l-35 -68l-141 -191l-48 -49l70 8h147v218z" />
    <glyph glyph-name="five" unicode="5" 
d="M213 58c46 0 84 13.3333 114 40s45 65.3333 45 116c0 48.6667 -14.8333 85 -44.5 109s-70.5 36 -122.5 36l-84 -5v346h312v-74h-237v-199l43 2c66 -0.666656 118 -19 156 -55s57 -87.6667 57 -155c0 -37.3333 -6.33334 -70.5 -19 -99.5s-29.8333 -53.1667 -51.5 -72.5
c-21.6667 -19.3333 -47.1667 -34 -76.5 -44s-60.6667 -15 -94 -15c-30 0 -55.3333 1.66667 -76 5c-20.6667 3.33333 -40 8.33333 -58 15l21 68c15.3333 -6 31.8333 -10.5 49.5 -13.5c17.6667 -3 39.5 -4.5 65.5 -4.5z" />
    <glyph glyph-name="six" unicode="6" 
d="M492 211c0 -30.6667 -4.66666 -59.5 -14 -86.5s-23 -50.6667 -41 -71s-40.3333 -36.3333 -67 -48c-26.6667 -11.6667 -57 -17.5 -91 -17.5c-33.3333 0 -63.3333 5.33333 -90 16s-49.6667 26.5 -69 47.5c-19.3333 21 -34.1667 46.8333 -44.5 77.5
c-10.3333 30.6667 -15.5 66 -15.5 106c0 66 8.5 126.833 25.5 182.5s40.5 104.167 70.5 145.5c30 41.3333 65.5 74.8333 106.5 100.5s85.5 41.8334 133.5 48.5l17 -64c-37.3333 -6.66669 -71.3333 -19.3334 -102 -38c-30.6667 -18.6667 -57.5 -41.6667 -80.5 -69
c-23 -27.3333 -41.8333 -58 -56.5 -92c-14.6667 -34 -24.6667 -69 -30 -105c10.6667 18 28.6667 34.5 54 49.5s56.3333 22.5 93 22.5c62.6667 0 111.833 -18 147.5 -54c35.6667 -36 53.5 -86.3333 53.5 -151zM409 203c0 47.3333 -11 83 -33 107s-56 36 -102 36
c-32.6667 0 -60.8333 -8 -84.5 -24c-23.6667 -16 -40.1667 -34 -49.5 -54c-1.33333 -9.33334 -2 -17 -2 -23v-20c0 -20.6667 2.83333 -41 8.5 -61s14.5 -37.8333 26.5 -53.5s26.8333 -28.3333 44.5 -38s38.5 -14.5 62.5 -14.5c19.3333 0 36.8333 3.66666 52.5 11
s29.1667 17.3333 40.5 30s20.1667 28 26.5 46c6.33334 18 9.5 37.3333 9.5 58z" />
    <glyph glyph-name="seven" unicode="7" 
d="M110 0l251 586l44 49l-59 -9h-285v74h418v-27l-288 -673h-81z" />
    <glyph glyph-name="eight" unicode="8" 
d="M68 167c0 42 11 78.5 33 109.5s56.3333 59.1667 103 84.5c-16.6667 10 -32.1667 20.5 -46.5 31.5s-27 23.5 -38 37.5s-19.6667 29.6667 -26 47s-9.5 37.3334 -9.5 60c0 26 4.5 49.6667 13.5 71s22 39.6666 39 55c17 15.3333 37.3333 27.3333 61 36s50.5 13 80.5 13
c28 0 53.3333 -4 76 -12s41.8333 -19 57.5 -33c15.6667 -14 27.8333 -30.6667 36.5 -50c8.66666 -19.3333 13 -40.6666 13 -64c0 -38 -8.66666 -71.5 -26 -100.5s-46 -57.5 -86 -85.5c17.3333 -10 33.8333 -21 49.5 -33s29.3333 -25.3333 41 -40
c11.6667 -14.6667 20.8333 -31.1667 27.5 -49.5c6.66666 -18.3333 10 -39.1667 10 -62.5c0 -28.6667 -4.66666 -54.8333 -14 -78.5s-23 -44 -41 -61s-40 -30.3333 -66 -40s-55.6667 -14.5 -89 -14.5c-32 0 -60.3333 4.66667 -85 14s-45.5 22 -62.5 38
s-29.8333 34.8333 -38.5 56.5s-13 45.1667 -13 70.5zM399 177c0 20 -4 37.5 -12 52.5s-18.5 28.6667 -31.5 41s-27.8333 23.5 -44.5 33.5s-34 19.6667 -52 29c-40.6667 -22.6667 -69.6667 -48 -87 -76s-26 -54.6667 -26 -80c0 -16 2.66667 -31.3333 8 -46
c5.33333 -14.6667 13.3333 -27.3333 24 -38c10.6667 -10.6667 23.8333 -19.1667 39.5 -25.5c15.6667 -6.33334 33.8333 -9.5 54.5 -9.5c16.6667 0 32.6667 2.5 48 7.5s28.8333 12.3333 40.5 22s21 22 28 37s10.5 32.5 10.5 52.5zM162 539
c0 -18.6667 3.66667 -35.1667 11 -49.5c7.33333 -14.3333 17.1667 -27.1667 29.5 -38.5c12.3333 -11.3333 26.5 -21.8333 42.5 -31.5s32.6667 -18.8333 50 -27.5c30 23.3333 52.1667 46.3333 66.5 69s21.5 47.6667 21.5 75c0 34 -10.5 60.1667 -31.5 78.5
s-46.1667 27.5 -75.5 27.5c-18 0 -34 -3 -48 -9s-26 -13.6667 -36 -23s-17.5 -20.1666 -22.5 -32.5c-5 -12.3333 -7.5 -25.1666 -7.5 -38.5z" />
    <glyph glyph-name="nine" unicode="9" 
d="M52 488c0 32 4.66666 61.6667 14 89s23 51 41 71s40.5 35.6667 67.5 47s58.5 17 94.5 17c68 0 121 -22 159 -66s57 -106 57 -186c0 -75.3333 -8.5 -141.167 -25.5 -197.5c-17 -56.3333 -40.5 -103.833 -70.5 -142.5s-65.5 -68.8333 -106.5 -90.5
c-41 -21.6667 -85.5 -35.5 -133.5 -41.5l-18 64c38.6667 6 73.5 17.3333 104.5 34s57.6667 37.6667 80 63c22.3333 25.3333 40.5 54.1667 54.5 86.5s23.6667 67.5 29 105.5c-18 -21.3333 -37.8333 -36.1667 -59.5 -44.5c-21.6667 -8.33334 -50.1667 -12.5 -85.5 -12.5
c-27.3333 0 -53.1667 4.5 -77.5 13.5c-24.3333 9 -45.8333 22.1667 -64.5 39.5c-18.6667 17.3333 -33.3333 38.6667 -44 64c-10.6667 25.3333 -16 54.3333 -16 87zM135 496c0 -47.3333 12.5 -82.8333 37.5 -106.5s57.8333 -35.5 98.5 -35.5c32.6667 0 60.6667 5.33334 84 16
s40 24.6667 50 42c1.33334 8.66666 2 16.3333 2 23v21c0 24 -2.83334 47.1667 -8.5 69.5c-5.66666 22.3333 -14.1667 42.3333 -25.5 60s-26.1667 31.5 -44.5 41.5c-18.3333 10 -39.8333 15 -64.5 15c-40.6667 0 -72.3333 -12.8333 -95 -38.5
c-22.6667 -25.6667 -34 -61.5 -34 -107.5z" />
    <glyph glyph-name="colon" unicode=":" horiz-adv-x="219" 
d="M91 449c0 18 5.16666 32.1667 15.5 42.5s24.1667 15.5 41.5 15.5c18 0 32.3333 -5.16666 43 -15.5s16 -24.5 16 -42.5c0 -17.3333 -5.33333 -31.3333 -16 -42s-25 -16 -43 -16c-17.3333 0 -31.1667 5.33334 -41.5 16s-15.5 24.6667 -15.5 42zM91 46
c0 18 5.16666 32.1667 15.5 42.5s24.1667 15.5 41.5 15.5c18 0 32.3333 -5.16666 43 -15.5s16 -24.5 16 -42.5c0 -17.3333 -5.33333 -31.3333 -16 -42s-25 -16 -43 -16c-17.3333 0 -31.1667 5.33333 -41.5 16s-15.5 24.6667 -15.5 42z" />
    <glyph glyph-name="semicolon" unicode=";" horiz-adv-x="256" 
d="M89 43c0 16 5.33334 29 16 39s24.3333 15 41 15c20.6667 0 37.5 -7.33334 50.5 -22c13 -14.6667 19.5 -36 19.5 -64c0 -24 -3.33333 -45 -10 -63s-15.3333 -33.5 -26 -46.5c-10.6667 -13 -22.3333 -23.6667 -35 -32c-12.6667 -8.33333 -25.3333 -14.5 -38 -18.5l-25 39
c24 9.33334 41.8333 23.8333 53.5 43.5c11.6667 19.6667 17.5 39.5 17.5 59.5c-6 -2 -11.6667 -3 -17 -3c-13.3333 0 -24.5 4.5 -33.5 13.5s-13.5 22.1667 -13.5 39.5zM96 449c0 18 5.16666 32.1667 15.5 42.5s24.1667 15.5 41.5 15.5c18 0 32.3333 -5.16666 43 -15.5
s16 -24.5 16 -42.5c0 -17.3333 -5.33333 -31.3333 -16 -42s-25 -16 -43 -16c-17.3333 0 -31.1667 5.33334 -41.5 16s-15.5 24.6667 -15.5 42z" />
    <glyph glyph-name="less" unicode="&#x3c;" horiz-adv-x="505" 
d="M42 305v29l378 231l38 -62l-237 -145l-91 -38l90 -32l243 -144l-38 -60z" />
    <glyph glyph-name="equal" unicode="=" horiz-adv-x="505" 
d="M40 457h424v-72h-424v72zM40 291h424v-72h-424v72z" />
    <glyph glyph-name="greater" unicode="&#x3e;" horiz-adv-x="505" 
d="M463 344v-29l-378 -231l-38 61l237 145l91 38l-90 32l-243 144l38 61z" />
    <glyph glyph-name="question" unicode="?" horiz-adv-x="436" 
d="M150 177c-0.666672 3.33333 -1 7 -1 11v11c0 28 4.16667 52.6667 12.5 74c8.33333 21.3333 18.6667 40.8333 31 58.5c12.3333 17.6667 25.6667 34.1667 40 49.5c14.3333 15.3333 27.6667 30.8333 40 46.5s22.6667 32.3333 31 50c8.33334 17.6667 12.5 37.8333 12.5 60.5
c0 30.6667 -8.83334 55.6667 -26.5 75s-47.1667 29 -88.5 29c-24 0 -48.3333 -4.16669 -73 -12.5c-24.6667 -8.33331 -46 -18.1666 -64 -29.5l-27 62c25.3333 15.3333 52 27.5 80 36.5s62.6667 13.5 104 13.5c29.3333 0 55.1667 -4.16669 77.5 -12.5s41 -19.8333 56 -34.5
s26.1667 -32 33.5 -52s11 -41.3333 11 -64c0 -30 -4.5 -56.1667 -13.5 -78.5s-20.3333 -42.6667 -34 -61c-13.6667 -18.3333 -28.3333 -35.5 -44 -51.5c-15.6667 -16 -30.3333 -32.8333 -44 -50.5c-13.6667 -17.6667 -25 -36.8333 -34 -57.5
c-9 -20.6667 -13.5 -45 -13.5 -73h-66zM130 46c0 18 5.16667 32.1667 15.5 42.5s24.1667 15.5 41.5 15.5c18 0 32.3333 -5.16666 43 -15.5s16 -24.5 16 -42.5c0 -17.3333 -5.33333 -31.3333 -16 -42s-25 -16 -43 -16c-17.3333 0 -31.1667 5.33333 -41.5 16
c-10.3333 10.6667 -15.5 24.6667 -15.5 42z" />
    <glyph glyph-name="at" unicode="@" horiz-adv-x="1064" 
d="M707 491h34l-51 -287c-3.33331 -17.3333 -5.83331 -32.8333 -7.5 -46.5s-2.5 -25.8333 -2.5 -36.5c0 -16.6667 2.83331 -28.8333 8.5 -36.5c5.66669 -7.66666 15.5 -11.5 29.5 -11.5c22.6667 0 45.1667 6 67.5 18s42.1666 29 59.5 51c17.3333 22 31.5 48.5 42.5 79.5
s16.5 65.8333 16.5 104.5c0 51.3333 -8.66669 96.6667 -26 136c-17.3333 39.3333 -41.6666 72.5 -73 99.5c-31.3333 27 -68.6666 47.5 -112 61.5c-43.3333 14 -91 21 -143 21c-54 0 -104.833 -10 -152.5 -30s-89 -47.6667 -124 -83c-35 -35.3333 -62.6667 -77.6667 -83 -127
c-20.3333 -49.3333 -30.5 -103 -30.5 -161c0 -59.3333 9.16667 -112.333 27.5 -159s44.5 -86 78.5 -118s74.6667 -56.3333 122 -73s100 -25 158 -25c19.3333 0 41.3333 2.16667 66 6.5c24.6667 4.33334 47 11.5 67 21.5l20 -64c-30 -12.6667 -57.6667 -21.1667 -83 -25.5
s-52.6666 -6.5 -82 -6.5c-62 0 -120.167 9.33333 -174.5 28s-101.667 46.3333 -142 83c-40.3333 36.6667 -72.1667 82.1667 -95.5 136.5s-35 117.167 -35 188.5c0 72.6667 12.5 138.333 37.5 197c25 58.6667 58.8333 108.667 101.5 150
c42.6667 41.3333 92.3333 73.1666 149 95.5c56.6667 22.3333 116.667 33.5 180 33.5c60 0 115.667 -8.83331 167 -26.5s95.8333 -43 133.5 -76s67.3334 -73.3333 89 -121c21.6667 -47.6667 32.5 -101.833 32.5 -162.5c0 -42.6667 -7.33331 -83.5 -22 -122.5
c-14.6667 -39 -34.5 -73.1667 -59.5 -102.5c-25 -29.3333 -54.1667 -52.8333 -87.5 -70.5c-33.3333 -17.6667 -68.6666 -26.5 -106 -26.5c-28 0 -50.3333 6 -67 18s-25 34.3333 -25 67c0 6 0.333313 12.5 1 19.5s1.66669 14.5 3 22.5h-4
c-9.33331 -15.3333 -20.3333 -30.5 -33 -45.5s-26.8334 -28.5 -42.5 -40.5c-15.6667 -12 -32.3333 -21.8333 -50 -29.5s-36.1667 -11.5 -55.5 -11.5c-16 0 -31.3333 3.5 -46 10.5s-27.3333 17.1667 -38 30.5c-10.6667 13.3333 -19.1667 29.1667 -25.5 47.5
s-9.5 39.1667 -9.5 62.5c0 42.6667 7 84.6667 21 126c14 41.3333 32.8333 78 56.5 110s51.3333 57.8333 83 77.5c31.6667 19.6667 65.1666 29.5 100.5 29.5c24.6667 0 44.3334 -3.66666 59 -11c14.6667 -7.33334 29 -16.3333 43 -27zM650 393
c-11.3333 13.3333 -22.6666 22.5 -34 27.5c-11.3333 5 -25.6666 7.5 -43 7.5c-26 0 -50.3333 -7.83334 -73 -23.5c-22.6667 -15.6667 -42.1667 -36 -58.5 -61s-29.3333 -53 -39 -84s-14.5 -61.5 -14.5 -91.5c0 -26 5.33334 -48.1667 16 -66.5s30 -27.5 58 -27.5
c13.3333 0 27.1667 4.33334 41.5 13s28.5 20.5 42.5 35.5s27.3333 31.8333 40 50.5s24 37.6667 34 57z" />
    <glyph glyph-name="A" unicode="A" horiz-adv-x="585" 
d="M418 194h-258l-70 -194h-82l265 711h38l266 -711h-87zM187 266h206l-78 213l-25 106h-1l-25 -108z" />
    <glyph glyph-name="B" unicode="B" horiz-adv-x="584" 
d="M507 540c0 -16.6667 -2.66666 -33.6667 -8 -51c-5.33334 -17.3333 -13.3333 -33.5 -24 -48.5s-24.3333 -28.1667 -41 -39.5c-16.6667 -11.3333 -36.3333 -20 -59 -26v-4c20 -3.33334 39.1667 -9 57.5 -17s34.5 -19 48.5 -33s25.3333 -31 34 -51
c8.66669 -20 13 -43.6667 13 -71c0 -36 -7.5 -67.1667 -22.5 -93.5c-15 -26.3333 -34.6667 -47.8333 -59 -64.5c-24.3333 -16.6667 -52.1667 -29 -83.5 -37c-31.3333 -8 -63.3333 -12 -96 -12h-40c-15.3333 0 -31.3333 0.5 -48 1.5s-33.3333 2.33333 -50 4
s-31.3333 4.16667 -44 7.5v689c24.6667 4 53.3333 7.33331 86 10s68.3333 4 107 4c26 0 52.5 -2.16669 79.5 -6.5s51.5 -12.6666 73.5 -25c22 -12.3333 40.1667 -29.5 54.5 -51.5s21.5 -50.3333 21.5 -85zM275 64c21.3333 0 42 2.5 62 7.5s37.6667 13 53 24
s27.5 24.5 36.5 40.5s13.5 35 13.5 57c0 27.3333 -5.5 49.3333 -16.5 66c-11 16.6667 -25.3333 29.6667 -43 39s-37.5 15.6667 -59.5 19c-22 3.33334 -44 5 -66 5h-87v-251c4.66667 -1.33334 11.3333 -2.33334 20 -3c8.66667 -0.666656 18 -1.33333 28 -2
c10 -0.666656 20.3333 -1.16666 31 -1.5c10.6667 -0.333344 20 -0.5 28 -0.5zM220 392c11.3333 0 25 0.333344 41 1s29.3333 1.66666 40 3c16 5.33334 31 11.8333 45 19.5s26.5 16.6667 37.5 27s19.6667 22.3333 26 36s9.5 28.5 9.5 44.5c0 22 -4.16666 40.1667 -12.5 54.5
s-19.5 25.8333 -33.5 34.5s-30 14.8334 -48 18.5c-18 3.66669 -36.3333 5.5 -55 5.5c-22 0 -42.1667 -0.5 -60.5 -1.5s-32.1667 -2.5 -41.5 -4.5v-238h52z" />
    <glyph glyph-name="C" unicode="C" horiz-adv-x="571" 
d="M533 29c-20 -15.3333 -45.3333 -26 -76 -32s-63.3333 -9 -98 -9c-42 0 -81.3333 7.16667 -118 21.5c-36.6667 14.3333 -68.6667 36.1667 -96 65.5c-27.3333 29.3333 -49 66.8333 -65 112.5c-16 45.6667 -24 99.8333 -24 162.5c0 65.3333 8.83334 120.833 26.5 166.5
c17.6667 45.6667 41 83 70 112s61.5 50.1667 97.5 63.5s72.6667 20 110 20c40 0 72.6667 -2.16669 98 -6.5s47 -10.1666 65 -17.5l-20 -73c-32 15.3333 -77.6667 23 -137 23c-27.3333 0 -54.3333 -5 -81 -15s-50.5 -26.3333 -71.5 -49
c-21 -22.6667 -37.8333 -52.3334 -50.5 -89c-12.6667 -36.6667 -19 -81.6667 -19 -135c0 -48 6 -90 18 -126s28.5 -66 49.5 -90s45.6667 -42 74 -54s59.1667 -18 92.5 -18c30 0 56.1667 3 78.5 9s41.1667 13.6667 56.5 23z" />
    <glyph glyph-name="D" unicode="D" horiz-adv-x="654" 
d="M85 700c12.6667 2 26.8333 3.5 42.5 4.5s32 1.66669 49 2l50 1c16.3333 0.333313 31.5 0.5 45.5 0.5c56 0 104.5 -8.66669 145.5 -26s74.8333 -41.5 101.5 -72.5c26.6667 -31 46.5 -68.1667 59.5 -111.5c13 -43.3333 19.5 -91 19.5 -143
c0 -47.3333 -6.16669 -92.8333 -18.5 -136.5c-12.3333 -43.6667 -31.8333 -82.3333 -58.5 -116c-26.6667 -33.6667 -61.3333 -60.6667 -104 -81c-42.6667 -20.3333 -94.3333 -30.5 -155 -30.5c-10.6667 0 -24.5 0.166672 -41.5 0.5s-34.5 1 -52.5 2
s-34.6667 1.83333 -50 2.5c-15.3333 0.666672 -26.3333 1.66667 -33 3v701zM274 634h-28.5c-10.3333 0 -20.5 -0.333313 -30.5 -1s-19.1667 -1.33337 -27.5 -2c-8.33333 -0.666687 -14.8333 -1.33337 -19.5 -2v-560c3.33333 -0.666656 9.66666 -1.16666 19 -1.5l29 -1l29 -1
c9.33333 -0.333344 15.6667 -0.5 19 -0.5c46.6667 0 85.8333 8 117.5 24c31.6667 16 57 37.5 76 64.5s32.5 58 40.5 93s12 71.1667 12 108.5c0 32.6667 -3.66666 65.5 -11 98.5s-20 62.8333 -38 89.5s-42.1667 48.5 -72.5 65.5s-68.5 25.5 -114.5 25.5z" />
    <glyph glyph-name="E" unicode="E" horiz-adv-x="536" 
d="M85 700h381v-74h-298v-229h273v-74h-273v-249h303v-74h-386v700z" />
    <glyph glyph-name="F" unicode="F" horiz-adv-x="517" 
d="M85 700h381v-74h-298v-239h278v-74h-278v-313h-83v700z" />
    <glyph glyph-name="G" unicode="G" horiz-adv-x="612" 
d="M321 349h235v-308c-10.6667 -8 -23.5 -15.3333 -38.5 -22s-31 -12.3333 -48 -17s-34.6667 -8.16667 -53 -10.5s-36.1667 -3.5 -53.5 -3.5c-44.6667 0 -85.6667 7.16667 -123 21.5c-37.3333 14.3333 -69.6667 36.3333 -97 66c-27.3333 29.6667 -48.6667 67.3333 -64 113
c-15.3333 45.6667 -23 99.5 -23 161.5c0 64.6667 9.33334 120 28 166s43 83.5 73 112.5s63.6667 50.1667 101 63.5c37.3333 13.3333 74.6667 20 112 20c40 0 73 -2.16669 99 -6.5s48 -10.1666 66 -17.5l-21 -73c-32 15.3333 -77.6667 23 -137 23
c-28 0 -55.8333 -4.83331 -83.5 -14.5s-52.5 -25.8334 -74.5 -48.5c-22 -22.6667 -40 -52.3334 -54 -89c-14 -36.6667 -21 -82 -21 -136c0 -49.3333 5.66667 -92 17 -128s27.1667 -65.8333 47.5 -89.5c20.3333 -23.6667 44.8333 -41.3333 73.5 -53
c28.6667 -11.6667 60 -17.5 94 -17.5c42.6667 0 79 8.33334 109 25v195l-164 20v47z" />
    <glyph glyph-name="H" unicode="H" horiz-adv-x="672" 
d="M504 321h-336v-321h-83v700h83v-305h336v305h83v-700h-83v321z" />
    <glyph glyph-name="I" unicode="I" horiz-adv-x="291" 
d="M104 700h83v-700h-83v700z" />
    <glyph glyph-name="J" unicode="J" horiz-adv-x="291" 
d="M112 700h83v-546c0 -53.3333 -11.8333 -94 -35.5 -122s-59.5 -42 -107.5 -42c-5.33334 0 -12 0.333328 -20 1s-16 1.66667 -24 3s-15.8333 3 -23.5 5s-13.8333 4.33333 -18.5 7l16 71c18.6667 -8.66666 39 -13 61 -13c28 0 46.5 9.83334 55.5 29.5s13.5 46.5 13.5 80.5
v526z" />
    <glyph glyph-name="K" unicode="K" horiz-adv-x="610" 
d="M215 324h-47v-324h-83v700h83v-326l45 14l235 312h96l-234 -301l-42 -33l51 -40l256 -326h-105z" />
    <glyph glyph-name="L" unicode="L" horiz-adv-x="517" 
d="M499 0h-414v700h83v-626h331v-74z" />
    <glyph glyph-name="M" unicode="M" horiz-adv-x="791" 
d="M623 470l10 105h-5l-38 -96l-182 -316h-25l-193 317l-36 95h-5l14 -104v-471h-78v700h62l219 -358l33 -78h2l31 80l209 356h65v-700h-83v470z" />
    <glyph glyph-name="N" unicode="N" horiz-adv-x="673" 
d="M211 458l-54 101h-4l10 -101v-458h-78v711h44l335 -467l52 -96h5l-11 96v456h78v-711h-44z" />
    <glyph glyph-name="O" unicode="O" horiz-adv-x="684" 
d="M56 350c0 116.667 24.6667 206.167 74 268.5c49.3333 62.3333 119.667 93.5 211 93.5c49.3333 0 92 -8.66669 128 -26s65.8333 -41.8333 89.5 -73.5s41.1667 -69.6667 52.5 -114c11.3333 -44.3333 17 -93.8333 17 -148.5c0 -116.667 -24.8333 -206.167 -74.5 -268.5
c-49.6667 -62.3333 -120.5 -93.5 -212.5 -93.5c-48.6667 0 -90.8333 8.66667 -126.5 26s-65.3333 41.8333 -89 73.5s-41.1667 69.6667 -52.5 114c-11.3333 44.3333 -17 93.8333 -17 148.5zM144 350c0 -38.6667 3.83333 -75.3333 11.5 -110
c7.66667 -34.6667 19.5 -65.1667 35.5 -91.5c16 -26.3333 36.5 -47.3333 61.5 -63s54.5 -23.5 88.5 -23.5c62 0 110.667 23.5 146 70.5c35.3333 47 53 119.5 53 217.5c0 38 -3.83331 74.5 -11.5 109.5s-19.6667 65.6667 -36 92c-16.3333 26.3333 -37 47.3333 -62 63
s-54.8333 23.5 -89.5 23.5c-61.3333 0 -109.5 -23.5 -144.5 -70.5c-35 -47 -52.5 -119.5 -52.5 -217.5z" />
    <glyph glyph-name="P" unicode="P" horiz-adv-x="559" 
d="M85 693c25.3333 6 52.6667 10 82 12s58.3333 3 87 3c30.6667 0 61.8333 -3 93.5 -9c31.6667 -6 60.5 -17 86.5 -33s47.1667 -38 63.5 -66c16.3333 -28 24.5 -63.6667 24.5 -107c0 -42.6667 -7.66669 -78.6667 -23 -108c-15.3333 -29.3333 -35.6667 -53.1667 -61 -71.5
c-25.3333 -18.3333 -54.3333 -31.5 -87 -39.5s-66.3333 -12 -101 -12h-16.5c-7.66667 0 -15.6667 0.166656 -24 0.5s-16.5 0.833344 -24.5 1.5s-13.6667 1.33331 -17 2v-266h-83v693zM256 636c-17.3333 0 -34 -0.333313 -50 -1s-28.6667 -2.33337 -38 -5v-290
c3.33333 -1.33334 8.66666 -2.16669 16 -2.5l23 -1c8 -0.333344 15.6667 -0.5 23 -0.5h16c22.6667 0 45.1667 2.16666 67.5 6.5s42.5 12.1667 60.5 23.5c18 11.3333 32.5 27.3333 43.5 48s16.5 47 16.5 79c0 27.3333 -5.16666 50.1666 -15.5 68.5
c-10.3333 18.3333 -24 33 -41 44s-36.1667 18.8333 -57.5 23.5s-42.6667 7 -64 7z" />
    <glyph glyph-name="Q" unicode="Q" horiz-adv-x="684" 
d="M704 -171c-16 -4.66667 -31.6667 -7.83334 -47 -9.5c-15.3333 -1.66667 -30.6666 -2.5 -46 -2.5c-33.3333 0 -65.8333 3.5 -97.5 10.5c-31.6667 7 -62.3333 14.6667 -92 23l-85.5 23c-27.3333 7 -53.3333 10.5 -78 10.5c-16 0 -31.3333 -2 -46 -6v73
c9.33333 2 18.3333 3.66667 27 5c8.66667 1.33334 17.6667 2 27 2c28 0 55.8333 -3.5 83.5 -10.5s55.8333 -14.6667 84.5 -23c28.6667 -8.33334 58 -16 88 -23s61.6667 -10.5 95 -10.5c29.3333 0 58.3333 3.33334 87 10v-72zM56 350c0 116.667 24.6667 206.167 74 268.5
c49.3333 62.3333 119.667 93.5 211 93.5c49.3333 0 92 -8.66669 128 -26s65.8333 -41.8333 89.5 -73.5s41.1667 -69.6667 52.5 -114c11.3333 -44.3333 17 -93.8333 17 -148.5c0 -116.667 -24.8333 -206.167 -74.5 -268.5c-49.6667 -62.3333 -120.5 -93.5 -212.5 -93.5
c-48.6667 0 -90.8333 8.66667 -126.5 26s-65.3333 41.8333 -89 73.5s-41.1667 69.6667 -52.5 114c-11.3333 44.3333 -17 93.8333 -17 148.5zM144 350c0 -38.6667 3.83333 -75.3333 11.5 -110c7.66667 -34.6667 19.5 -65.1667 35.5 -91.5c16 -26.3333 36.5 -47.3333 61.5 -63
s54.5 -23.5 88.5 -23.5c62 0 110.667 23.5 146 70.5c35.3333 47 53 119.5 53 217.5c0 38 -3.83331 74.5 -11.5 109.5s-19.6667 65.6667 -36 92c-16.3333 26.3333 -37 47.3333 -62 63s-54.8333 23.5 -89.5 23.5c-61.3333 0 -109.5 -23.5 -144.5 -70.5
c-35 -47 -52.5 -119.5 -52.5 -217.5z" />
    <glyph glyph-name="R" unicode="R" horiz-adv-x="595" 
d="M85 693c25.3333 4.66669 54.5 8.33337 87.5 11c33 2.66669 63.1667 4 90.5 4c30.6667 0 59.8333 -3.33331 87.5 -10c27.6667 -6.66669 52 -17.6667 73 -33s37.8333 -35.3333 50.5 -60s19 -54.6667 19 -90c0 -54.6667 -15 -99 -45 -133s-68 -56.6667 -114 -68l48 -37
l174 -277h-97l-193 302l-98 15v-317h-83v693zM265 636h-27c-9.33333 0 -18.3333 -0.333313 -27 -1s-16.8333 -1.33337 -24.5 -2c-7.66667 -0.666687 -13.8333 -1.66669 -18.5 -3v-258h78c46 0 84 11.3333 114 34s45 58 45 106c0 36 -12.3333 65.6667 -37 89s-59 35 -103 35z
" />
    <glyph glyph-name="S" unicode="S" horiz-adv-x="531" 
d="M401 178c0 28 -8.33334 50.8333 -25 68.5c-16.6667 17.6667 -37.5 33.3333 -62.5 47c-25 13.6667 -52.1667 26.5 -81.5 38.5c-29.3333 12 -56.5 26.5 -81.5 43.5s-45.8333 38 -62.5 63s-25 56.8333 -25 95.5c0 54.6667 19 98 57 130s92 48 162 48
c40.6667 0 77.6667 -3 111 -9s59.3333 -13.6667 78 -23l-25 -73c-15.3333 7.33331 -37.8333 14.3333 -67.5 21s-63.1667 10 -100.5 10c-44 0 -77 -9.83331 -99 -29.5s-33 -42.8334 -33 -69.5c0 -26 8.33333 -47.6667 25 -65s37.5 -32.8333 62.5 -46.5
s52.1667 -27.1667 81.5 -40.5s56.5 -28.8333 81.5 -46.5s45.8333 -38.8333 62.5 -63.5c16.6667 -24.6667 25 -55.3333 25 -92c0 -30 -5.33334 -57 -16 -81s-26.3333 -44.6667 -47 -62c-20.6667 -17.3333 -45.6667 -30.6667 -75 -40s-62.6667 -14 -100 -14
c-50 0 -91.3333 3.83333 -124 11.5s-58 16.1667 -76 25.5l28 75c15.3333 -8.66666 38 -17.1667 68 -25.5s63.6667 -12.5 101 -12.5c22 0 42.6667 2.16666 62 6.5s36 11.3333 50 21s25.1667 21.8333 33.5 36.5s12.5 32 12.5 52z" />
    <glyph glyph-name="T" unicode="T" horiz-adv-x="555" 
d="M537 626h-218v-626h-83v626h-218v74h519v-74z" />
    <glyph glyph-name="U" unicode="U" horiz-adv-x="652" 
d="M487 700h80v-467c0 -42 -5.5 -78.3333 -16.5 -109c-11 -30.6667 -26.6667 -55.8333 -47 -75.5c-20.3333 -19.6667 -44.8333 -34.1667 -73.5 -43.5s-60.3333 -14 -95 -14c-82.6667 0 -145 18.6667 -187 56c-42 37.3333 -63 94 -63 170v483h83v-444
c0 -35.3333 3.5 -65.1667 10.5 -89.5c7 -24.3333 17.5 -44 31.5 -59s31.5 -25.8333 52.5 -32.5s45.5 -10 73.5 -10c54 0 92.6667 14.8333 116 44.5c23.3333 29.6667 35 78.5 35 146.5v444z" />
    <glyph glyph-name="V" unicode="V" horiz-adv-x="568" 
d="M267 219l24 -106h1l26 108l169 479h83l-265 -711h-37l-270 711h91z" />
    <glyph glyph-name="W" unicode="W" horiz-adv-x="828" 
d="M222 231l16 -116h1l17 118l144 467h40l145 -469l17 -116h1l18 118l118 467h81l-195 -711h-46l-142 469l-18 106h-5l-18 -107l-142 -468h-46l-200 711h88z" />
    <glyph glyph-name="X" unicode="X" horiz-adv-x="618" 
d="M259 356l-213 344h100l142 -237l25 -57l24 57l150 237h92l-220 -337l230 -363h-97l-158 251l-27 60l-26 -60l-162 -251h-93z" />
    <glyph glyph-name="Y" unicode="Y" horiz-adv-x="558" 
d="M239 278l-231 422h97l164 -306l17 -61h1l18 63l157 304h89l-229 -421v-279h-83v278z" />
    <glyph glyph-name="Z" unicode="Z" 
d="M38 75l353 511l42 40h-395v74h470v-75l-355 -514l-42 -37h397v-74h-470v75z" />
    <glyph glyph-name="bracketleft" unicode="[" horiz-adv-x="304" 
d="M85 700h181v-70h-103v-790h103v-70h-181v930z" />
    <glyph glyph-name="backslash" unicode="\" horiz-adv-x="380" 
d="M399 -111l-66 -29l-370 824l67 28z" />
    <glyph glyph-name="bracketright" unicode="]" horiz-adv-x="304" 
d="M220 -230h-182v70h104v790h-104v70h182v-930z" />
    <glyph glyph-name="asciicircum" unicode="^" horiz-adv-x="500" 
d="M234 711h29l169 -276h-82l-80 135l-23 69l-31 -70l-92 -134h-76z" />
    <glyph glyph-name="underscore" unicode="_" horiz-adv-x="408" 
d="M0 -135h408v-70h-408v70z" />
    <glyph glyph-name="grave" unicode="`" horiz-adv-x="280" 
d="M220 571h-45l-115 128v21h95z" />
    <glyph glyph-name="a" unicode="a" horiz-adv-x="496" 
d="M69 463c25.3333 15.3333 54.8333 26.6667 88.5 34c33.6667 7.33334 68.8333 11 105.5 11c34.6667 0 62.5 -4.66666 83.5 -14s37 -21.5 48 -36.5s18.3333 -31.5 22 -49.5s5.5 -36 5.5 -54c0 -40 -1 -79 -3 -117s-3 -74 -3 -108c0 -24.6667 1 -48 3 -70
s5.66666 -42.3333 11 -61h-59l-21 70h-5c-6 -9.33334 -13.5 -18.5 -22.5 -27.5s-19.8333 -17 -32.5 -24s-27.3333 -12.8333 -44 -17.5c-16.6667 -4.66667 -35.6667 -7 -57 -7s-41.1667 3.33333 -59.5 10s-34.1667 16.1667 -47.5 28.5
c-13.3333 12.3333 -23.8333 27.1667 -31.5 44.5c-7.66667 17.3333 -11.5 37 -11.5 59c0 29.3333 6 53.8333 18 73.5s28.8333 35.3333 50.5 47c21.6667 11.6667 47.6667 20 78 25s63.8333 7.5 100.5 7.5h27.5c9 0 18.1667 -0.666656 27.5 -2c2 20 3 38 3 54
c0 36.6667 -7.33334 62.3333 -22 77c-14.6667 14.6667 -41.3333 22 -80 22c-11.3333 0 -23.5 -0.833344 -36.5 -2.5s-26.3333 -4 -40 -7s-26.6667 -6.66666 -39 -11c-12.3333 -4.33334 -23.1667 -9.16669 -32.5 -14.5zM211 62c18.6667 0 35.3333 2.5 50 7.5
s27.3333 11.3333 38 19c10.6667 7.66666 19.5 16.1667 26.5 25.5s12.1667 18.3333 15.5 27v83c-9.33334 0.666672 -18.8333 1.16667 -28.5 1.5s-19.1667 0.5 -28.5 0.5c-20.6667 0 -40.8333 -1.16667 -60.5 -3.5s-37 -6.66666 -52 -13c-15 -6.33333 -27 -15 -36 -26
s-13.5 -24.8333 -13.5 -41.5c0 -23.3333 8.33333 -42.5 25 -57.5s38 -22.5 64 -22.5z" />
    <glyph glyph-name="b" unicode="b" horiz-adv-x="540" 
d="M77 700h80v-249h4c15.3333 19.3333 34.8333 34.3333 58.5 45s49.5 16 77.5 16c64.6667 0 113.167 -20.6667 145.5 -62s48.5 -105.333 48.5 -192c0 -87.3333 -21.3333 -153.667 -64 -199c-42.6667 -45.3333 -102.667 -68 -180 -68c-37.3333 0 -71.1667 4 -101.5 12
s-53.1667 16.6667 -68.5 26v671zM283 442c-33.3333 0 -60.3333 -9.33334 -81 -28s-35.6667 -45 -45 -79v-252c12.6667 -7.33334 28 -12.8333 46 -16.5c18 -3.66667 36.6667 -5.5 56 -5.5c45.3333 0 81.5 16 108.5 48s40.5 82 40.5 150c0 26 -2.33334 50.3333 -7 73
s-12 42 -22 58s-22.8333 28.6667 -38.5 38s-34.8333 14 -57.5 14z" />
    <glyph glyph-name="c" unicode="c" horiz-adv-x="451" 
d="M418 33c-20 -14.6667 -43.6667 -25.8333 -71 -33.5s-56 -11.5 -86 -11.5c-38.6667 0 -71.3333 6.16667 -98 18.5c-26.6667 12.3333 -48.5 30 -65.5 53s-29.3333 50.6667 -37 83c-7.66667 32.3333 -11.5 68.1667 -11.5 107.5c0 84.6667 18.6667 149.5 56 194.5
c37.3333 45 91 67.5 161 67.5c32 0 59.1667 -2.5 81.5 -7.5s42.5 -12.1667 60.5 -21.5l-23 -69c-15.3333 8.66666 -32.3333 15.5 -51 20.5s-38.6667 7.5 -60 7.5c-94.6667 0 -142 -64 -142 -192c0 -25.3333 2.5 -49.5 7.5 -72.5s13.3333 -43.3333 25 -61
c11.6667 -17.6667 27 -31.8333 46 -42.5s42.5 -16 70.5 -16c24 0 45.5 3.66666 64.5 11s34.5 15.6667 46.5 25z" />
    <glyph glyph-name="d" unicode="d" horiz-adv-x="538" 
d="M461 172c0 -34 0.333344 -64.8333 1 -92.5s3.66666 -54.8333 9 -81.5h-54l-20 71h-4c-13.3333 -23.3333 -32.6667 -42.6667 -58 -58c-25.3333 -15.3333 -55 -23 -89 -23c-66.6667 0 -116.167 21 -148.5 63c-32.3333 42 -48.5 107.667 -48.5 197
c0 85.3333 20.1667 150.167 60.5 194.5c40.3333 44.3333 95.8333 66.5 166.5 66.5c24.6667 0 44.1667 -1.33334 58.5 -4s29.8333 -7 46.5 -13v208h80v-528zM259 58c34 0 61 8.83334 81 26.5s33.6667 44.5 41 80.5v248c-12 9.33334 -25.6667 16 -41 20s-35.6667 6 -61 6
c-46 0 -82 -15.1667 -108 -45.5s-39 -78.8333 -39 -145.5c0 -27.3333 2.16667 -52.6667 6.5 -76c4.33333 -23.3333 11.5 -43.3333 21.5 -60c10 -16.6667 23.1667 -29.8333 39.5 -39.5s36.1667 -14.5 59.5 -14.5z" />
    <glyph glyph-name="e" unicode="e" horiz-adv-x="508" 
d="M442 40c-20 -16 -45.1667 -28.6667 -75.5 -38s-62.5 -14 -96.5 -14c-38 0 -71 6.16667 -99 18.5s-51 30 -69 53s-31.3333 50.5 -40 82.5c-8.66667 32 -13 68 -13 108c0 85.3333 19 150.333 57 195s92.3333 67 163 67c22.6667 0 45.3333 -2.5 68 -7.5
c22.6667 -5 43 -14.5 61 -28.5s32.6667 -33.8333 44 -59.5s17 -59.5 17 -101.5c0 -22 -2 -46.3333 -6 -73h-321c0 -29.3333 3 -55.3333 9 -78s15.3333 -41.8333 28 -57.5s29.1667 -27.6667 49.5 -36s45.1667 -12.5 74.5 -12.5c22.6667 0 45.3333 4 68 12
c22.6667 8 39.6667 17.3333 51 28zM270 442c-39.3333 0 -70.8333 -10.3333 -94.5 -31s-37.8333 -56 -42.5 -106h248c0 50.6667 -9.66666 86.1667 -29 106.5s-46.6667 30.5 -82 30.5z" />
    <glyph glyph-name="f" unicode="f" horiz-adv-x="319" 
d="M22 500h78v28c0 30.6667 2.5 57.3334 7.5 80c5 22.6667 13.1667 41.1667 24.5 55.5c11.3333 14.3333 26 25 44 32s40.3333 10.5 67 10.5c21.3333 0 40.1667 -1.33331 56.5 -4c16.3333 -2.66669 33.5 -7.66669 51.5 -15l-18 -67c-15.3333 6.66669 -29.8333 11 -43.5 13
s-26.5 3 -38.5 3c-17.3333 0 -30.8333 -2.66669 -40.5 -8s-16.6667 -13.1666 -21 -23.5c-4.33333 -10.3333 -7 -23 -8 -38s-1.5 -32.5 -1.5 -52.5v-14h133v-70h-133v-430h-80v430h-78v70z" />
    <glyph glyph-name="g" unicode="g" horiz-adv-x="537" 
d="M460 -23c0 -64.6667 -17.1667 -112.333 -51.5 -143s-85.1667 -46 -152.5 -46c-40 0 -72.1667 2.5 -96.5 7.5s-45.1667 11.5 -62.5 19.5l21 68c15.3333 -6 32.3333 -11.6667 51 -17s43 -8 73 -8c28 0 50.8333 2.5 68.5 7.5s31.8333 13.3333 42.5 25
c10.6667 11.6667 18 26.6667 22 45s6 40.1667 6 65.5v48h-4c-13.3333 -19.3333 -30.3333 -34.1667 -51 -44.5s-47.6667 -15.5 -81 -15.5c-67.3333 0 -116.833 21 -148.5 63s-47.5 107.333 -47.5 196c0 85.3333 20.3333 150.167 61 194.5
c40.6667 44.3333 100.667 66.5 180 66.5c38 0 70.5 -3 97.5 -9s51.1667 -13 72.5 -21v-502zM259 59c34 0 60.6667 8.5 80 25.5s33 43.5 41 79.5v256c-26.6667 12.6667 -60.6667 19 -102 19c-45.3333 0 -81 -15.3333 -107 -46s-39 -78.6667 -39 -144
c0 -28 2.33333 -53.6667 7 -77s12 -43.3333 22 -60c10 -16.6667 23 -29.6667 39 -39s35.6667 -14 59 -14z" />
    <glyph glyph-name="h" unicode="h" horiz-adv-x="547" 
d="M398 0v285c0 26 -1.5 48.8333 -4.5 68.5s-8.5 36 -16.5 49s-18.8333 22.8333 -32.5 29.5s-31.5 10 -53.5 10c-31.3333 0 -59.6667 -10.1667 -85 -30.5s-41.6667 -46.5 -49 -78.5v-333h-80v700h80v-256h4c17.3333 20.6667 38.1667 37.1667 62.5 49.5
c24.3333 12.3333 54.5 18.5 90.5 18.5c28 0 52.3333 -3.16666 73 -9.5s37.8333 -17.5 51.5 -33.5c13.6667 -16 23.6667 -37.5 30 -64.5s9.5 -61.1667 9.5 -102.5v-302h-80z" />
    <glyph glyph-name="i" unicode="i" horiz-adv-x="268" 
d="M94 500h80v-500h-80v500zM77 652c0 15.3333 5.16666 28.5 15.5 39.5s23.5 16.5 39.5 16.5s29.6667 -5.5 41 -16.5s17 -24.1667 17 -39.5s-5.66667 -28 -17 -38s-25 -15 -41 -15s-29.1667 5 -39.5 15s-15.5 22.6667 -15.5 38z" />
    <glyph glyph-name="j" unicode="j" horiz-adv-x="267" 
d="M93 500h80v-527c0 -62 -10.6667 -108.333 -32 -139c-21.3333 -30.6667 -55.3333 -46 -102 -46c-5.33334 0 -10.3333 0.166672 -15 0.5s-9.66667 0.833328 -15 1.5v68c18.6667 0 33.5 2.83333 44.5 8.5c11 5.66666 19.5 14.5 25.5 26.5s9.83334 27.1667 11.5 45.5
s2.5 39.8333 2.5 64.5v497zM76 652c0 15.3333 5.16666 28.5 15.5 39.5s23.5 16.5 39.5 16.5s29.6667 -5.5 41 -16.5s17 -24.1667 17 -39.5s-5.66667 -28 -17 -38s-25 -15 -41 -15s-29.1667 5 -39.5 15s-15.5 22.6667 -15.5 38z" />
    <glyph glyph-name="k" unicode="k" horiz-adv-x="479" 
d="M203 225h-46v-225h-80v700h80v-426l41 14l155 212h93l-153 -201l-41 -33l50 -40l167 -226h-99z" />
    <glyph glyph-name="l" unicode="l" horiz-adv-x="292" 
d="M166 123c0 -23.3333 4 -40 12 -50s19.3333 -15 34 -15c8.66667 0 18 0.666656 28 2c10 1.33333 21.3333 4.33333 34 9l9 -63c-10.6667 -5.33333 -25.5 -9.66667 -44.5 -13s-35.5 -5 -49.5 -5c-30 0 -54.6667 8.5 -74 25.5c-19.3333 17 -29 45.8333 -29 86.5v600h80v-577z
" />
    <glyph glyph-name="m" unicode="m" horiz-adv-x="812" 
d="M370 0v283c0 26.6667 -1.16666 49.8333 -3.5 69.5c-2.33334 19.6667 -6.83334 36.1667 -13.5 49.5s-16.1667 23.3333 -28.5 30s-28.5 10 -48.5 10c-30.6667 0 -56.1667 -9.33334 -76.5 -28s-34.5 -42 -42.5 -70v-344h-80v500h56l15 -61h4
c18 21.3333 38.8333 38.8333 62.5 52.5s54.5 20.5 92.5 20.5c32 0 58.1667 -6.16666 78.5 -18.5s36.1667 -33.8333 47.5 -64.5c15.3333 26 36.5 46.3333 63.5 61s57.5 22 91.5 22c28 0 51.6667 -3.16666 71 -9.5s35.3333 -17.5 48 -33.5s21.8334 -37.6667 27.5 -65
c5.66669 -27.3333 8.5 -62 8.5 -104v-300h-80v301c0 24 -1.16669 44.8333 -3.5 62.5s-7 32.3333 -14 44c-7 11.6667 -16.6667 20.3333 -29 26c-12.3333 5.66666 -28.5 8.5 -48.5 8.5c-33.3333 0 -59.3333 -9.33334 -78 -28c-18.6667 -18.6667 -32 -45.3333 -40 -80v-334h-80
z" />
    <glyph glyph-name="n" unicode="n" horiz-adv-x="547" 
d="M398 0v285c0 52 -7.5 91.1667 -22.5 117.5s-42.5 39.5 -82.5 39.5c-35.3333 0 -64.5 -9.5 -87.5 -28.5c-23 -19 -39.1667 -42.8333 -48.5 -71.5v-342h-80v500h56l15 -61h4c16 21.3333 37.5 38.8333 64.5 52.5s59.1667 20.5 96.5 20.5c27.3333 0 51.3333 -3.16666 72 -9.5
s37.8333 -17.5 51.5 -33.5c13.6667 -16 24 -37.5 31 -64.5s10.5 -61.1667 10.5 -102.5v-302h-80z" />
    <glyph glyph-name="o" unicode="o" horiz-adv-x="536" 
d="M49 250c0 84.6667 18.8333 149.5 56.5 194.5c37.6667 45 91.8333 67.5 162.5 67.5c37.3333 0 69.8333 -6.16666 97.5 -18.5s50.5 -30 68.5 -53s31.3333 -50.6667 40 -83s13 -68.1667 13 -107.5c0 -84.6667 -18.8333 -149.5 -56.5 -194.5s-91.8333 -67.5 -162.5 -67.5
c-37.3333 0 -69.8333 6.16667 -97.5 18.5s-50.5 30 -68.5 53s-31.3333 50.6667 -40 83c-8.66667 32.3333 -13 68.1667 -13 107.5zM132 250c0 -25.3333 2.5 -49.6667 7.5 -73c5 -23.3333 12.8333 -43.6667 23.5 -61s24.6667 -31.3333 42 -42
c17.3333 -10.6667 38.3333 -16 63 -16c90.6667 -0.666672 136 63.3333 136 192c0 26 -2.5 50.6667 -7.5 74s-12.8333 43.6667 -23.5 61c-10.6667 17.3333 -24.6667 31.1667 -42 41.5c-17.3333 10.3333 -38.3333 15.5 -63 15.5c-90.6667 0.666656 -136 -63.3333 -136 -192z
" />
    <glyph glyph-name="p" unicode="p" horiz-adv-x="541" 
d="M77 500h55l15 -60h4c15.3333 23.3333 35.1667 41.1667 59.5 53.5c24.3333 12.3333 52.1667 18.5 83.5 18.5c66.6667 0 116.333 -19.6667 149 -59c32.6667 -39.3333 49 -103.667 49 -193c0 -42 -5.5 -79.8333 -16.5 -113.5s-26.5 -62.1667 -46.5 -85.5
c-20 -23.3333 -44.1667 -41.3333 -72.5 -54c-28.3333 -12.6667 -59.8333 -19 -94.5 -19c-24.6667 0 -44.1667 1.5 -58.5 4.5s-29.8333 8.16667 -46.5 15.5v-208h-80v700zM279 442c-34 0 -60.8333 -8.83334 -80.5 -26.5s-33.5 -44.5 -41.5 -80.5v-248
c12 -9.33334 25.6667 -16.5 41 -21.5s35.6667 -7.5 61 -7.5c46 0 82.5 17.1667 109.5 51.5c27 34.3333 40.5 84.8333 40.5 151.5c0 27.3333 -2.33334 52.1667 -7 74.5c-4.66666 22.3333 -12.1667 41.3333 -22.5 57s-23.6667 27.8333 -40 36.5
c-16.3333 8.66666 -36.5 13 -60.5 13z" />
    <glyph glyph-name="q" unicode="q" horiz-adv-x="537" 
d="M460 -200h-80v250h-4c-13.3333 -20 -30.1667 -35.3333 -50.5 -46c-20.3333 -10.6667 -47.1667 -16 -80.5 -16c-66.6667 0 -116 21.1667 -148 63.5c-32 42.3333 -48 107.833 -48 196.5c0 86 20.6667 151 62 195c41.3333 44 101.667 66 181 66
c35.3333 0 68.5 -3.33334 99.5 -10s53.8333 -13.6667 68.5 -21v-678zM259 58c34 0 60.6667 8.66666 80 26s33 44 41 80v256c-24.6667 12.6667 -58.6667 19 -102 19c-46 0 -81.8333 -15.5 -107.5 -46.5s-38.5 -78.8333 -38.5 -143.5c0 -28 2.33333 -53.8333 7 -77.5
s12 -43.8333 22 -60.5s23 -29.6667 39 -39s35.6667 -14 59 -14z" />
    <glyph glyph-name="r" unicode="r" horiz-adv-x="340" 
d="M313 423c-20 6.66666 -39 10 -57 10c-28.6667 0 -51.3333 -7.83334 -68 -23.5c-16.6667 -15.6667 -27 -35.5 -31 -59.5v-350h-80v500h56l15 -61h4c12.6667 22.6667 27.8333 40.1667 45.5 52.5c17.6667 12.3333 40.1667 18.5 67.5 18.5c19.3333 0 41 -3.33334 65 -10z" />
    <glyph glyph-name="s" unicode="s" horiz-adv-x="421" 
d="M297 136c0 20 -6 35.6667 -18 47s-26.8333 20.8333 -44.5 28.5s-37 15 -58 22s-40.3333 16 -58 27c-17.6667 11 -32.5 25.1667 -44.5 42.5s-18 40.6667 -18 70c0 48 13.6667 83.1667 41 105.5s65.3333 33.5 114 33.5c36 0 66.1667 -3.16666 90.5 -9.5
s45.5 -13.8333 63.5 -22.5l-19 -66c-15.3333 7.33334 -33.8333 13.8333 -55.5 19.5s-44.8333 8.5 -69.5 8.5c-29.3333 0 -50.8333 -5 -64.5 -15s-20.5 -27.3333 -20.5 -52c0 -17.3333 6 -30.8333 18 -40.5s26.8333 -18.3333 44.5 -26c17.6667 -7.66666 37 -15.1667 58 -22.5
s40.3333 -17 58 -29s32.5 -27.1667 44.5 -45.5s18 -42.5 18 -72.5c0 -21.3333 -3.5 -41.3333 -10.5 -60s-17.8333 -34.6667 -32.5 -48c-14.6667 -13.3333 -32.8333 -23.8333 -54.5 -31.5c-21.6667 -7.66667 -47.1667 -11.5 -76.5 -11.5c-38 0 -70.3333 3.66667 -97 11
c-26.6667 7.33333 -49 16 -67 26l24 68c15.3333 -8.66666 35.3333 -16.6667 60 -24c24.6667 -7.33334 49.6667 -11 75 -11c28.6667 0 52.3333 5.66666 71 17s28 31.6667 28 61z" />
    <glyph glyph-name="t" unicode="t" horiz-adv-x="339" 
d="M11 500h78v99l80 23v-122h136v-70h-136v-277c0 -34.6667 4.33333 -59.1667 13 -73.5c8.66667 -14.3333 23.3333 -21.5 44 -21.5c17.3333 0 32 1.83333 44 5.5c12 3.66666 25.3333 8.5 40 14.5l18 -61c-18 -8.66667 -37.6667 -15.6667 -59 -21
c-21.3333 -5.33333 -44.3333 -8 -69 -8c-40.6667 0 -69.3333 11.5 -86 34.5s-25 61.5 -25 115.5v292h-78v70z" />
    <glyph glyph-name="u" unicode="u" horiz-adv-x="539" 
d="M149 500v-285c0 -26 1.5 -48.8333 4.5 -68.5c3 -19.6667 8.16667 -36 15.5 -49s17.3333 -22.8333 30 -29.5c12.6667 -6.66667 28.6667 -10 48 -10c18 0 34 2.83333 48 8.5c14 5.66666 26.5 13.5 37.5 23.5s20.6667 21.5 29 34.5s15.1667 26.8333 20.5 41.5v334h80v-358
c0 -24 0.833344 -48.8333 2.5 -74.5s4.5 -48.1667 8.5 -67.5h-55l-20 79h-5c-15.3333 -26 -36 -47.6667 -62 -65s-59 -26 -99 -26c-26.6667 0 -50.1667 3.16667 -70.5 9.5s-37.3333 17.5 -51 33.5c-13.6667 16 -24 37.5 -31 64.5s-10.5 61.1667 -10.5 102.5v302h80z" />
    <glyph glyph-name="v" unicode="v" horiz-adv-x="482" 
d="M221 207l28 -95h1l25 97l112 291h86l-213 -511h-34l-217 511h92z" />
    <glyph glyph-name="w" unicode="w" horiz-adv-x="735" 
d="M401 500l115 -292l25 -96h2l19 98l89 290h76l-168 -511h-39l-131 330l-19 82h-3l-20 -83l-126 -329h-39l-174 511h87l99 -291l17 -97h1l24 99l107 289h58z" />
    <glyph glyph-name="x" unicode="x" horiz-adv-x="515" 
d="M208 256l-168 244h98l95 -138l28 -57l29 57l97 138h90l-169 -240l179 -260h-95l-106 152l-30 60l-31 -60l-108 -152h-89z" />
    <glyph glyph-name="y" unicode="y" horiz-adv-x="466" 
d="M224 176l28 -96h5l22 97l97 323h81l-148 -449l-33.5 -95c-11 -30.6667 -23.1667 -58 -36.5 -82s-28.3333 -43.1667 -45 -57.5s-36 -21.5 -58 -21.5c-24 0 -43.6667 3.33333 -59 10l14 69c8.66666 -3.33333 17 -5 25 -5c18.6667 0 36.6667 9.83334 54 29.5
s31.6667 53.5 43 101.5l-201 500h92z" />
    <glyph glyph-name="z" unicode="z" horiz-adv-x="447" 
d="M42 70l231 318l42 42h-273v70h356v-70l-233 -321l-41 -39h274v-70h-356v70z" />
    <glyph glyph-name="braceleft" unicode="{" horiz-adv-x="346" 
d="M137 112c0 34 -7 57.1667 -21 69.5s-33.6667 18.5 -59 18.5v70c25.3333 0 45 6.66666 59 20s21 34.6667 21 64v242c0 31.3333 7.83333 56.6666 23.5 76c15.6667 19.3333 39.5 29 71.5 29h85v-70h-50c-18 0 -31.1667 -4.5 -39.5 -13.5s-12.5 -24.1667 -12.5 -45.5v-237
c0 -29.3333 -7 -51.6667 -21 -67c-14 -15.3333 -30.3333 -24.6667 -49 -28v-6c18 -2.66667 34.1667 -12.8333 48.5 -30.5c14.3333 -17.6667 21.5 -40.5 21.5 -68.5v-236c0 -20.6667 4 -35.6667 12 -45c8 -9.33333 21.6667 -14 41 -14h49v-70h-85
c-30 0 -53.3333 8.83333 -70 26.5s-25 43.5 -25 77.5v238z" />
    <glyph glyph-name="bar" unicode="|" horiz-adv-x="238" 
d="M85 700h68v-830h-68v830z" />
    <glyph glyph-name="braceright" unicode="}" horiz-adv-x="346" 
d="M235 359c0 -34 7 -57.1667 21 -69.5s33.6667 -18.5 59 -18.5v-70c-25.3333 0 -45 -6.66667 -59 -20s-21 -34.6667 -21 -64v-242c0 -31.3333 -7.83333 -56.6667 -23.5 -76c-15.6667 -19.3333 -39.5 -29 -71.5 -29h-85v70h50c18 0 31.1667 4.5 39.5 13.5
s12.5 24.1667 12.5 45.5v237c0 29.3333 6.83333 51.6667 20.5 67c13.6667 15.3333 29.8333 24.6667 48.5 28v6c-18 2.66667 -34 12.8333 -48 30.5s-21 40.5 -21 68.5v236c0 20.6667 -4 35.6667 -12 45s-21.3333 14 -40 14h-50v70h86c29.3333 0 52.3333 -8.83331 69 -26.5
s25 -43.5 25 -77.5v-238z" />
    <glyph glyph-name="asciitilde" unicode="~" horiz-adv-x="505" 
d="M31 361c28.6667 22 54.6667 37.3333 78 46c23.3333 8.66666 44.6667 13 64 13c18.6667 0 36 -2.83334 52 -8.5s31.3333 -12 46 -19s29 -13.3333 43 -19s28.6667 -8.5 44 -8.5c12.6667 0 25.6667 2.66666 39 8s27.6667 14.6667 43 28l34 -61
c-25.3333 -17.3333 -48.1667 -29.5 -68.5 -36.5c-20.3333 -7 -38.8333 -10.5 -55.5 -10.5c-18 0 -34.5 2.83334 -49.5 8.5s-29.3333 12 -43 19c-13.6667 7 -27.3333 13.3333 -41 19c-13.6667 5.66666 -28.5 8.5 -44.5 8.5c-15.3333 0 -31.6667 -3.5 -49 -10.5
s-36.6667 -19.1667 -58 -36.5z" />
    <glyph glyph-name="uni00A0" unicode="&#xa0;" horiz-adv-x="267" 
 />
    <glyph glyph-name="exclamdown" unicode="&#xa1;" horiz-adv-x="304" 
d="M176 -200h-83v347l17 176h49l17 -176v-347zM77 453c0 18 5.16666 32.1667 15.5 42.5s24.1667 15.5 41.5 15.5c18 0 32.3333 -5.16666 43 -15.5s16 -24.5 16 -42.5c0 -17.3333 -5.33333 -31.3333 -16 -42s-25 -16 -43 -16c-17.3333 0 -31.1667 5.33334 -41.5 16
c-10.3333 10.6667 -15.5 24.6667 -15.5 42z" />
    <glyph glyph-name="cent" unicode="&#xa2;" 
d="M461 33c-16 -11.3333 -34.1667 -20.5 -54.5 -27.5s-42.1667 -11.8333 -65.5 -14.5v-91h-71v90c-33.3333 3.33333 -61.5 11.8333 -84.5 25.5s-41.8333 31.6667 -56.5 54c-14.6667 22.3333 -25.3333 48.8333 -32 79.5c-6.66666 30.6667 -10 64.3333 -10 101
c0 76.6667 15.8333 137.167 47.5 181.5c31.6667 44.3333 76.8333 70.1667 135.5 77.5v91h71v-89c23.3333 -1.33334 44 -4.5 62 -9.5s34.3333 -11.1667 49 -18.5l-23 -68c-13.3333 6.66666 -28.1667 12.3333 -44.5 17c-16.3333 4.66666 -33.1667 7.66666 -50.5 9v-383
c21.3333 1.33333 40.6667 5.5 58 12.5c17.3333 7 31.6667 14.8333 43 23.5zM170 250c0 -22 1.83333 -43.1667 5.5 -63.5s9.83334 -39 18.5 -56c8.66667 -17 20 -31.5 34 -43.5s31.3333 -20.3333 52 -25v377c-73.3333 -14 -110 -77 -110 -189z" />
    <glyph glyph-name="sterling" unicode="&#xa3;" 
d="M50 383h66c-8 17.3333 -14.6667 36.3333 -20 57s-8 45 -8 73c0 65.3333 18.6667 114.833 56 148.5c37.3333 33.6667 88.3333 50.5 153 50.5c40.6667 0 76 -3 106 -9s54.6667 -13.6667 74 -23l-26 -71c-15.3333 7.33331 -35.8333 14 -61.5 20s-56.8333 9 -93.5 9
c-40 0 -70.8333 -10.8333 -92.5 -32.5s-32.5 -50.8334 -32.5 -87.5c0 -28 3.33333 -52.6667 10 -74s14.6667 -41.6667 24 -61h161v-70h-131c5.33333 -15.3333 9.66666 -31.3333 13 -48c3.33333 -16.6667 5 -35 5 -55s-3 -40.5 -9 -61.5s-15 -38.1667 -27 -51.5l-39 -33v-4
l62 14h256v-74h-446v72c21.3333 0 39.5 3.83334 54.5 11.5s27.3333 17.6667 37 30s16.8333 26.3333 21.5 42c4.66667 15.6667 7 31.5 7 47.5c0 22 -2.16667 41.8333 -6.5 59.5c-4.33333 17.6667 -9.83333 34.5 -16.5 50.5h-97v70z" />
    <glyph glyph-name="currency" unicode="&#xa4;" 
d="M70 596l78 -77l21 -35c28 22 62.3333 33 103 33c39.3333 0 73.6667 -11 103 -33l22 35l78 77l49 -49l-77 -78l-35 -22c21.3333 -28.6667 32 -62.6667 32 -102c0 -40 -10.6667 -74.3333 -32 -103l35 -21l77 -78l-49 -48l-78 77l-21 33
c-28.6667 -20.6667 -63.3333 -31 -104 -31c-41.3333 0 -75.6667 10.3333 -103 31l-21 -33l-78 -77l-49 48l77 78l34 22c-20.6667 28 -31 62 -31 102c0 19.3333 2.83334 37.6667 8.5 55c5.66666 17.3333 13.1667 33.3333 22.5 48l-34 21l-77 78zM170 345
c0 -30 9.5 -55 28.5 -75s43.5 -30 73.5 -30s54.6667 10 74 30s29 45 29 75s-9.66666 55.1667 -29 75.5s-44 30.5 -74 30.5s-54.5 -10.1667 -73.5 -30.5s-28.5 -45.5 -28.5 -75.5z" />
    <glyph glyph-name="yen" unicode="&#xa5;" 
d="M111 328h94l-203 372h97l164 -306l17 -61h1l18 63l157 304h89l-203 -372h96v-60h-122v-71h122v-60h-122v-137h-83v137h-122v60h122v71h-122v60z" />
    <glyph glyph-name="brokenbar" unicode="&#xa6;" horiz-adv-x="238" 
d="M85 206h68v-336h-68v336zM153 364h-68v336h68v-336z" />
    <glyph glyph-name="section" unicode="&#xa7;" horiz-adv-x="497" 
d="M57 353c0 20.6667 5.16666 40.8333 15.5 60.5c10.3333 19.6667 24.1667 37.1667 41.5 52.5l41 14c-17.3333 10.6667 -31.8333 24.1667 -43.5 40.5c-11.6667 16.3333 -17.5 38.1666 -17.5 65.5c0 37.3333 13.8333 67.6666 41.5 91c27.6667 23.3333 66.1667 35 115.5 35
c36 0 66.5 -3 91.5 -9s46.5 -13.3333 64.5 -22l-19 -67c-16 7.33331 -35 13.8333 -57 19.5s-45 8.5 -69 8.5c-30 0 -52.1667 -5.33331 -66.5 -16s-21.5 -25 -21.5 -43c0 -17.3333 6.5 -30.8333 19.5 -40.5s29.5 -18.1667 49.5 -25.5c20 -7.33334 41.3333 -14.6667 64 -22
c22.6667 -7.33334 44 -16.8333 64 -28.5s36.5 -27 49.5 -46s19.5 -43.5 19.5 -73.5c0 -20.6667 -5 -40.6667 -15 -60s-23.6667 -36.6667 -41 -52l-45 -14c18 -10.6667 33.1667 -24.3333 45.5 -41c12.3333 -16.6667 18.5 -38.6667 18.5 -66c0 -20.6667 -4 -38.8333 -12 -54.5
s-19.1667 -28.8333 -33.5 -39.5c-14.3333 -10.6667 -31.1667 -18.6667 -50.5 -24c-19.3333 -5.33333 -40 -8 -62 -8c-37.3333 0 -68 3.16667 -92 9.5s-45.3333 14.1667 -64 23.5l20 65c15.3333 -7.33334 33.8333 -13.8333 55.5 -19.5
c21.6667 -5.66667 45.1667 -8.5 70.5 -8.5c28 0 49.6667 4.5 65 13.5s23 24.1667 23 45.5c0 17.3333 -6.5 31 -19.5 41s-29.5 18.6667 -49.5 26s-41.3333 14.6667 -64 22c-22.6667 7.33333 -44 16.8333 -64 28.5s-36.5 26.8333 -49.5 45.5s-19.5 43 -19.5 73zM360 345
c0 16.6667 -4.33334 30.3333 -13 41c-8.66666 10.6667 -20.1667 19.8333 -34.5 27.5c-14.3333 7.66666 -30.5 14.3333 -48.5 20c-18 5.66666 -36 11.8333 -54 18.5c-19.3333 -8.66666 -36.3333 -21 -51 -37s-22 -36 -22 -60c0 -16.6667 4.33333 -30.3333 13 -41
c8.66667 -10.6667 19.8333 -19.8333 33.5 -27.5c13.6667 -7.66666 29.3333 -14.1667 47 -19.5c17.6667 -5.33334 35.5 -11.3333 53.5 -18c9.33334 4 18.5 9.33334 27.5 16s17.1667 14.1667 24.5 22.5s13.1667 17.3333 17.5 27c4.33334 9.66666 6.5 19.8333 6.5 30.5z" />
    <glyph glyph-name="dieresis" unicode="&#xa8;" horiz-adv-x="411" 
d="M60 653c0 15.3333 4.5 27.6666 13.5 37c9 9.33331 20.8333 14 35.5 14s26.5 -4.66669 35.5 -14s13.5 -21.6666 13.5 -37c0 -14 -4.5 -25.6667 -13.5 -35s-20.8333 -14 -35.5 -14s-26.5 4.66669 -35.5 14s-13.5 21 -13.5 35zM252 653c0 15.3333 4.5 27.6666 13.5 37
c9 9.33331 20.8333 14 35.5 14c15.3333 0 27.5 -4.66669 36.5 -14s13.5 -21.6666 13.5 -37c0 -14 -4.5 -25.6667 -13.5 -35s-21.1667 -14 -36.5 -14c-14.6667 0 -26.5 4.66669 -35.5 14s-13.5 21 -13.5 35z" />
    <glyph glyph-name="copyright" unicode="&#xa9;" horiz-adv-x="806" 
d="M51 290c0 55.3333 9.33333 104.833 28 148.5c18.6667 43.6667 44 80.5 76 110.5s69.3333 53 112 69c42.6667 16 88 24 136 24s93.3333 -8 136 -24c42.6667 -16 80 -39 112 -69s57.3333 -66.8333 76 -110.5s28 -93.1667 28 -148.5
c0 -55.3333 -9.33331 -104.833 -28 -148.5s-44 -80.5 -76 -110.5s-69.3333 -53 -112 -69c-42.6667 -16 -88 -24 -136 -24c-53.3333 0 -101.667 8 -145 24c-43.3333 16 -80.3333 39 -111 69c-30.6667 30 -54.3333 66.8333 -71 110.5c-16.6667 43.6667 -25 93.1667 -25 148.5z
M121 290c0 -46 7.33333 -86.8333 22 -122.5s34.6667 -65.5 60 -89.5s55.1667 -42.3333 89.5 -55c34.3333 -12.6667 71.1667 -19 110.5 -19c39.3333 0 76.1667 6.33333 110.5 19c34.3333 12.6667 64.1666 31 89.5 55c25.3333 24 45.3333 53.8333 60 89.5s22 76.5 22 122.5
s-7.33331 86.8333 -22 122.5s-34.6667 65.5 -60 89.5s-55.1666 42.3333 -89.5 55c-34.3333 12.6667 -71.1667 19 -110.5 19c-39.3333 0 -76.1667 -6.33331 -110.5 -19c-34.3333 -12.6667 -64.1667 -31 -89.5 -55s-45.3333 -53.8333 -60 -89.5s-22 -76.5 -22 -122.5zM519 127
c-15.3333 -8.66666 -32.5 -15.3333 -51.5 -20c-19 -4.66666 -41.1667 -7 -66.5 -7c-54 0 -95.1667 17 -123.5 51c-28.3333 34 -42.5 80.3333 -42.5 139c0 60.6667 15.1667 107.5 45.5 140.5c30.3333 33 70.5 49.5 120.5 49.5c12 0 22.8333 -0.666656 32.5 -2
s18.6667 -3.16669 27 -5.5c8.33334 -2.33334 16.5 -5.16669 24.5 -8.5l27 -11l-26 -61c-14.6667 7.33334 -28.6667 12.3333 -42 15s-24.6667 4 -34 4c-28 0 -50.8333 -8.66666 -68.5 -26s-26.5 -49 -26.5 -95c0 -38.6667 8.66666 -68.5 26 -89.5s43 -31.8333 77 -32.5
c31.3333 0 58 6 80 18z" />
    <glyph glyph-name="ordfeminine" unicode="&#xaa;" horiz-adv-x="386" 
d="M68 677c16.6667 8.66669 38.6667 16 66 22c27.3333 6 57.6667 9 91 9c41.3333 0 69.6667 -8.66669 85 -26c15.3333 -17.3333 23 -42.3333 23 -75c0 -25.3333 -0.5 -49.6666 -1.5 -73c-1 -23.3333 -1.5 -45.6667 -1.5 -67c0 -16 0.5 -31.3333 1.5 -46
s3.16666 -28.3333 6.5 -41h-55l-13 46h-4c-8.66666 -11.3333 -21 -22.5 -37 -33.5c-16 -11 -38.3333 -16.5 -67 -16.5c-34.6667 0 -62.3333 8.5 -83 25.5s-31 40.1667 -31 69.5c0 20.6667 5 38 15 52s23.5 25.3333 40.5 34s37 15 60 19s47.8333 6 74.5 6
c4.66667 0 9.16667 -0.166687 13.5 -0.5s8.83331 -0.5 13.5 -0.5c0.666656 4 1 7.83331 1 11.5v10.5c0 18 -4 30.6667 -12 38s-23.3333 11 -46 11c-26.6667 0 -51 -2.5 -73 -7.5s-39.3333 -10.8333 -52 -17.5zM173 432c14 0 26.1667 1.66666 36.5 5
s19.1667 7.83334 26.5 13.5c7.33333 5.66666 13.3333 11.6667 18 18c4.66666 6.33334 8.33331 12.5 11 18.5v42c-7.33334 0.666687 -14.3333 1 -21 1h-21c-14 0 -27.3333 -0.666687 -40 -2s-23.8333 -4 -33.5 -8c-9.66667 -4 -17.3333 -9.5 -23 -16.5
s-8.5 -16.1667 -8.5 -27.5c0 -13.3333 4.83334 -24 14.5 -32c9.66667 -8 23.1667 -12 40.5 -12z" />
    <glyph glyph-name="guillemotleft" unicode="&#xab;" horiz-adv-x="478" 
d="M222 259l158 228l53 -42l-97 -144l-48 -41l48 -36l103 -141l-52 -43zM39 259l160 230l54 -43l-98 -145l-48 -41l48 -36l104 -142l-54 -44z" />
    <glyph glyph-name="logicalnot" unicode="&#xac;" horiz-adv-x="505" 
d="M41 392h424v-192h-72v120h-352v72z" />
    <glyph glyph-name="uni00AD" unicode="&#xad;" horiz-adv-x="360" 
d="M58 325h244v-74h-244v74z" />
    <glyph glyph-name="registered" unicode="&#xae;" horiz-adv-x="700" 
d="M85 451c0 42.6667 7 80.5 21 113.5s33.1667 60.6667 57.5 83s52.5 39.3333 84.5 51s66 17.5 102 17.5c36.6667 0 71.1667 -5.83331 103.5 -17.5s60.5 -28.6667 84.5 -51s42.8333 -50 56.5 -83s20.5 -70.8333 20.5 -113.5s-7 -80.5 -21 -113.5
s-33.1667 -60.6667 -57.5 -83c-24.3333 -22.3333 -52.5 -39.3333 -84.5 -51c-32 -11.6667 -66 -17.5 -102 -17.5c-37.3333 0 -72 5.83333 -104 17.5s-60 28.6667 -84 51c-24 22.3333 -42.8333 50 -56.5 83s-20.5 70.8333 -20.5 113.5zM148 451
c0 -34.6667 5.33333 -64.8333 16 -90.5c10.6667 -25.6667 25.1667 -47 43.5 -64s39.8333 -29.8333 64.5 -38.5c24.6667 -8.66667 50.6667 -13 78 -13c28.6667 0 55.3333 4.16667 80 12.5c24.6667 8.33334 46 21 64 38s32.1667 38.3333 42.5 64s15.5 56.1667 15.5 91.5
c0 34.6667 -5.33331 64.8333 -16 90.5s-25.1667 47 -43.5 64c-18.3333 17 -39.6667 29.8333 -64 38.5c-24.3333 8.66669 -50.5 13 -78.5 13c-29.3333 0 -56.3333 -4.33331 -81 -13c-24.6667 -8.66669 -46 -21.5 -64 -38.5s-32 -38.3333 -42 -64s-15 -55.8333 -15 -90.5z
M247 581c10.6667 3.33331 25.6667 5.83331 45 7.5s37.6667 2.5 55 2.5c28 0 52 -5.83331 72 -17.5s30 -31.8334 30 -60.5c0 -21.3333 -6.83334 -37.6667 -20.5 -49c-13.6667 -11.3333 -30.5 -17.6667 -50.5 -19l28 -14l74 -109h-61l-72 104l-48 15v-119h-52v259zM336 546
c-7.33334 0 -14.3333 -0.166687 -21 -0.5s-12 -1.5 -16 -3.5v-71h34c19.3333 0 34.3333 3 45 9s16 16.3333 16 31c0 23.3333 -19.3333 35 -58 35z" />
    <glyph glyph-name="macron" unicode="&#xaf;" horiz-adv-x="416" 
d="M60 643h296v-62h-296v62z" />
    <glyph glyph-name="degree" unicode="&#xb0;" horiz-adv-x="425" 
d="M85 571c0 20.6667 3.66666 39.6667 11 57s17.3333 32.1666 30 44.5c12.6667 12.3333 27.6667 22 45 29s35.6667 10.5 55 10.5c19.3333 0 37.6667 -3.16669 55 -9.5s32.3333 -15.6666 45 -28c12.6667 -12.3333 22.6667 -27.1666 30 -44.5c7.33334 -17.3333 11 -37 11 -59
s-3.66666 -41.6667 -11 -59c-7.33334 -17.3333 -17.3333 -32.1667 -30 -44.5c-12.6667 -12.3333 -27.6667 -21.6667 -45 -28c-17.3333 -6.33334 -35.6667 -9.5 -55 -9.5s-37.6667 3.16666 -55 9.5c-17.3333 6.33334 -32.3333 15.6667 -45 28
c-12.6667 12.3333 -22.6667 27.1667 -30 44.5s-11 37 -11 59zM148 571c0 -25.3333 7.83333 -45.1666 23.5 -59.5c15.6667 -14.3333 33.8333 -21.5 54.5 -21.5c20.6667 0 38.8333 7.16666 54.5 21.5c15.6667 14.3333 23.5 34.1666 23.5 59.5
c0 25.3333 -7.83334 45.1666 -23.5 59.5c-15.6667 14.3333 -33.8333 21.5 -54.5 21.5s-38.8333 -7.16669 -54.5 -21.5c-15.6667 -14.3333 -23.5 -34.1666 -23.5 -59.5z" />
    <glyph glyph-name="plusminus" unicode="&#xb1;" horiz-adv-x="505" 
d="M40 493h176v181h72v-181h176v-72h-176v-120h-72v120h-176v72zM40 250h424v-72h-424v72z" />
    <glyph glyph-name="twosuperior" unicode="&#xb2;" horiz-adv-x="394" 
d="M319 690c0 -20.6667 -3.5 -40.6667 -10.5 -60s-16.3333 -38.3333 -28 -57c-11.6667 -18.6666 -25.5 -37.1666 -41.5 -55.5c-16 -18.3333 -33 -36.8333 -51 -55.5l-46 -32v-2l57 15h140v-63h-291v33c15.3333 12.6667 34.5 29.6667 57.5 51s45.1667 44.3333 66.5 69
c21.3333 24.6666 39.5 50 54.5 76s22.5 50 22.5 72c0 20.6667 -6.66667 36.1667 -20 46.5c-13.3333 10.3334 -29.6667 15.5 -49 15.5c-18 0 -35.5 -3.16663 -52.5 -9.5c-17 -6.33331 -31.8333 -13.5 -44.5 -21.5l-22 57c17.3333 12 37.5 21.3334 60.5 28s46.5 10 70.5 10
c42 0 73.6667 -10.3334 95 -31s32 -49.3333 32 -86z" />
    <glyph glyph-name="threesuperior" unicode="&#xb3;" horiz-adv-x="394" 
d="M169 433v6.10352e-05c32 0 56.5 6.33334 73.5 19s25.5 31.3333 25.5 56c0 21.3333 -7.66666 38.6667 -23 52c-15.3333 13.3334 -40 20 -74 20h-55v23l97 116l34 27l-49 -6h-130v60h256v-33l-103 -123l-25 -18v-2l23 3c36.6667 -0.666687 65.6667 -11.6667 87 -33
c21.3333 -21.3334 32 -50 32 -86c0 -40.6667 -14.8333 -73.3333 -44.5 -98s-69.1667 -37 -118.5 -37c-24 0 -44.6667 2 -62 6c-17.3333 4 -32.6667 8.33334 -46 13l15 60c11.3333 -5.33331 24.3333 -9.83331 39 -13.5c14.6667 -3.66666 30.6667 -5.5 48 -5.5z" />
    <glyph glyph-name="acute" unicode="&#xb4;" horiz-adv-x="268" 
d="M119 720h89v-21l-101 -128h-47z" />
    <glyph glyph-name="mu" unicode="&#xb5;" horiz-adv-x="552" 
d="M148 500v-283c0 -52.6667 8.16667 -92.3333 24.5 -119s44.8333 -40 85.5 -40c36.6667 0 67.6667 10.8333 93 32.5s43 50.1667 53 85.5v324h80v-337c0 -27.3333 0.833344 -54.8333 2.5 -82.5c1.66666 -27.6667 5.83331 -54.5 12.5 -80.5h-55l-28 74h-4
c-13.3333 -23.3333 -33.8333 -43.5 -61.5 -60.5s-61.5 -25.5 -101.5 -25.5c-32 0 -56.5 4.66667 -73.5 14s-31.5 21.3333 -43.5 36h-5l21 -105v-133h-80v700h80z" />
    <glyph glyph-name="mu" unicode="&#x3bc;" horiz-adv-x="552" 
d="M148 500v-283c0 -52.6667 8.16667 -92.3333 24.5 -119s44.8333 -40 85.5 -40c36.6667 0 67.6667 10.8333 93 32.5s43 50.1667 53 85.5v324h80v-337c0 -27.3333 0.833344 -54.8333 2.5 -82.5c1.66666 -27.6667 5.83331 -54.5 12.5 -80.5h-55l-28 74h-4
c-13.3333 -23.3333 -33.8333 -43.5 -61.5 -60.5s-61.5 -25.5 -101.5 -25.5c-32 0 -56.5 4.66667 -73.5 14s-31.5 21.3333 -43.5 36h-5l21 -105v-133h-80v700h80z" />
    <glyph glyph-name="paragraph" unicode="&#xb6;" horiz-adv-x="494" 
d="M341 700h68v-830h-68v830zM185 310c-21.3333 0 -41 5.5 -59 16.5s-33.5 25.6667 -46.5 44s-23.3333 39.3333 -31 63c-7.66667 23.6667 -11.5 47.8333 -11.5 72.5s3.83333 48.6667 11.5 72c7.66666 23.3333 18.8333 44 33.5 62s32.6667 32.5 54 43.5
c21.3333 11 45.3333 16.5 72 16.5h45v-830h-68v440z" />
    <glyph glyph-name="periodcentered" unicode="&#xb7;" horiz-adv-x="267" 
d="M76 296c0 18 5.16666 32.1667 15.5 42.5s24.1667 15.5 41.5 15.5c18 0 32.3333 -5.16666 43 -15.5s16 -24.5 16 -42.5c0 -17.3333 -5.33333 -31.3333 -16 -42s-25 -16 -43 -16c-17.3333 0 -31.1667 5.33333 -41.5 16c-10.3333 10.6667 -15.5 24.6667 -15.5 42z" />
    <glyph glyph-name="cedilla" unicode="&#xb8;" horiz-adv-x="287" 
d="M172 0l-24 -43c28 -5.33333 48.1667 -14 60.5 -26s18.5 -28.3333 18.5 -49c0 -26 -10.6667 -47.5 -32 -64.5s-51.3333 -25.5 -90 -25.5c-7.33334 0 -14.6667 0.333328 -22 1c-7.33334 0.666672 -15 1.66667 -23 3l9 39c4 -0.666672 7.66666 -1 11 -1h10
c14.6667 0 26.1667 1.33333 34.5 4c8.33333 2.66667 14.6667 5.83334 19 9.5c4.33333 3.66667 7 7.83334 8 12.5c1 4.66667 1.5 9 1.5 13c0 18.6667 -28.6667 31 -86 37l48 90h57z" />
    <glyph glyph-name="onesuperior" unicode="&#xb9;" horiz-adv-x="394" 
d="M72 441h106v254l7 36l-27 -28l-78 -47l-27 49l154 102h41v-366h95v-61h-271v61z" />
    <glyph glyph-name="ordmasculine" unicode="&#xba;" horiz-adv-x="398" 
d="M44 542c0 30 4 55.6667 12 77s18.8333 39 32.5 53s30 24.1667 49 30.5s39.5 9.5 61.5 9.5s42.5 -3 61.5 -9s35.3333 -15.6667 49 -29s24.5 -30.8333 32.5 -52.5s12 -48.1667 12 -79.5c0 -31.3333 -4 -57.8333 -12 -79.5s-18.8333 -39.1667 -32.5 -52.5s-30 -23 -49 -29
s-39.5 -9 -61.5 -9s-42.5 3 -61.5 9s-35.3333 15.6667 -49 29s-24.5 30.8333 -32.5 52.5s-12 48.1667 -12 79.5zM118 542c0 -40 7.16666 -68.6667 21.5 -86c14.3333 -17.3333 34.1667 -26 59.5 -26c12.6667 0 24 1.83334 34 5.5s18.5 9.66666 25.5 18s12.3333 19.6667 16 34
c3.66666 14.3333 5.5 32.5 5.5 54.5s-1.83334 40.1667 -5.5 54.5s-9 25.6666 -16 34c-7 8.33331 -15.5 14.3333 -25.5 18s-21.3333 5.5 -34 5.5c-25.3333 0 -45.1667 -7.83331 -59.5 -23.5s-21.5 -45.1667 -21.5 -88.5z" />
    <glyph glyph-name="guillemotright" unicode="&#xbb;" horiz-adv-x="478" 
d="M257 268l-160 -228l-52 42l96 144l49 41l-49 36l-102 141l52 43zM439 268l-160 -230l-54 43l98 145l48 41l-48 36l-104 142l53 44z" />
    <glyph glyph-name="onequarter" unicode="&#xbc;" horiz-adv-x="837" 
d="M628 713l52 -35l-487 -690l-52 36zM797 96h-83v-96h-67v96h-204v37l226 302h45v-280h83v-59zM647 283l6 49h-2l-22 -46l-78 -105l-33 -31l50 5h79v128zM179 595l7 36l-28 -28l-78 -47l-27 49l154 102h42v-427h-70v315z" />
    <glyph glyph-name="onehalf" unicode="&#xbd;" horiz-adv-x="850" 
d="M628 713l52 -35l-487 -690l-52 36zM790 310c0 -20.6667 -3.5 -40.6667 -10.5 -60c-7 -19.3333 -16.3334 -38.3333 -28 -57c-11.6667 -18.6667 -25.5 -37.1667 -41.5 -55.5c-16 -18.3333 -33 -36.8333 -51 -55.5l-46 -32v-2l57 15h140v-63h-291v33
c15.3333 12.6667 34.5 29.6667 57.5 51s45.1667 44.3333 66.5 69c21.3333 24.6667 39.5 50 54.5 76s22.5 50 22.5 72c0 20.6667 -6.66669 36.1667 -20 46.5c-13.3333 10.3333 -29.6666 15.5 -49 15.5c-18 0 -35.5 -3.16666 -52.5 -9.5
c-17 -6.33331 -31.8334 -13.5 -44.5 -21.5l-22 57c17.3334 12 37.5 21.3333 60.5 28s46.5 10 70.5 10c42 0 73.6666 -10.3333 95 -31s32 -49.3333 32 -86zM179 595l7 36l-28 -28l-78 -47l-27 49l154 102h42v-427h-70v315z" />
    <glyph glyph-name="threequarters" unicode="&#xbe;" horiz-adv-x="876" 
d="M667 713l52 -35l-487 -690l-52 36zM836 96h-83v-96h-67v96h-204v37l226 302h45v-280h83v-59zM686 283l6 49h-2l-22 -46l-78 -105l-33 -31l50 5h79v128zM178 333v6.10352e-05c32 0 56.5 6.33334 73.5 19s25.5 31.3333 25.5 56c0 21.3333 -7.66666 38.6667 -23 52
c-15.3333 13.3333 -40 20 -74 20h-55v23l97 116l34 27l-49 -6h-130v60h256v-33l-103 -123l-25 -18v-2l23 3c36.6667 -0.666687 65.6667 -11.6667 87 -33c21.3333 -21.3333 32 -50 32 -86c0 -40.6667 -14.8333 -73.3333 -44.5 -98s-69.1667 -37 -118.5 -37
c-24 0 -44.6667 2 -62 6c-17.3333 4 -32.6667 8.33334 -46 13l15 60c11.3333 -5.33331 24.3333 -9.83331 39 -13.5c14.6667 -3.66666 30.6667 -5.5 48 -5.5z" />
    <glyph glyph-name="questiondown" unicode="&#xbf;" horiz-adv-x="436" 
d="M286 323c0.666656 -3.33334 1 -7 1 -11v-11c0 -28 -4.16666 -52.6667 -12.5 -74s-18.6667 -40.8333 -31 -58.5s-25.6667 -34.1667 -40 -49.5c-14.3333 -15.3333 -27.6667 -30.8333 -40 -46.5c-12.3333 -15.6667 -22.6667 -32.3333 -31 -50
c-8.33334 -17.6667 -12.5 -37.8333 -12.5 -60.5c0 -30.6667 8.83333 -55.6667 26.5 -75c17.6667 -19.3333 47.1667 -29 88.5 -29c24 0 48.3333 4.16667 73 12.5c24.6667 8.33334 46 18.1667 64 29.5l27 -62c-25.3333 -15.3333 -52 -27.5 -80 -36.5
s-62.6667 -13.5 -104 -13.5c-29.3333 0 -55.1667 4.16667 -77.5 12.5s-41 19.8333 -56 34.5s-26.1667 31.8333 -33.5 51.5c-7.33334 19.6667 -11 41.1667 -11 64.5c0 30 4.5 56.1667 13.5 78.5c9 22.3333 20.3333 42.6667 34 61c13.6667 18.3333 28.3333 35.5 44 51.5
s30.3333 32.8333 44 50.5c13.6667 17.6667 25 36.8333 34 57.5s13.5 45 13.5 73h66zM191 454c0 18 5.16667 32.1667 15.5 42.5s24.1667 15.5 41.5 15.5c18 0 32.3333 -5.16666 43 -15.5s16 -24.5 16 -42.5c0 -17.3333 -5.33334 -31.3333 -16 -42s-25 -16 -43 -16
c-17.3333 0 -31.1667 5.33334 -41.5 16c-10.3333 10.6667 -15.5 24.6667 -15.5 42z" />
    <glyph glyph-name="Agrave" unicode="&#xc0;" horiz-adv-x="585" 
d="M418 194h-258l-70 -194h-82l265 711h38l266 -711h-87zM187 266h206l-78 213l-25 106h-1l-25 -108zM367 752h-74l-158 97v21h114z" />
    <glyph glyph-name="Aacute" unicode="&#xc1;" horiz-adv-x="585" 
d="M418 194h-258l-70 -194h-82l265 711h38l266 -711h-87zM187 266h206l-78 213l-25 106h-1l-25 -108zM331 870h114v-21l-163 -97h-69z" />
    <glyph glyph-name="Acircumflex" unicode="&#xc2;" horiz-adv-x="585" 
d="M418 194h-258l-70 -194h-82l265 711h38l266 -711h-87zM187 266h206l-78 213l-25 106h-1l-25 -108zM265 870h60l127 -102v-21h-81l-60 49l-17 35l-19 -34l-64 -50h-79v22z" />
    <glyph glyph-name="Atilde" unicode="&#xc3;" horiz-adv-x="585" 
d="M418 194h-258l-70 -194h-82l265 711h38l266 -711h-87zM187 266h206l-78 213l-25 106h-1l-25 -108zM135 785c20.6667 21.3333 39.8333 35.8333 57.5 43.5s34.5 11.5 50.5 11.5c12.6667 0 25 -1.66669 37 -5s23.5 -7.16663 34.5 -11.5
c11 -4.33331 21.8333 -8.16663 32.5 -11.5c10.6667 -3.33331 21 -5 31 -5c17.3333 0 34 7 50 21l25 -43c-18 -16.6667 -35 -28.1667 -51 -34.5s-31 -9.5 -45 -9.5c-12.6667 0 -24.6667 1.66669 -36 5c-11.3333 3.33331 -22.5 7.16663 -33.5 11.5
c-11 4.33331 -21.8333 8.16663 -32.5 11.5c-10.6667 3.33331 -21.3333 5 -32 5c-10.6667 0 -21.1667 -2.16669 -31.5 -6.5c-10.3333 -4.33331 -21.1667 -12.1666 -32.5 -23.5z" />
    <glyph glyph-name="Adieresis" unicode="&#xc4;" horiz-adv-x="585" 
d="M418 194h-258l-70 -194h-82l265 711h38l266 -711h-87zM187 266h206l-78 213l-25 106h-1l-25 -108zM144 794c0 14 5 25.3333 15 34s23 13 39 13c15.3333 0 27.8333 -4.33331 37.5 -13s14.5 -20 14.5 -34c0 -13.3333 -4.83333 -24.3333 -14.5 -33s-22.1667 -13 -37.5 -13
c-16 0 -29 4.33331 -39 13s-15 19.6667 -15 33zM336 794h-3.05176e-05c0 14 4.83334 25.3333 14.5 34s22.1667 13 37.5 13c16 0 29 -4.33331 39 -13s15 -20 15 -34c0 -13.3333 -5 -24.3333 -15 -33s-23 -13 -39 -13c-15.3333 0 -27.8333 4.33331 -37.5 13
s-14.5 19.6667 -14.5 33z" />
    <glyph glyph-name="Aring" unicode="&#xc5;" horiz-adv-x="585" 
d="M188 768c0 24.6667 8.33333 45 25 61s43.3333 24 80 24c33.3333 0 59.3333 -7.16669 78 -21.5s28 -35.5 28 -63.5c0 -21.3333 -6.66666 -39.1666 -20 -53.5c-13.3333 -14.3333 -33 -23.5 -59 -27.5l257 -687h-87l-72 194h-258l-70 -194h-82l256 687
c-25.3333 4 -44.3333 13.1667 -57 27.5s-19 32.1666 -19 53.5zM187 266h206l-78 213l-25 106h-1l-25 -108zM249 768c0 -11.3333 3.5 -20.8333 10.5 -28.5s18.1667 -11.5 33.5 -11.5c14.6667 0 25.8333 3.66669 33.5 11c7.66666 7.33331 11.5 17 11.5 29
c0 12.6667 -3.66666 22.8334 -11 30.5c-7.33334 7.66669 -18.6667 11.5 -34 11.5c-14.6667 0 -25.6667 -3.83331 -33 -11.5c-7.33333 -7.66669 -11 -17.8334 -11 -30.5z" />
    <glyph glyph-name="AE" unicode="&#xc6;" horiz-adv-x="846" 
d="M391 600l-34 -103l-133 -229h171v332h-4zM395 198h-214l-112 -198h-91l415 700h383v-74h-298v-229h273v-74h-273v-249h303v-74h-386v198z" />
    <glyph glyph-name="Ccedilla" unicode="&#xc7;" horiz-adv-x="571" 
d="M533 29c-17.3333 -13.3333 -38.6667 -23 -64 -29s-53 -9.66667 -83 -11l-17 -32c28 -5.33333 48.1667 -14 60.5 -26s18.5 -28.3333 18.5 -49c0 -26 -10.6667 -47.5 -32 -64.5s-51.3333 -25.5 -90 -25.5c-7.33334 0 -14.6667 0.333328 -22 1
c-7.33334 0.666672 -15 1.66667 -23 3l9 39c4 -0.666672 7.66666 -1 11 -1h10c14.6667 0 26.1667 1.33333 34.5 4s14.6667 5.83334 19 9.5c4.33334 3.66667 7 7.83334 8 12.5c1 4.66667 1.5 9 1.5 13c0 18.6667 -28.6667 31 -86 37l42 80
c-38.6667 2.66667 -74.6667 11.8333 -108 27.5c-33.3333 15.6667 -62.3333 38.1667 -87 67.5c-24.6667 29.3333 -44 66 -58 110s-21 95.6667 -21 155c0 65.3333 8.83334 120.833 26.5 166.5c17.6667 45.6667 41 83 70 112s61.5 50.1667 97.5 63.5s72.6667 20 110 20
c40 0 72.6667 -2.16669 98 -6.5s47 -10.1666 65 -17.5l-20 -73c-32 15.3333 -77.6667 23 -137 23c-27.3333 0 -54.3333 -5 -81 -15s-50.5 -26.3333 -71.5 -49c-21 -22.6667 -37.8333 -52.3334 -50.5 -89c-12.6667 -36.6667 -19 -81.6667 -19 -135c0 -48 6 -90 18 -126
s28.5 -66 49.5 -90s45.6667 -42 74 -54s59.1667 -18 92.5 -18c30 0 56.1667 3 78.5 9s41.1667 13.6667 56.5 23z" />
    <glyph glyph-name="Egrave" unicode="&#xc8;" horiz-adv-x="536" 
d="M85 700h381v-74h-298v-229h273v-74h-273v-249h303v-74h-386v700zM326 752h-74l-158 97v21h114z" />
    <glyph glyph-name="Eacute" unicode="&#xc9;" horiz-adv-x="536" 
d="M85 700h381v-74h-298v-229h273v-74h-273v-249h303v-74h-386v700zM330 870h114v-21l-163 -97h-69z" />
    <glyph glyph-name="Ecircumflex" unicode="&#xca;" horiz-adv-x="536" 
d="M85 700h381v-74h-298v-229h273v-74h-273v-249h303v-74h-386v700zM242 870h60l127 -102v-21h-81l-60 49l-17 35l-19 -34l-64 -50h-79v22z" />
    <glyph glyph-name="Edieresis" unicode="&#xcb;" horiz-adv-x="536" 
d="M85 700h381v-74h-298v-229h273v-74h-273v-249h303v-74h-386v700zM120 794c0 14 5 25.3333 15 34s23 13 39 13c15.3333 0 27.8333 -4.33331 37.5 -13s14.5 -20 14.5 -34c0 -13.3333 -4.83333 -24.3333 -14.5 -33s-22.1667 -13 -37.5 -13c-16 0 -29 4.33331 -39 13
s-15 19.6667 -15 33zM312 794h-3.05176e-05c0 14 4.83334 25.3333 14.5 34s22.1667 13 37.5 13c16 0 29 -4.33331 39 -13s15 -20 15 -34c0 -13.3333 -5 -24.3333 -15 -33s-23 -13 -39 -13c-15.3333 0 -27.8333 4.33331 -37.5 13s-14.5 19.6667 -14.5 33z" />
    <glyph glyph-name="Igrave" unicode="&#xcc;" horiz-adv-x="291" 
d="M104 700h83v-700h-83v700zM233 752h-74l-158 97v21h114z" />
    <glyph glyph-name="Iacute" unicode="&#xcd;" horiz-adv-x="291" 
d="M104 700h83v-700h-83v700zM180 870h114v-21l-163 -97h-69z" />
    <glyph glyph-name="Icircumflex" unicode="&#xce;" horiz-adv-x="291" 
d="M104 700h83v-700h-83v700zM118 870h60l127 -102v-21h-81l-60 49l-17 35l-19 -34l-64 -50h-79v22z" />
    <glyph glyph-name="Idieresis" unicode="&#xcf;" horiz-adv-x="291" 
d="M104 700h83v-700h-83v700zM-2 794c0 14 5 25.3333 15 34s23 13 39 13c15.3333 0 27.8333 -4.33331 37.5 -13s14.5 -20 14.5 -34c0 -13.3333 -4.83333 -24.3333 -14.5 -33s-22.1667 -13 -37.5 -13c-16 0 -29 4.33331 -39 13s-15 19.6667 -15 33zM190 794
c0 14 4.83334 25.3333 14.5 34s22.1667 13 37.5 13c16 0 29 -4.33331 39 -13s15 -20 15 -34c0 -13.3333 -5 -24.3333 -15 -33s-23 -13 -39 -13c-15.3333 0 -27.8333 4.33331 -37.5 13s-14.5 19.6667 -14.5 33z" />
    <glyph glyph-name="Eth" unicode="&#xd0;" horiz-adv-x="658" 
d="M-1 392h90v308c12.6667 2 26.8333 3.5 42.5 4.5s32 1.66669 49 2l50 1c16.3333 0.333313 31.5 0.5 45.5 0.5c56 0 104.5 -8.66669 145.5 -26s74.8333 -41.5 101.5 -72.5c26.6667 -31 46.5 -68.1667 59.5 -111.5c13 -43.3333 19.5 -91 19.5 -143
c0 -47.3333 -6.16669 -92.8333 -18.5 -136.5c-12.3333 -43.6667 -31.8333 -82.3333 -58.5 -116c-26.6667 -33.6667 -61.3333 -60.6667 -104 -81c-42.6667 -20.3333 -94.3333 -30.5 -155 -30.5c-10.6667 0 -24.5 0.166672 -41.5 0.5s-34.5 1 -52.5 2
s-34.6667 1.83333 -50 2.5c-15.3333 0.666672 -26.3333 1.66667 -33 3v333h-90v60zM278 634h-28.5c-10.3333 0 -20.5 -0.333313 -30.5 -1s-19.1667 -1.33337 -27.5 -2c-8.33333 -0.666687 -14.8333 -1.33337 -19.5 -2v-237h147v-60h-147v-263
c3.33333 -0.666656 9.66666 -1.16666 19 -1.5l29 -1l29 -1c9.33334 -0.333344 15.6667 -0.5 19 -0.5c46.6667 0 85.8333 8 117.5 24c31.6667 16 57 37.5 76 64.5s32.5 58 40.5 93s12 71.1667 12 108.5c0 32.6667 -3.66666 65.5 -11 98.5s-20 62.8333 -38 89.5
s-42.1667 48.5 -72.5 65.5s-68.5 25.5 -114.5 25.5z" />
    <glyph glyph-name="Ntilde" unicode="&#xd1;" horiz-adv-x="673" 
d="M211 458l-54 101h-4l10 -101v-458h-78v711h44l335 -467l52 -96h5l-11 96v456h78v-711h-44zM179 785c20.6667 21.3333 39.8333 35.8333 57.5 43.5s34.5 11.5 50.5 11.5c12.6667 0 25 -1.66669 37 -5s23.5 -7.16663 34.5 -11.5c11 -4.33331 21.8333 -8.16663 32.5 -11.5
c10.6667 -3.33331 21 -5 31 -5c17.3333 0 34 7 50 21l25 -43c-18 -16.6667 -35 -28.1667 -51 -34.5s-31 -9.5 -45 -9.5c-12.6667 0 -24.6667 1.66669 -36 5c-11.3333 3.33331 -22.5 7.16663 -33.5 11.5c-11 4.33331 -21.8333 8.16663 -32.5 11.5
c-10.6667 3.33331 -21.3333 5 -32 5c-10.6667 0 -21.1667 -2.16669 -31.5 -6.5c-10.3333 -4.33331 -21.1667 -12.1666 -32.5 -23.5z" />
    <glyph glyph-name="Ograve" unicode="&#xd2;" horiz-adv-x="684" 
d="M56 350c0 116.667 24.6667 206.167 74 268.5c49.3333 62.3333 119.667 93.5 211 93.5c49.3333 0 92 -8.66669 128 -26s65.8333 -41.8333 89.5 -73.5s41.1667 -69.6667 52.5 -114c11.3333 -44.3333 17 -93.8333 17 -148.5c0 -116.667 -24.8333 -206.167 -74.5 -268.5
c-49.6667 -62.3333 -120.5 -93.5 -212.5 -93.5c-48.6667 0 -90.8333 8.66667 -126.5 26s-65.3333 41.8333 -89 73.5s-41.1667 69.6667 -52.5 114c-11.3333 44.3333 -17 93.8333 -17 148.5zM144 350c0 -38.6667 3.83333 -75.3333 11.5 -110
c7.66667 -34.6667 19.5 -65.1667 35.5 -91.5c16 -26.3333 36.5 -47.3333 61.5 -63s54.5 -23.5 88.5 -23.5c62 0 110.667 23.5 146 70.5c35.3333 47 53 119.5 53 217.5c0 38 -3.83331 74.5 -11.5 109.5s-19.6667 65.6667 -36 92c-16.3333 26.3333 -37 47.3333 -62 63
s-54.8333 23.5 -89.5 23.5c-61.3333 0 -109.5 -23.5 -144.5 -70.5c-35 -47 -52.5 -119.5 -52.5 -217.5zM410 752h-74l-158 97v21h114z" />
    <glyph glyph-name="Oacute" unicode="&#xd3;" horiz-adv-x="684" 
d="M56 350c0 116.667 24.6667 206.167 74 268.5c49.3333 62.3333 119.667 93.5 211 93.5c49.3333 0 92 -8.66669 128 -26s65.8333 -41.8333 89.5 -73.5s41.1667 -69.6667 52.5 -114c11.3333 -44.3333 17 -93.8333 17 -148.5c0 -116.667 -24.8333 -206.167 -74.5 -268.5
c-49.6667 -62.3333 -120.5 -93.5 -212.5 -93.5c-48.6667 0 -90.8333 8.66667 -126.5 26s-65.3333 41.8333 -89 73.5s-41.1667 69.6667 -52.5 114c-11.3333 44.3333 -17 93.8333 -17 148.5zM144 350c0 -38.6667 3.83333 -75.3333 11.5 -110
c7.66667 -34.6667 19.5 -65.1667 35.5 -91.5c16 -26.3333 36.5 -47.3333 61.5 -63s54.5 -23.5 88.5 -23.5c62 0 110.667 23.5 146 70.5c35.3333 47 53 119.5 53 217.5c0 38 -3.83331 74.5 -11.5 109.5s-19.6667 65.6667 -36 92c-16.3333 26.3333 -37 47.3333 -62 63
s-54.8333 23.5 -89.5 23.5c-61.3333 0 -109.5 -23.5 -144.5 -70.5c-35 -47 -52.5 -119.5 -52.5 -217.5zM415 870h114v-21l-163 -97h-69z" />
    <glyph glyph-name="Ocircumflex" unicode="&#xd4;" horiz-adv-x="684" 
d="M56 350c0 116.667 24.6667 206.167 74 268.5c49.3333 62.3333 119.667 93.5 211 93.5c49.3333 0 92 -8.66669 128 -26s65.8333 -41.8333 89.5 -73.5s41.1667 -69.6667 52.5 -114c11.3333 -44.3333 17 -93.8333 17 -148.5c0 -116.667 -24.8333 -206.167 -74.5 -268.5
c-49.6667 -62.3333 -120.5 -93.5 -212.5 -93.5c-48.6667 0 -90.8333 8.66667 -126.5 26s-65.3333 41.8333 -89 73.5s-41.1667 69.6667 -52.5 114c-11.3333 44.3333 -17 93.8333 -17 148.5zM144 350c0 -38.6667 3.83333 -75.3333 11.5 -110
c7.66667 -34.6667 19.5 -65.1667 35.5 -91.5c16 -26.3333 36.5 -47.3333 61.5 -63s54.5 -23.5 88.5 -23.5c62 0 110.667 23.5 146 70.5c35.3333 47 53 119.5 53 217.5c0 38 -3.83331 74.5 -11.5 109.5s-19.6667 65.6667 -36 92c-16.3333 26.3333 -37 47.3333 -62 63
s-54.8333 23.5 -89.5 23.5c-61.3333 0 -109.5 -23.5 -144.5 -70.5c-35 -47 -52.5 -119.5 -52.5 -217.5zM312 870h60l127 -102v-21h-81l-60 49l-17 35l-19 -34l-64 -50h-79v22z" />
    <glyph glyph-name="Otilde" unicode="&#xd5;" horiz-adv-x="684" 
d="M56 350c0 116.667 24.6667 206.167 74 268.5c49.3333 62.3333 119.667 93.5 211 93.5c49.3333 0 92 -8.66669 128 -26s65.8333 -41.8333 89.5 -73.5s41.1667 -69.6667 52.5 -114c11.3333 -44.3333 17 -93.8333 17 -148.5c0 -116.667 -24.8333 -206.167 -74.5 -268.5
c-49.6667 -62.3333 -120.5 -93.5 -212.5 -93.5c-48.6667 0 -90.8333 8.66667 -126.5 26s-65.3333 41.8333 -89 73.5s-41.1667 69.6667 -52.5 114c-11.3333 44.3333 -17 93.8333 -17 148.5zM144 350c0 -38.6667 3.83333 -75.3333 11.5 -110
c7.66667 -34.6667 19.5 -65.1667 35.5 -91.5c16 -26.3333 36.5 -47.3333 61.5 -63s54.5 -23.5 88.5 -23.5c62 0 110.667 23.5 146 70.5c35.3333 47 53 119.5 53 217.5c0 38 -3.83331 74.5 -11.5 109.5s-19.6667 65.6667 -36 92c-16.3333 26.3333 -37 47.3333 -62 63
s-54.8333 23.5 -89.5 23.5c-61.3333 0 -109.5 -23.5 -144.5 -70.5c-35 -47 -52.5 -119.5 -52.5 -217.5zM182 785h1.52588e-05c20.6667 21.3333 39.8333 35.8333 57.5 43.5s34.5 11.5 50.5 11.5c12.6667 0 25 -1.66669 37 -5s23.5 -7.16663 34.5 -11.5
c11 -4.33331 21.8333 -8.16663 32.5 -11.5c10.6667 -3.33331 21 -5 31 -5c17.3333 0 34 7 50 21l25 -43c-18 -16.6667 -35 -28.1667 -51 -34.5s-31 -9.5 -45 -9.5c-12.6667 0 -24.6667 1.66669 -36 5c-11.3333 3.33331 -22.5 7.16663 -33.5 11.5
c-11 4.33331 -21.8333 8.16663 -32.5 11.5c-10.6667 3.33331 -21.3333 5 -32 5c-10.6667 0 -21.1667 -2.16669 -31.5 -6.5c-10.3333 -4.33331 -21.1667 -12.1666 -32.5 -23.5z" />
    <glyph glyph-name="Odieresis" unicode="&#xd6;" horiz-adv-x="684" 
d="M56 350c0 116.667 24.6667 206.167 74 268.5c49.3333 62.3333 119.667 93.5 211 93.5c49.3333 0 92 -8.66669 128 -26s65.8333 -41.8333 89.5 -73.5s41.1667 -69.6667 52.5 -114c11.3333 -44.3333 17 -93.8333 17 -148.5c0 -116.667 -24.8333 -206.167 -74.5 -268.5
c-49.6667 -62.3333 -120.5 -93.5 -212.5 -93.5c-48.6667 0 -90.8333 8.66667 -126.5 26s-65.3333 41.8333 -89 73.5s-41.1667 69.6667 -52.5 114c-11.3333 44.3333 -17 93.8333 -17 148.5zM144 350c0 -38.6667 3.83333 -75.3333 11.5 -110
c7.66667 -34.6667 19.5 -65.1667 35.5 -91.5c16 -26.3333 36.5 -47.3333 61.5 -63s54.5 -23.5 88.5 -23.5c62 0 110.667 23.5 146 70.5c35.3333 47 53 119.5 53 217.5c0 38 -3.83331 74.5 -11.5 109.5s-19.6667 65.6667 -36 92c-16.3333 26.3333 -37 47.3333 -62 63
s-54.8333 23.5 -89.5 23.5c-61.3333 0 -109.5 -23.5 -144.5 -70.5c-35 -47 -52.5 -119.5 -52.5 -217.5zM190 794h-1.52588e-05c0 14 5 25.3333 15 34s23 13 39 13c15.3333 0 27.8333 -4.33331 37.5 -13s14.5 -20 14.5 -34c0 -13.3333 -4.83331 -24.3333 -14.5 -33
s-22.1667 -13 -37.5 -13c-16 0 -29 4.33331 -39 13s-15 19.6667 -15 33zM382 794h-3.05176e-05c0 14 4.83334 25.3333 14.5 34s22.1667 13 37.5 13c16 0 29 -4.33331 39 -13s15 -20 15 -34c0 -13.3333 -5 -24.3333 -15 -33s-23 -13 -39 -13
c-15.3333 0 -27.8333 4.33331 -37.5 13s-14.5 19.6667 -14.5 33z" />
    <glyph glyph-name="multiply" unicode="&#xd7;" horiz-adv-x="505" 
d="M127 517l126 -127l127 127l51 -53l-126 -126l126 -127l-51 -52l-127 128l-127 -128l-52 51l128 129l-126 125z" />
    <glyph glyph-name="Oslash" unicode="&#xd8;" horiz-adv-x="684" 
d="M122 91c-22.6667 32 -39.3333 69.6667 -50 113s-16 92 -16 146c0 116.667 24.6667 206.167 74 268.5c49.3333 62.3333 119.667 93.5 211 93.5c38 0 71.6667 -5 101 -15s55.3333 -24.6667 78 -44l42 60l52 -35l-51 -72c22 -32 38.3333 -69.5 49 -112.5
s16 -90.8333 16 -143.5c0 -116.667 -24.8333 -206.167 -74.5 -268.5c-49.6667 -62.3333 -120.5 -93.5 -212.5 -93.5c-71.3333 0 -129.667 18.6667 -175 56l-39 -56l-52 36zM144 350c0 -34 2.83333 -66 8.5 -96s14.5 -57.6667 26.5 -83l290 411
c-15.3333 17.3333 -33.5 31 -54.5 41s-45.5 15 -73.5 15c-61.3333 0 -109.5 -23.5 -144.5 -70.5c-35 -47 -52.5 -119.5 -52.5 -217.5zM540 350c0 32 -2.83331 63 -8.5 93s-14.1667 57.3333 -25.5 82l-290 -411c15.3333 -16.6667 33.3333 -29.5 54 -38.5
c20.6667 -9 44.3333 -13.5 71 -13.5c62 0 110.667 23.5 146 70.5c35.3333 47 53 119.5 53 217.5z" />
    <glyph glyph-name="Ugrave" unicode="&#xd9;" horiz-adv-x="652" 
d="M487 700h80v-467c0 -42 -5.5 -78.3333 -16.5 -109c-11 -30.6667 -26.6667 -55.8333 -47 -75.5c-20.3333 -19.6667 -44.8333 -34.1667 -73.5 -43.5s-60.3333 -14 -95 -14c-82.6667 0 -145 18.6667 -187 56c-42 37.3333 -63 94 -63 170v483h83v-444
c0 -35.3333 3.5 -65.1667 10.5 -89.5c7 -24.3333 17.5 -44 31.5 -59s31.5 -25.8333 52.5 -32.5s45.5 -10 73.5 -10c54 0 92.6667 14.8333 116 44.5c23.3333 29.6667 35 78.5 35 146.5v444zM407 752h-74l-158 97v21h114z" />
    <glyph glyph-name="Uacute" unicode="&#xda;" horiz-adv-x="652" 
d="M487 700h80v-467c0 -42 -5.5 -78.3333 -16.5 -109c-11 -30.6667 -26.6667 -55.8333 -47 -75.5c-20.3333 -19.6667 -44.8333 -34.1667 -73.5 -43.5s-60.3333 -14 -95 -14c-82.6667 0 -145 18.6667 -187 56c-42 37.3333 -63 94 -63 170v483h83v-444
c0 -35.3333 3.5 -65.1667 10.5 -89.5c7 -24.3333 17.5 -44 31.5 -59s31.5 -25.8333 52.5 -32.5s45.5 -10 73.5 -10c54 0 92.6667 14.8333 116 44.5c23.3333 29.6667 35 78.5 35 146.5v444zM390 870h114v-21l-163 -97h-69z" />
    <glyph glyph-name="Ucircumflex" unicode="&#xdb;" horiz-adv-x="652" 
d="M487 700h80v-467c0 -42 -5.5 -78.3333 -16.5 -109c-11 -30.6667 -26.6667 -55.8333 -47 -75.5c-20.3333 -19.6667 -44.8333 -34.1667 -73.5 -43.5s-60.3333 -14 -95 -14c-82.6667 0 -145 18.6667 -187 56c-42 37.3333 -63 94 -63 170v483h83v-444
c0 -35.3333 3.5 -65.1667 10.5 -89.5c7 -24.3333 17.5 -44 31.5 -59s31.5 -25.8333 52.5 -32.5s45.5 -10 73.5 -10c54 0 92.6667 14.8333 116 44.5c23.3333 29.6667 35 78.5 35 146.5v444zM301 870h60l127 -102v-21h-81l-60 49l-17 35l-19 -34l-64 -50h-79v22z" />
    <glyph glyph-name="Udieresis" unicode="&#xdc;" horiz-adv-x="652" 
d="M487 700h80v-467c0 -42 -5.5 -78.3333 -16.5 -109c-11 -30.6667 -26.6667 -55.8333 -47 -75.5c-20.3333 -19.6667 -44.8333 -34.1667 -73.5 -43.5s-60.3333 -14 -95 -14c-82.6667 0 -145 18.6667 -187 56c-42 37.3333 -63 94 -63 170v483h83v-444
c0 -35.3333 3.5 -65.1667 10.5 -89.5c7 -24.3333 17.5 -44 31.5 -59s31.5 -25.8333 52.5 -32.5s45.5 -10 73.5 -10c54 0 92.6667 14.8333 116 44.5c23.3333 29.6667 35 78.5 35 146.5v444zM178 794h-1.52588e-05c0 14 5 25.3333 15 34s23 13 39 13
c15.3333 0 27.8333 -4.33331 37.5 -13s14.5 -20 14.5 -34c0 -13.3333 -4.83331 -24.3333 -14.5 -33s-22.1667 -13 -37.5 -13c-16 0 -29 4.33331 -39 13s-15 19.6667 -15 33zM370 794h-3.05176e-05c0 14 4.83334 25.3333 14.5 34s22.1667 13 37.5 13c16 0 29 -4.33331 39 -13
s15 -20 15 -34c0 -13.3333 -5 -24.3333 -15 -33s-23 -13 -39 -13c-15.3333 0 -27.8333 4.33331 -37.5 13s-14.5 19.6667 -14.5 33z" />
    <glyph glyph-name="Yacute" unicode="&#xdd;" horiz-adv-x="558" 
d="M239 278l-231 422h97l164 -306l17 -61h1l18 63l157 304h89l-229 -421v-279h-83v278zM355 870h114v-21l-163 -97h-69z" />
    <glyph glyph-name="Thorn" unicode="&#xde;" horiz-adv-x="559" 
d="M85 700h83v-75c28 2 56.6667 3 86 3c30.6667 0 61.8333 -3 93.5 -9c31.6667 -6 60.5 -17 86.5 -33s47.1667 -38 63.5 -66c16.3333 -28 24.5 -63.6667 24.5 -107c0 -42.6667 -7.66669 -78.6667 -23 -108c-15.3333 -29.3333 -35.6667 -53.1667 -61 -71.5
c-25.3333 -18.3333 -54.3333 -31.6667 -87 -40c-32.6667 -8.33333 -66.3333 -12.5 -101 -12.5h-16.5c-7.66667 0 -15.6667 0.166672 -24 0.5s-16.5 0.833328 -24.5 1.5s-13.6667 1.33334 -17 2v-185h-83v700zM256 556c-17.3333 0 -34 -0.333313 -50 -1
s-28.6667 -2.33337 -38 -5v-290c3.33333 -1.33334 8.66666 -2.16669 16 -2.5c7.33333 -0.333344 15 -0.833344 23 -1.5c8 -0.666672 15.6667 -1 23 -1h16c22.6667 0 45.1667 2.16666 67.5 6.5s42.5 12.3333 60.5 24s32.5 27.8333 43.5 48.5c11 20.6667 16.5 47 16.5 79
c0 27.3333 -5.16666 50.1667 -15.5 68.5c-10.3333 18.3333 -24 33 -41 44s-36.1667 18.8333 -57.5 23.5s-42.6667 7 -64 7z" />
    <glyph glyph-name="germandbls" unicode="&#xdf;" horiz-adv-x="592" 
d="M384 559c0 11.3333 -3.16666 21.8333 -9.5 31.5s-14.5 17.8334 -24.5 24.5c-10 6.66669 -21 11.8334 -33 15.5c-12 3.66669 -23.6667 5.5 -35 5.5c-18.6667 0 -34.5 -2.33331 -47.5 -7c-13 -4.66669 -23.5 -12.3334 -31.5 -23c-8 -10.6667 -13.8333 -24.8334 -17.5 -42.5
c-3.66667 -17.6667 -5.5 -39.5 -5.5 -65.5v-498h-80v430h-78v70h78v23c0 64.6667 15.8333 111.333 47.5 140c31.6667 28.6667 75.5 43 131.5 43c27.3333 0 52.3333 -3.5 75 -10.5s42.1667 -17 58.5 -30s29 -28.3333 38 -46s13.5 -37.5 13.5 -59.5
c0 -25.3333 -6.33334 -45.6666 -19 -61c-12.6667 -15.3333 -26.5 -29 -41.5 -41s-28.8333 -23.6667 -41.5 -35s-19 -25.3333 -19 -42c0 -14.6667 5 -26.3333 15 -35c10 -8.66666 22.6667 -16.3333 38 -23l49 -20.5c17.3333 -7 33.6667 -16.1667 49 -27.5
c15.3333 -11.3333 28 -26.1667 38 -44.5s15 -42.1667 15 -71.5c0 -21.3333 -4 -42.1667 -12 -62.5s-19.5 -38.5 -34.5 -54.5s-33.8333 -29 -56.5 -39s-48.3333 -15 -77 -15c-15.3333 0 -28.8333 0.5 -40.5 1.5s-22.3333 2.66667 -32 5
c-9.66666 2.33333 -18.8333 5.16667 -27.5 8.5c-8.66666 3.33333 -17.3333 7.66667 -26 13l23 65c8 -4 15 -7.66666 21 -11s12.5 -6 19.5 -8s14.8333 -3.5 23.5 -4.5s19.3333 -1.5 32 -1.5c14 0 27.5 2.5 40.5 7.5s24.5 11.8333 34.5 20.5s17.8333 19.1667 23.5 31.5
s8.5 25.8333 8.5 40.5c0 20 -5 35.8333 -15 47.5s-22.6667 21.5 -38 29.5s-31.6667 15.1667 -49 21.5c-17.3333 6.33334 -33.6667 14.3333 -49 24c-15.3333 9.66666 -28 22 -38 37s-15 35.1667 -15 60.5c0 26 6.33334 46.8333 19 62.5s26.5 29.6667 41.5 42l41.5 35.5
c12.6667 11.3333 19 25.6666 19 43z" />
    <glyph glyph-name="agrave" unicode="&#xe0;" horiz-adv-x="496" 
d="M69 463c25.3333 15.3333 54.8333 26.6667 88.5 34c33.6667 7.33334 68.8333 11 105.5 11c34.6667 0 62.5 -4.66666 83.5 -14s37 -21.5 48 -36.5s18.3333 -31.5 22 -49.5s5.5 -36 5.5 -54c0 -40 -1 -79 -3 -117s-3 -74 -3 -108c0 -24.6667 1 -48 3 -70
s5.66666 -42.3333 11 -61h-59l-21 70h-5c-6 -9.33334 -13.5 -18.5 -22.5 -27.5s-19.8333 -17 -32.5 -24s-27.3333 -12.8333 -44 -17.5c-16.6667 -4.66667 -35.6667 -7 -57 -7s-41.1667 3.33333 -59.5 10s-34.1667 16.1667 -47.5 28.5
c-13.3333 12.3333 -23.8333 27.1667 -31.5 44.5c-7.66667 17.3333 -11.5 37 -11.5 59c0 29.3333 6 53.8333 18 73.5s28.8333 35.3333 50.5 47c21.6667 11.6667 47.6667 20 78 25s63.8333 7.5 100.5 7.5h27.5c9 0 18.1667 -0.666656 27.5 -2c2 20 3 38 3 54
c0 36.6667 -7.33334 62.3333 -22 77c-14.6667 14.6667 -41.3333 22 -80 22c-11.3333 0 -23.5 -0.833344 -36.5 -2.5s-26.3333 -4 -40 -7s-26.6667 -6.66666 -39 -11c-12.3333 -4.33334 -23.1667 -9.16669 -32.5 -14.5zM211 62c18.6667 0 35.3333 2.5 50 7.5
s27.3333 11.3333 38 19c10.6667 7.66666 19.5 16.1667 26.5 25.5s12.1667 18.3333 15.5 27v83c-9.33334 0.666672 -18.8333 1.16667 -28.5 1.5s-19.1667 0.5 -28.5 0.5c-20.6667 0 -40.8333 -1.16667 -60.5 -3.5s-37 -6.66666 -52 -13c-15 -6.33333 -27 -15 -36 -26
s-13.5 -24.8333 -13.5 -41.5c0 -23.3333 8.33333 -42.5 25 -57.5s38 -22.5 64 -22.5zM305 571h-45l-115 128v21h95z" />
    <glyph glyph-name="aacute" unicode="&#xe1;" horiz-adv-x="496" 
d="M69 463c25.3333 15.3333 54.8333 26.6667 88.5 34c33.6667 7.33334 68.8333 11 105.5 11c34.6667 0 62.5 -4.66666 83.5 -14s37 -21.5 48 -36.5s18.3333 -31.5 22 -49.5s5.5 -36 5.5 -54c0 -40 -1 -79 -3 -117s-3 -74 -3 -108c0 -24.6667 1 -48 3 -70
s5.66666 -42.3333 11 -61h-59l-21 70h-5c-6 -9.33334 -13.5 -18.5 -22.5 -27.5s-19.8333 -17 -32.5 -24s-27.3333 -12.8333 -44 -17.5c-16.6667 -4.66667 -35.6667 -7 -57 -7s-41.1667 3.33333 -59.5 10s-34.1667 16.1667 -47.5 28.5
c-13.3333 12.3333 -23.8333 27.1667 -31.5 44.5c-7.66667 17.3333 -11.5 37 -11.5 59c0 29.3333 6 53.8333 18 73.5s28.8333 35.3333 50.5 47c21.6667 11.6667 47.6667 20 78 25s63.8333 7.5 100.5 7.5h27.5c9 0 18.1667 -0.666656 27.5 -2c2 20 3 38 3 54
c0 36.6667 -7.33334 62.3333 -22 77c-14.6667 14.6667 -41.3333 22 -80 22c-11.3333 0 -23.5 -0.833344 -36.5 -2.5s-26.3333 -4 -40 -7s-26.6667 -6.66666 -39 -11c-12.3333 -4.33334 -23.1667 -9.16669 -32.5 -14.5zM211 62c18.6667 0 35.3333 2.5 50 7.5
s27.3333 11.3333 38 19c10.6667 7.66666 19.5 16.1667 26.5 25.5s12.1667 18.3333 15.5 27v83c-9.33334 0.666672 -18.8333 1.16667 -28.5 1.5s-19.1667 0.5 -28.5 0.5c-20.6667 0 -40.8333 -1.16667 -60.5 -3.5s-37 -6.66666 -52 -13c-15 -6.33333 -27 -15 -36 -26
s-13.5 -24.8333 -13.5 -41.5c0 -23.3333 8.33333 -42.5 25 -57.5s38 -22.5 64 -22.5zM238 720h89v-21l-101 -128h-47z" />
    <glyph glyph-name="acircumflex" unicode="&#xe2;" horiz-adv-x="496" 
d="M69 463c25.3333 15.3333 54.8333 26.6667 88.5 34c33.6667 7.33334 68.8333 11 105.5 11c34.6667 0 62.5 -4.66666 83.5 -14s37 -21.5 48 -36.5s18.3333 -31.5 22 -49.5s5.5 -36 5.5 -54c0 -40 -1 -79 -3 -117s-3 -74 -3 -108c0 -24.6667 1 -48 3 -70
s5.66666 -42.3333 11 -61h-59l-21 70h-5c-6 -9.33334 -13.5 -18.5 -22.5 -27.5s-19.8333 -17 -32.5 -24s-27.3333 -12.8333 -44 -17.5c-16.6667 -4.66667 -35.6667 -7 -57 -7s-41.1667 3.33333 -59.5 10s-34.1667 16.1667 -47.5 28.5
c-13.3333 12.3333 -23.8333 27.1667 -31.5 44.5c-7.66667 17.3333 -11.5 37 -11.5 59c0 29.3333 6 53.8333 18 73.5s28.8333 35.3333 50.5 47c21.6667 11.6667 47.6667 20 78 25s63.8333 7.5 100.5 7.5h27.5c9 0 18.1667 -0.666656 27.5 -2c2 20 3 38 3 54
c0 36.6667 -7.33334 62.3333 -22 77c-14.6667 14.6667 -41.3333 22 -80 22c-11.3333 0 -23.5 -0.833344 -36.5 -2.5s-26.3333 -4 -40 -7s-26.6667 -6.66666 -39 -11c-12.3333 -4.33334 -23.1667 -9.16669 -32.5 -14.5zM211 62c18.6667 0 35.3333 2.5 50 7.5
s27.3333 11.3333 38 19c10.6667 7.66666 19.5 16.1667 26.5 25.5s12.1667 18.3333 15.5 27v83c-9.33334 0.666672 -18.8333 1.16667 -28.5 1.5s-19.1667 0.5 -28.5 0.5c-20.6667 0 -40.8333 -1.16667 -60.5 -3.5s-37 -6.66666 -52 -13c-15 -6.33333 -27 -15 -36 -26
s-13.5 -24.8333 -13.5 -41.5c0 -23.3333 8.33333 -42.5 25 -57.5s38 -22.5 64 -22.5zM239 732h32l111 -182h-72l-39 66l-21 58l-22 -58l-45 -66h-67z" />
    <glyph glyph-name="atilde" unicode="&#xe3;" horiz-adv-x="496" 
d="M69 463c25.3333 15.3333 54.8333 26.6667 88.5 34c33.6667 7.33334 68.8333 11 105.5 11c34.6667 0 62.5 -4.66666 83.5 -14s37 -21.5 48 -36.5s18.3333 -31.5 22 -49.5s5.5 -36 5.5 -54c0 -40 -1 -79 -3 -117s-3 -74 -3 -108c0 -24.6667 1 -48 3 -70
s5.66666 -42.3333 11 -61h-59l-21 70h-5c-6 -9.33334 -13.5 -18.5 -22.5 -27.5s-19.8333 -17 -32.5 -24s-27.3333 -12.8333 -44 -17.5c-16.6667 -4.66667 -35.6667 -7 -57 -7s-41.1667 3.33333 -59.5 10s-34.1667 16.1667 -47.5 28.5
c-13.3333 12.3333 -23.8333 27.1667 -31.5 44.5c-7.66667 17.3333 -11.5 37 -11.5 59c0 29.3333 6 53.8333 18 73.5s28.8333 35.3333 50.5 47c21.6667 11.6667 47.6667 20 78 25s63.8333 7.5 100.5 7.5h27.5c9 0 18.1667 -0.666656 27.5 -2c2 20 3 38 3 54
c0 36.6667 -7.33334 62.3333 -22 77c-14.6667 14.6667 -41.3333 22 -80 22c-11.3333 0 -23.5 -0.833344 -36.5 -2.5s-26.3333 -4 -40 -7s-26.6667 -6.66666 -39 -11c-12.3333 -4.33334 -23.1667 -9.16669 -32.5 -14.5zM211 62c18.6667 0 35.3333 2.5 50 7.5
s27.3333 11.3333 38 19c10.6667 7.66666 19.5 16.1667 26.5 25.5s12.1667 18.3333 15.5 27v83c-9.33334 0.666672 -18.8333 1.16667 -28.5 1.5s-19.1667 0.5 -28.5 0.5c-20.6667 0 -40.8333 -1.16667 -60.5 -3.5s-37 -6.66666 -52 -13c-15 -6.33333 -27 -15 -36 -26
s-13.5 -24.8333 -13.5 -41.5c0 -23.3333 8.33333 -42.5 25 -57.5s38 -22.5 64 -22.5zM109 656c19.3333 22 37 37.1667 53 45.5s30.6667 12.5 44 12.5c11.3333 0 21.8333 -2.16669 31.5 -6.5s19 -9 28 -14s17.6667 -9.5 26 -13.5s17.1667 -6 26.5 -6c14.6667 0 30 8 46 24
l24 -43c-17.3333 -19.3333 -33.1667 -32.5 -47.5 -39.5c-14.3333 -7 -27.5 -10.5 -39.5 -10.5c-10.6667 0 -20.6667 2 -30 6s-18.5 8.5 -27.5 13.5s-18 9.66669 -27 14s-18.1667 6.5 -27.5 6.5c-8.66667 0 -17.5 -2.33331 -26.5 -7s-19.1667 -12.6667 -30.5 -24z" />
    <glyph glyph-name="adieresis" unicode="&#xe4;" horiz-adv-x="496" 
d="M69 463c25.3333 15.3333 54.8333 26.6667 88.5 34c33.6667 7.33334 68.8333 11 105.5 11c34.6667 0 62.5 -4.66666 83.5 -14s37 -21.5 48 -36.5s18.3333 -31.5 22 -49.5s5.5 -36 5.5 -54c0 -40 -1 -79 -3 -117s-3 -74 -3 -108c0 -24.6667 1 -48 3 -70
s5.66666 -42.3333 11 -61h-59l-21 70h-5c-6 -9.33334 -13.5 -18.5 -22.5 -27.5s-19.8333 -17 -32.5 -24s-27.3333 -12.8333 -44 -17.5c-16.6667 -4.66667 -35.6667 -7 -57 -7s-41.1667 3.33333 -59.5 10s-34.1667 16.1667 -47.5 28.5
c-13.3333 12.3333 -23.8333 27.1667 -31.5 44.5c-7.66667 17.3333 -11.5 37 -11.5 59c0 29.3333 6 53.8333 18 73.5s28.8333 35.3333 50.5 47c21.6667 11.6667 47.6667 20 78 25s63.8333 7.5 100.5 7.5h27.5c9 0 18.1667 -0.666656 27.5 -2c2 20 3 38 3 54
c0 36.6667 -7.33334 62.3333 -22 77c-14.6667 14.6667 -41.3333 22 -80 22c-11.3333 0 -23.5 -0.833344 -36.5 -2.5s-26.3333 -4 -40 -7s-26.6667 -6.66666 -39 -11c-12.3333 -4.33334 -23.1667 -9.16669 -32.5 -14.5zM211 62c18.6667 0 35.3333 2.5 50 7.5
s27.3333 11.3333 38 19c10.6667 7.66666 19.5 16.1667 26.5 25.5s12.1667 18.3333 15.5 27v83c-9.33334 0.666672 -18.8333 1.16667 -28.5 1.5s-19.1667 0.5 -28.5 0.5c-20.6667 0 -40.8333 -1.16667 -60.5 -3.5s-37 -6.66666 -52 -13c-15 -6.33333 -27 -15 -36 -26
s-13.5 -24.8333 -13.5 -41.5c0 -23.3333 8.33333 -42.5 25 -57.5s38 -22.5 64 -22.5zM105 653c0 15.3333 4.5 27.6666 13.5 37c9 9.33331 20.8333 14 35.5 14s26.5 -4.66669 35.5 -14s13.5 -21.6666 13.5 -37c0 -14 -4.5 -25.6667 -13.5 -35s-20.8333 -14 -35.5 -14
s-26.5 4.66669 -35.5 14s-13.5 21 -13.5 35zM297 653c0 15.3333 4.5 27.6666 13.5 37c9 9.33331 20.8333 14 35.5 14c15.3333 0 27.5 -4.66669 36.5 -14s13.5 -21.6666 13.5 -37c0 -14 -4.5 -25.6667 -13.5 -35s-21.1667 -14 -36.5 -14c-14.6667 0 -26.5 4.66669 -35.5 14
s-13.5 21 -13.5 35z" />
    <glyph glyph-name="aring" unicode="&#xe5;" horiz-adv-x="496" 
d="M69 463c25.3333 15.3333 54.8333 26.6667 88.5 34c33.6667 7.33334 68.8333 11 105.5 11c34.6667 0 62.5 -4.66666 83.5 -14s37 -21.5 48 -36.5s18.3333 -31.5 22 -49.5s5.5 -36 5.5 -54c0 -40 -1 -79 -3 -117s-3 -74 -3 -108c0 -24.6667 1 -48 3 -70
s5.66666 -42.3333 11 -61h-59l-21 70h-5c-6 -9.33334 -13.5 -18.5 -22.5 -27.5s-19.8333 -17 -32.5 -24s-27.3333 -12.8333 -44 -17.5c-16.6667 -4.66667 -35.6667 -7 -57 -7s-41.1667 3.33333 -59.5 10s-34.1667 16.1667 -47.5 28.5
c-13.3333 12.3333 -23.8333 27.1667 -31.5 44.5c-7.66667 17.3333 -11.5 37 -11.5 59c0 29.3333 6 53.8333 18 73.5s28.8333 35.3333 50.5 47c21.6667 11.6667 47.6667 20 78 25s63.8333 7.5 100.5 7.5h27.5c9 0 18.1667 -0.666656 27.5 -2c2 20 3 38 3 54
c0 36.6667 -7.33334 62.3333 -22 77c-14.6667 14.6667 -41.3333 22 -80 22c-11.3333 0 -23.5 -0.833344 -36.5 -2.5s-26.3333 -4 -40 -7s-26.6667 -6.66666 -39 -11c-12.3333 -4.33334 -23.1667 -9.16669 -32.5 -14.5zM211 62c18.6667 0 35.3333 2.5 50 7.5
s27.3333 11.3333 38 19c10.6667 7.66666 19.5 16.1667 26.5 25.5s12.1667 18.3333 15.5 27v83c-9.33334 0.666672 -18.8333 1.16667 -28.5 1.5s-19.1667 0.5 -28.5 0.5c-20.6667 0 -40.8333 -1.16667 -60.5 -3.5s-37 -6.66666 -52 -13c-15 -6.33333 -27 -15 -36 -26
s-13.5 -24.8333 -13.5 -41.5c0 -23.3333 8.33333 -42.5 25 -57.5s38 -22.5 64 -22.5zM152 643c0 28 8.83334 50.1667 26.5 66.5s41.1667 24.5 70.5 24.5c28 0 51.3333 -7.33331 70 -22s28 -37.6667 28 -69c0 -26 -9.33331 -47.5 -28 -64.5s-42 -25.5 -70 -25.5
s-51.1667 7.83331 -69.5 23.5s-27.5 37.8334 -27.5 66.5zM206 643h1.52588e-05c0 -13.3333 4.33334 -23.6666 13 -31c8.66667 -7.33331 18.6667 -11 30 -11c12.6667 0 23.1667 3.33331 31.5 10s12.5 17.3334 12.5 32c0 14.6667 -4.5 25.5 -13.5 32.5
s-19.1667 10.5 -30.5 10.5c-11.3333 0 -21.3333 -3.33331 -30 -10c-8.66666 -6.66669 -13 -17.6667 -13 -33z" />
    <glyph glyph-name="ae" unicode="&#xe6;" horiz-adv-x="796" 
d="M211 62c18.6667 0 35.3333 2.5 50 7.5s27.3333 11.3333 38 19c10.6667 7.66666 19.5 16.1667 26.5 25.5s12.1667 18.3333 15.5 27v83c-9.33334 0.666672 -18.8333 1.16667 -28.5 1.5s-19.1667 0.5 -28.5 0.5c-20.6667 0 -40.8333 -1.16667 -60.5 -3.5
s-37 -6.66666 -52 -13c-15 -6.33333 -27 -15 -36 -26s-13.5 -24.8333 -13.5 -41.5c0 -23.3333 8.33333 -42.5 25 -57.5s38 -22.5 64 -22.5zM367 84c-8.66666 -12 -18.6667 -23.5 -30 -34.5s-24.1667 -20.6667 -38.5 -29c-14.3333 -8.33333 -30.6667 -15.1667 -49 -20.5
c-18.3333 -5.33333 -38.5 -8 -60.5 -8c-21.3333 0 -41.1667 3.33333 -59.5 10s-34.1667 16.1667 -47.5 28.5c-13.3333 12.3333 -23.8333 27.1667 -31.5 44.5c-7.66667 17.3333 -11.5 37 -11.5 59c0 29.3333 6 53.8333 18 73.5s28.8333 35.3333 50.5 47
c21.6667 11.6667 47.6667 20 78 25s63.8333 7.5 100.5 7.5h27.5c9 0 18.1667 -0.666656 27.5 -2c0.666656 10 1.33331 19.5 2 28.5c0.666656 9 1 17.5 1 25.5c0 36.6667 -7.33334 62.5 -22 77.5s-41.3333 22.1667 -80 21.5c-11.3333 0 -23.5 -0.833344 -36.5 -2.5
s-26.3333 -4 -40 -7s-26.6667 -6.66666 -39 -11c-12.3333 -4.33334 -23.1667 -9.16669 -32.5 -14.5l-25 60c25.3333 15.3333 54.8333 26.6667 88.5 34c33.6667 7.33334 68.8333 11 105.5 11c70 0 115.333 -21.6667 136 -65c17.3333 24 40.6667 41.5 70 52.5
c29.3333 11 58.6667 16.5 88 16.5c22.6667 0 45.3334 -2.5 68 -7.5c22.6667 -5 43 -14.6667 61 -29s32.6667 -34.5 44 -60.5s17 -60 17 -102c0 -10.6667 -0.5 -21.8333 -1.5 -33.5c-1 -11.6667 -2.16669 -24.1667 -3.5 -37.5h-323c0 -58 12.1667 -103.167 36.5 -135.5
s65.8334 -48.5 124.5 -48.5c23.3333 0 46.1666 4.16666 68.5 12.5c22.3333 8.33334 39.5 17.5 51.5 27.5l30 -58c-20 -16 -45.1667 -28.6667 -75.5 -38s-62.5 -14 -96.5 -14c-40.6667 0 -77.5 8.33333 -110.5 25c-33 16.6667 -57.5 40.3333 -73.5 71h-7zM558 442
c-39.3333 0 -71 -10.3333 -95 -31c-24 -20.6667 -38 -56 -42 -106h248v12c0 45.3333 -10.1667 77.5 -30.5 96.5s-47.1666 28.5 -80.5 28.5z" />
    <glyph glyph-name="ccedilla" unicode="&#xe7;" horiz-adv-x="451" 
d="M418 33c-32.6667 -23.3333 -73 -37.6667 -121 -43l-18 -33c28 -5.33333 48.1667 -14 60.5 -26s18.5 -28.3333 18.5 -49c0 -26 -10.6667 -47.5 -32 -64.5s-51.3333 -25.5 -90 -25.5c-7.33333 0 -14.6667 0.333328 -22 1c-7.33333 0.666672 -15 1.66667 -23 3l9 39
c4 -0.666672 7.66667 -1 11 -1h10c14.6667 0 26.1667 1.33333 34.5 4c8.33334 2.66667 14.6667 5.83334 19 9.5c4.33334 3.66667 7 7.83334 8 12.5c1 4.66667 1.5 9 1.5 13c0 18.6667 -28.6667 31 -86 37l42 79c-34.6667 2 -64 9.66667 -88 23s-43.6667 31.3333 -59 54
c-15.3333 22.6667 -26.5 49.5 -33.5 80.5s-10.5 65.5 -10.5 103.5c0 84.6667 18.6667 149.5 56 194.5c37.3333 45 91 67.5 161 67.5c32 0 59.1667 -2.5 81.5 -7.5s42.5 -12.1667 60.5 -21.5l-23 -69c-15.3333 8.66666 -32.3333 15.5 -51 20.5s-38.6667 7.5 -60 7.5
c-94.6667 0 -142 -64 -142 -192c0 -25.3333 2.5 -49.5 7.5 -72.5s13.3333 -43.3333 25 -61c11.6667 -17.6667 27 -31.6667 46 -42s42.5 -15.5 70.5 -15.5c24 0 45.5 3.5 64.5 10.5s34.5 15.1667 46.5 24.5z" />
    <glyph glyph-name="egrave" unicode="&#xe8;" horiz-adv-x="508" 
d="M442 40c-20 -16 -45.1667 -28.6667 -75.5 -38s-62.5 -14 -96.5 -14c-38 0 -71 6.16667 -99 18.5s-51 30 -69 53s-31.3333 50.5 -40 82.5c-8.66667 32 -13 68 -13 108c0 85.3333 19 150.333 57 195s92.3333 67 163 67c22.6667 0 45.3333 -2.5 68 -7.5
c22.6667 -5 43 -14.5 61 -28.5s32.6667 -33.8333 44 -59.5s17 -59.5 17 -101.5c0 -22 -2 -46.3333 -6 -73h-321c0 -29.3333 3 -55.3333 9 -78s15.3333 -41.8333 28 -57.5s29.1667 -27.6667 49.5 -36s45.1667 -12.5 74.5 -12.5c22.6667 0 45.3333 4 68 12
c22.6667 8 39.6667 17.3333 51 28zM270 442c-39.3333 0 -70.8333 -10.3333 -94.5 -31s-37.8333 -56 -42.5 -106h248c0 50.6667 -9.66666 86.1667 -29 106.5s-46.6667 30.5 -82 30.5zM330 571h-45l-115 128v21h95z" />
    <glyph glyph-name="eacute" unicode="&#xe9;" horiz-adv-x="508" 
d="M442 40c-20 -16 -45.1667 -28.6667 -75.5 -38s-62.5 -14 -96.5 -14c-38 0 -71 6.16667 -99 18.5s-51 30 -69 53s-31.3333 50.5 -40 82.5c-8.66667 32 -13 68 -13 108c0 85.3333 19 150.333 57 195s92.3333 67 163 67c22.6667 0 45.3333 -2.5 68 -7.5
c22.6667 -5 43 -14.5 61 -28.5s32.6667 -33.8333 44 -59.5s17 -59.5 17 -101.5c0 -22 -2 -46.3333 -6 -73h-321c0 -29.3333 3 -55.3333 9 -78s15.3333 -41.8333 28 -57.5s29.1667 -27.6667 49.5 -36s45.1667 -12.5 74.5 -12.5c22.6667 0 45.3333 4 68 12
c22.6667 8 39.6667 17.3333 51 28zM270 442c-39.3333 0 -70.8333 -10.3333 -94.5 -31s-37.8333 -56 -42.5 -106h248c0 50.6667 -9.66666 86.1667 -29 106.5s-46.6667 30.5 -82 30.5zM291 720h89v-21l-101 -128h-47z" />
    <glyph glyph-name="ecircumflex" unicode="&#xea;" horiz-adv-x="508" 
d="M442 40c-20 -16 -45.1667 -28.6667 -75.5 -38s-62.5 -14 -96.5 -14c-38 0 -71 6.16667 -99 18.5s-51 30 -69 53s-31.3333 50.5 -40 82.5c-8.66667 32 -13 68 -13 108c0 85.3333 19 150.333 57 195s92.3333 67 163 67c22.6667 0 45.3333 -2.5 68 -7.5
c22.6667 -5 43 -14.5 61 -28.5s32.6667 -33.8333 44 -59.5s17 -59.5 17 -101.5c0 -22 -2 -46.3333 -6 -73h-321c0 -29.3333 3 -55.3333 9 -78s15.3333 -41.8333 28 -57.5s29.1667 -27.6667 49.5 -36s45.1667 -12.5 74.5 -12.5c22.6667 0 45.3333 4 68 12
c22.6667 8 39.6667 17.3333 51 28zM270 442c-39.3333 0 -70.8333 -10.3333 -94.5 -31s-37.8333 -56 -42.5 -106h248c0 50.6667 -9.66666 86.1667 -29 106.5s-46.6667 30.5 -82 30.5zM245 732h32l111 -182h-72l-39 66l-21 58l-22 -58l-45 -66h-67z" />
    <glyph glyph-name="edieresis" unicode="&#xeb;" horiz-adv-x="508" 
d="M442 40c-20 -16 -45.1667 -28.6667 -75.5 -38s-62.5 -14 -96.5 -14c-38 0 -71 6.16667 -99 18.5s-51 30 -69 53s-31.3333 50.5 -40 82.5c-8.66667 32 -13 68 -13 108c0 85.3333 19 150.333 57 195s92.3333 67 163 67c22.6667 0 45.3333 -2.5 68 -7.5
c22.6667 -5 43 -14.5 61 -28.5s32.6667 -33.8333 44 -59.5s17 -59.5 17 -101.5c0 -22 -2 -46.3333 -6 -73h-321c0 -29.3333 3 -55.3333 9 -78s15.3333 -41.8333 28 -57.5s29.1667 -27.6667 49.5 -36s45.1667 -12.5 74.5 -12.5c22.6667 0 45.3333 4 68 12
c22.6667 8 39.6667 17.3333 51 28zM270 442c-39.3333 0 -70.8333 -10.3333 -94.5 -31s-37.8333 -56 -42.5 -106h248c0 50.6667 -9.66666 86.1667 -29 106.5s-46.6667 30.5 -82 30.5zM119 653c0 15.3333 4.5 27.6666 13.5 37c9 9.33331 20.8333 14 35.5 14
s26.5 -4.66669 35.5 -14s13.5 -21.6666 13.5 -37c0 -14 -4.5 -25.6667 -13.5 -35s-20.8333 -14 -35.5 -14s-26.5 4.66669 -35.5 14s-13.5 21 -13.5 35zM311 653c0 15.3333 4.5 27.6666 13.5 37c9 9.33331 20.8333 14 35.5 14c15.3333 0 27.5 -4.66669 36.5 -14
s13.5 -21.6666 13.5 -37c0 -14 -4.5 -25.6667 -13.5 -35s-21.1667 -14 -36.5 -14c-14.6667 0 -26.5 4.66669 -35.5 14s-13.5 21 -13.5 35z" />
    <glyph glyph-name="igrave" unicode="&#xec;" horiz-adv-x="268" 
d="M94 500h80v-500h-80v500zM172 571h-45l-115 128v21h95z" />
    <glyph glyph-name="iacute" unicode="&#xed;" horiz-adv-x="268" 
d="M94 500h80v-500h-80v500zM154 720h89v-21l-101 -128h-47z" />
    <glyph glyph-name="icircumflex" unicode="&#xee;" horiz-adv-x="268" 
d="M94 500h80v-500h-80v500zM121 732h32l111 -182h-72l-39 66l-21 58l-22 -58l-45 -66h-67z" />
    <glyph glyph-name="idieresis" unicode="&#xef;" horiz-adv-x="268" 
d="M94 500h80v-500h-80v500zM-12 653c0 15.3333 4.5 27.6666 13.5 37c9 9.33331 20.8333 14 35.5 14s26.5 -4.66669 35.5 -14s13.5 -21.6666 13.5 -37c0 -14 -4.5 -25.6667 -13.5 -35s-20.8333 -14 -35.5 -14s-26.5 4.66669 -35.5 14s-13.5 21 -13.5 35zM180 653
c0 15.3333 4.5 27.6666 13.5 37c9 9.33331 20.8333 14 35.5 14c15.3333 0 27.5 -4.66669 36.5 -14s13.5 -21.6666 13.5 -37c0 -14 -4.5 -25.6667 -13.5 -35s-21.1667 -14 -36.5 -14c-14.6667 0 -26.5 4.66669 -35.5 14s-13.5 21 -13.5 35z" />
    <glyph glyph-name="eth" unicode="&#xf0;" horiz-adv-x="561" 
d="M220 596l57 31c-25.3333 15.3333 -50.6667 26 -76 32l35 54c12 -4.66669 27.3333 -11 46 -19s38 -19 58 -33l68 37l26 -45l-50 -27c16 -15.3333 31.3333 -33.1666 46 -53.5c14.6667 -20.3333 27.6667 -44 39 -71s20.3333 -57.5 27 -91.5s10 -72.3333 10 -115
c0 -54 -6 -100.333 -18 -139s-28.1667 -70.5 -48.5 -95.5s-44 -43.3333 -71 -55s-55.8333 -17.5 -86.5 -17.5c-40.6667 0 -75.3333 7 -104 21c-28.6667 14 -52 33 -70 57s-31.1667 51.8333 -39.5 83.5c-8.33334 31.6667 -12.5 65.5 -12.5 101.5
c0 34.6667 4.83333 67.6667 14.5 99c9.66666 31.3333 24 58.8333 43 82.5s42.3333 42.5 70 56.5s59.8333 21 96.5 21c30 0 56.3333 -4.66666 79 -14s38.6667 -20 48 -32c-7.33334 24.6667 -18.3333 48 -33 70s-31.6667 41.6667 -51 59l-76 -41zM139 250
c0 -65.3333 13.6667 -113.667 41 -145c27.3333 -31.3333 62.6667 -47 106 -47c20 0 38.5 4.33333 55.5 13c17 8.66666 31.6667 22.3333 44 41s22.1667 42.6667 29.5 72c7.33334 29.3333 11 64.6667 11 106c0 6.66666 -0.166656 14.1667 -0.5 22.5l-1 25
c-0.333344 8.33334 -1 16.3333 -2 24s-2.16666 14.1667 -3.5 19.5c-5.33334 9.33334 -12.8333 17.6667 -22.5 25c-9.66666 7.33334 -20.3333 13.5 -32 18.5c-11.6667 5 -24.1667 8.83334 -37.5 11.5s-26.3333 4 -39 4c-26 0 -48.5 -5 -67.5 -15s-34.5 -23.5 -46.5 -40.5
s-20.8333 -37 -26.5 -60s-8.5 -47.8333 -8.5 -74.5z" />
    <glyph glyph-name="ntilde" unicode="&#xf1;" horiz-adv-x="547" 
d="M398 0v285c0 52 -7.5 91.1667 -22.5 117.5s-42.5 39.5 -82.5 39.5c-35.3333 0 -64.5 -9.5 -87.5 -28.5c-23 -19 -39.1667 -42.8333 -48.5 -71.5v-342h-80v500h56l15 -61h4c16 21.3333 37.5 38.8333 64.5 52.5s59.1667 20.5 96.5 20.5c27.3333 0 51.3333 -3.16666 72 -9.5
s37.8333 -17.5 51.5 -33.5c13.6667 -16 24 -37.5 31 -64.5s10.5 -61.1667 10.5 -102.5v-302h-80zM134 656c19.3333 22 37 37.1667 53 45.5s30.6667 12.5 44 12.5c11.3333 0 21.8333 -2.16669 31.5 -6.5c9.66669 -4.33331 19 -9 28 -14s17.6667 -9.5 26 -13.5
s17.1667 -6 26.5 -6c14.6667 0 30 8 46 24l24 -43c-17.3333 -19.3333 -33.1667 -32.5 -47.5 -39.5c-14.3333 -7 -27.5 -10.5 -39.5 -10.5c-10.6667 0 -20.6667 2 -30 6s-18.5 8.5 -27.5 13.5s-18 9.66669 -27 14s-18.1667 6.5 -27.5 6.5c-8.66667 0 -17.5 -2.33331 -26.5 -7
s-19.1667 -12.6667 -30.5 -24z" />
    <glyph glyph-name="ograve" unicode="&#xf2;" horiz-adv-x="536" 
d="M49 250c0 84.6667 18.8333 149.5 56.5 194.5c37.6667 45 91.8333 67.5 162.5 67.5c37.3333 0 69.8333 -6.16666 97.5 -18.5s50.5 -30 68.5 -53s31.3333 -50.6667 40 -83s13 -68.1667 13 -107.5c0 -84.6667 -18.8333 -149.5 -56.5 -194.5s-91.8333 -67.5 -162.5 -67.5
c-37.3333 0 -69.8333 6.16667 -97.5 18.5s-50.5 30 -68.5 53s-31.3333 50.6667 -40 83c-8.66667 32.3333 -13 68.1667 -13 107.5zM132 250c0 -25.3333 2.5 -49.6667 7.5 -73c5 -23.3333 12.8333 -43.6667 23.5 -61s24.6667 -31.3333 42 -42
c17.3333 -10.6667 38.3333 -16 63 -16c90.6667 -0.666672 136 63.3333 136 192c0 26 -2.5 50.6667 -7.5 74s-12.8333 43.6667 -23.5 61c-10.6667 17.3333 -24.6667 31.1667 -42 41.5c-17.3333 10.3333 -38.3333 15.5 -63 15.5c-90.6667 0.666656 -136 -63.3333 -136 -192z
M317 571h-45l-115 128v21h95z" />
    <glyph glyph-name="oacute" unicode="&#xf3;" horiz-adv-x="536" 
d="M49 250c0 84.6667 18.8333 149.5 56.5 194.5c37.6667 45 91.8333 67.5 162.5 67.5c37.3333 0 69.8333 -6.16666 97.5 -18.5s50.5 -30 68.5 -53s31.3333 -50.6667 40 -83s13 -68.1667 13 -107.5c0 -84.6667 -18.8333 -149.5 -56.5 -194.5s-91.8333 -67.5 -162.5 -67.5
c-37.3333 0 -69.8333 6.16667 -97.5 18.5s-50.5 30 -68.5 53s-31.3333 50.6667 -40 83c-8.66667 32.3333 -13 68.1667 -13 107.5zM132 250c0 -25.3333 2.5 -49.6667 7.5 -73c5 -23.3333 12.8333 -43.6667 23.5 -61s24.6667 -31.3333 42 -42
c17.3333 -10.6667 38.3333 -16 63 -16c90.6667 -0.666672 136 63.3333 136 192c0 26 -2.5 50.6667 -7.5 74s-12.8333 43.6667 -23.5 61c-10.6667 17.3333 -24.6667 31.1667 -42 41.5c-17.3333 10.3333 -38.3333 15.5 -63 15.5c-90.6667 0.666656 -136 -63.3333 -136 -192z
M286 720h89v-21l-101 -128h-47z" />
    <glyph glyph-name="ocircumflex" unicode="&#xf4;" horiz-adv-x="536" 
d="M49 250c0 84.6667 18.8333 149.5 56.5 194.5c37.6667 45 91.8333 67.5 162.5 67.5c37.3333 0 69.8333 -6.16666 97.5 -18.5s50.5 -30 68.5 -53s31.3333 -50.6667 40 -83s13 -68.1667 13 -107.5c0 -84.6667 -18.8333 -149.5 -56.5 -194.5s-91.8333 -67.5 -162.5 -67.5
c-37.3333 0 -69.8333 6.16667 -97.5 18.5s-50.5 30 -68.5 53s-31.3333 50.6667 -40 83c-8.66667 32.3333 -13 68.1667 -13 107.5zM132 250c0 -25.3333 2.5 -49.6667 7.5 -73c5 -23.3333 12.8333 -43.6667 23.5 -61s24.6667 -31.3333 42 -42
c17.3333 -10.6667 38.3333 -16 63 -16c90.6667 -0.666672 136 63.3333 136 192c0 26 -2.5 50.6667 -7.5 74s-12.8333 43.6667 -23.5 61c-10.6667 17.3333 -24.6667 31.1667 -42 41.5c-17.3333 10.3333 -38.3333 15.5 -63 15.5c-90.6667 0.666656 -136 -63.3333 -136 -192z
M258 732h32l111 -182h-72l-39 66l-21 58l-22 -58l-45 -66h-67z" />
    <glyph glyph-name="otilde" unicode="&#xf5;" horiz-adv-x="536" 
d="M49 250c0 84.6667 18.8333 149.5 56.5 194.5c37.6667 45 91.8333 67.5 162.5 67.5c37.3333 0 69.8333 -6.16666 97.5 -18.5s50.5 -30 68.5 -53s31.3333 -50.6667 40 -83s13 -68.1667 13 -107.5c0 -84.6667 -18.8333 -149.5 -56.5 -194.5s-91.8333 -67.5 -162.5 -67.5
c-37.3333 0 -69.8333 6.16667 -97.5 18.5s-50.5 30 -68.5 53s-31.3333 50.6667 -40 83c-8.66667 32.3333 -13 68.1667 -13 107.5zM132 250c0 -25.3333 2.5 -49.6667 7.5 -73c5 -23.3333 12.8333 -43.6667 23.5 -61s24.6667 -31.3333 42 -42
c17.3333 -10.6667 38.3333 -16 63 -16c90.6667 -0.666672 136 63.3333 136 192c0 26 -2.5 50.6667 -7.5 74s-12.8333 43.6667 -23.5 61c-10.6667 17.3333 -24.6667 31.1667 -42 41.5c-17.3333 10.3333 -38.3333 15.5 -63 15.5c-90.6667 0.666656 -136 -63.3333 -136 -192z
M129 656c19.3333 22 37 37.1667 53 45.5s30.6667 12.5 44 12.5c11.3333 0 21.8333 -2.16669 31.5 -6.5c9.66669 -4.33331 19 -9 28 -14s17.6667 -9.5 26 -13.5s17.1667 -6 26.5 -6c14.6667 0 30 8 46 24l24 -43c-17.3333 -19.3333 -33.1667 -32.5 -47.5 -39.5
c-14.3333 -7 -27.5 -10.5 -39.5 -10.5c-10.6667 0 -20.6667 2 -30 6s-18.5 8.5 -27.5 13.5s-18 9.66669 -27 14s-18.1667 6.5 -27.5 6.5c-8.66667 0 -17.5 -2.33331 -26.5 -7s-19.1667 -12.6667 -30.5 -24z" />
    <glyph glyph-name="odieresis" unicode="&#xf6;" horiz-adv-x="536" 
d="M49 250c0 84.6667 18.8333 149.5 56.5 194.5c37.6667 45 91.8333 67.5 162.5 67.5c37.3333 0 69.8333 -6.16666 97.5 -18.5s50.5 -30 68.5 -53s31.3333 -50.6667 40 -83s13 -68.1667 13 -107.5c0 -84.6667 -18.8333 -149.5 -56.5 -194.5s-91.8333 -67.5 -162.5 -67.5
c-37.3333 0 -69.8333 6.16667 -97.5 18.5s-50.5 30 -68.5 53s-31.3333 50.6667 -40 83c-8.66667 32.3333 -13 68.1667 -13 107.5zM132 250c0 -25.3333 2.5 -49.6667 7.5 -73c5 -23.3333 12.8333 -43.6667 23.5 -61s24.6667 -31.3333 42 -42
c17.3333 -10.6667 38.3333 -16 63 -16c90.6667 -0.666672 136 63.3333 136 192c0 26 -2.5 50.6667 -7.5 74s-12.8333 43.6667 -23.5 61c-10.6667 17.3333 -24.6667 31.1667 -42 41.5c-17.3333 10.3333 -38.3333 15.5 -63 15.5c-90.6667 0.666656 -136 -63.3333 -136 -192z
M124 653c0 15.3333 4.5 27.6666 13.5 37c9 9.33331 20.8333 14 35.5 14s26.5 -4.66669 35.5 -14s13.5 -21.6666 13.5 -37c0 -14 -4.5 -25.6667 -13.5 -35s-20.8333 -14 -35.5 -14s-26.5 4.66669 -35.5 14s-13.5 21 -13.5 35zM316 653c0 15.3333 4.5 27.6666 13.5 37
c9 9.33331 20.8333 14 35.5 14c15.3333 0 27.5 -4.66669 36.5 -14s13.5 -21.6666 13.5 -37c0 -14 -4.5 -25.6667 -13.5 -35s-21.1667 -14 -36.5 -14c-14.6667 0 -26.5 4.66669 -35.5 14s-13.5 21 -13.5 35z" />
    <glyph glyph-name="divide" unicode="&#xf7;" horiz-adv-x="505" 
d="M40 374h424v-72h-424v72zM194 525c0 18 5.16667 32.1667 15.5 42.5s24.1667 15.5 41.5 15.5c18 0 32.3333 -5.16669 43 -15.5s16 -24.5 16 -42.5c0 -17.3333 -5.33334 -31.3333 -16 -42s-25 -16 -43 -16c-17.3333 0 -31.1667 5.33334 -41.5 16
c-10.3333 10.6667 -15.5 24.6667 -15.5 42zM194 150c0 18 5.16667 32.1667 15.5 42.5s24.1667 15.5 41.5 15.5c18 0 32.3333 -5.16667 43 -15.5s16 -24.5 16 -42.5c0 -17.3333 -5.33334 -31.3333 -16 -42c-10.6667 -10.6667 -25 -16 -43 -16
c-17.3333 0 -31.1667 5.33334 -41.5 16c-10.3333 10.6667 -15.5 24.6667 -15.5 42z" />
    <glyph glyph-name="oslash" unicode="&#xf8;" horiz-adv-x="536" 
d="M49 250c0 84.6667 18.8333 149.5 56.5 194.5c37.6667 45 91.8333 67.5 162.5 67.5c48.6667 0 89.3333 -10.6667 122 -32l26 35l50 -37l-29 -42c17.3333 -22.6667 30 -49.6667 38 -81s12 -66.3333 12 -105c0 -84.6667 -18.8333 -149.5 -56.5 -194.5
s-91.8333 -67.5 -162.5 -67.5c-52 0 -94.6667 11.6667 -128 35l-27 -37l-52 38l33 46c-15.3333 22.6667 -26.6667 49.1667 -34 79.5c-7.33334 30.3333 -11 63.8333 -11 100.5zM404 250c0 21.3333 -1.66666 41.8333 -5 61.5s-8.66669 37.5 -16 53.5l-199 -277
c10.6667 -8.66666 22.8333 -15.8333 36.5 -21.5c13.6667 -5.66667 29.5 -8.5 47.5 -8.5c90.6667 -0.666672 136 63.3333 136 192zM132 250c0 -20 1.5 -39.3333 4.5 -58s7.5 -35.6667 13.5 -51l197 274c-10 8 -21.5 14.5 -34.5 19.5s-27.8333 7.5 -44.5 7.5
c-90.6667 0.666656 -136 -63.3333 -136 -192z" />
    <glyph glyph-name="ugrave" unicode="&#xf9;" horiz-adv-x="539" 
d="M149 500v-285c0 -26 1.5 -48.8333 4.5 -68.5c3 -19.6667 8.16667 -36 15.5 -49s17.3333 -22.8333 30 -29.5c12.6667 -6.66667 28.6667 -10 48 -10c18 0 34 2.83333 48 8.5c14 5.66666 26.5 13.5 37.5 23.5s20.6667 21.5 29 34.5s15.1667 26.8333 20.5 41.5v334h80v-358
c0 -24 0.833344 -48.8333 2.5 -74.5s4.5 -48.1667 8.5 -67.5h-55l-20 79h-5c-15.3333 -26 -36 -47.6667 -62 -65s-59 -26 -99 -26c-26.6667 0 -50.1667 3.16667 -70.5 9.5s-37.3333 17.5 -51 33.5c-13.6667 16 -24 37.5 -31 64.5s-10.5 61.1667 -10.5 102.5v302h80zM308 571
h-45l-115 128v21h95z" />
    <glyph glyph-name="uacute" unicode="&#xfa;" horiz-adv-x="539" 
d="M149 500v-285c0 -26 1.5 -48.8333 4.5 -68.5c3 -19.6667 8.16667 -36 15.5 -49s17.3333 -22.8333 30 -29.5c12.6667 -6.66667 28.6667 -10 48 -10c18 0 34 2.83333 48 8.5c14 5.66666 26.5 13.5 37.5 23.5s20.6667 21.5 29 34.5s15.1667 26.8333 20.5 41.5v334h80v-358
c0 -24 0.833344 -48.8333 2.5 -74.5s4.5 -48.1667 8.5 -67.5h-55l-20 79h-5c-15.3333 -26 -36 -47.6667 -62 -65s-59 -26 -99 -26c-26.6667 0 -50.1667 3.16667 -70.5 9.5s-37.3333 17.5 -51 33.5c-13.6667 16 -24 37.5 -31 64.5s-10.5 61.1667 -10.5 102.5v302h80zM285 720
h89v-21l-101 -128h-47z" />
    <glyph glyph-name="ucircumflex" unicode="&#xfb;" horiz-adv-x="539" 
d="M149 500v-285c0 -26 1.5 -48.8333 4.5 -68.5c3 -19.6667 8.16667 -36 15.5 -49s17.3333 -22.8333 30 -29.5c12.6667 -6.66667 28.6667 -10 48 -10c18 0 34 2.83333 48 8.5c14 5.66666 26.5 13.5 37.5 23.5s20.6667 21.5 29 34.5s15.1667 26.8333 20.5 41.5v334h80v-358
c0 -24 0.833344 -48.8333 2.5 -74.5s4.5 -48.1667 8.5 -67.5h-55l-20 79h-5c-15.3333 -26 -36 -47.6667 -62 -65s-59 -26 -99 -26c-26.6667 0 -50.1667 3.16667 -70.5 9.5s-37.3333 17.5 -51 33.5c-13.6667 16 -24 37.5 -31 64.5s-10.5 61.1667 -10.5 102.5v302h80zM260 732
h32l111 -182h-72l-39 66l-21 58l-22 -58l-45 -66h-67z" />
    <glyph glyph-name="udieresis" unicode="&#xfc;" horiz-adv-x="539" 
d="M149 500v-285c0 -26 1.5 -48.8333 4.5 -68.5c3 -19.6667 8.16667 -36 15.5 -49s17.3333 -22.8333 30 -29.5c12.6667 -6.66667 28.6667 -10 48 -10c18 0 34 2.83333 48 8.5c14 5.66666 26.5 13.5 37.5 23.5s20.6667 21.5 29 34.5s15.1667 26.8333 20.5 41.5v334h80v-358
c0 -24 0.833344 -48.8333 2.5 -74.5s4.5 -48.1667 8.5 -67.5h-55l-20 79h-5c-15.3333 -26 -36 -47.6667 -62 -65s-59 -26 -99 -26c-26.6667 0 -50.1667 3.16667 -70.5 9.5s-37.3333 17.5 -51 33.5c-13.6667 16 -24 37.5 -31 64.5s-10.5 61.1667 -10.5 102.5v302h80zM125 653
c0 15.3333 4.5 27.6666 13.5 37c9 9.33331 20.8333 14 35.5 14s26.5 -4.66669 35.5 -14s13.5 -21.6666 13.5 -37c0 -14 -4.5 -25.6667 -13.5 -35s-20.8333 -14 -35.5 -14s-26.5 4.66669 -35.5 14s-13.5 21 -13.5 35zM317 653c0 15.3333 4.5 27.6666 13.5 37
c9 9.33331 20.8333 14 35.5 14c15.3333 0 27.5 -4.66669 36.5 -14s13.5 -21.6666 13.5 -37c0 -14 -4.5 -25.6667 -13.5 -35s-21.1667 -14 -36.5 -14c-14.6667 0 -26.5 4.66669 -35.5 14s-13.5 21 -13.5 35z" />
    <glyph glyph-name="yacute" unicode="&#xfd;" horiz-adv-x="466" 
d="M224 176l28 -96h5l22 97l97 323h81l-148 -449l-33.5 -95c-11 -30.6667 -23.1667 -58 -36.5 -82s-28.3333 -43.1667 -45 -57.5s-36 -21.5 -58 -21.5c-24 0 -43.6667 3.33333 -59 10l14 69c8.66666 -3.33333 17 -5 25 -5c18.6667 0 36.6667 9.83334 54 29.5
s31.6667 53.5 43 101.5l-201 500h92zM277 720h89v-21l-101 -128h-47z" />
    <glyph glyph-name="thorn" unicode="&#xfe;" horiz-adv-x="541" 
d="M77 700h80v-250h4c13.3333 19.3333 31 34.5 53 45.5s48.6667 16.5 80 16.5c66.6667 0 116.333 -19.6667 149 -59c32.6667 -39.3333 49 -103.667 49 -193c0 -42 -5.5 -79.8333 -16.5 -113.5s-26.5 -62.1667 -46.5 -85.5c-20 -23.3333 -44.1667 -41.3333 -72.5 -54
c-28.3333 -12.6667 -59.8333 -19 -94.5 -19c-24.6667 0 -44.1667 1.5 -58.5 4.5s-29.8333 8.16667 -46.5 15.5v-208h-80v900zM279 442c-65.3333 0.666656 -106 -35 -122 -107v-249c12 -9.33334 25.6667 -16.3333 41 -21c15.3333 -4.66667 35.6667 -7 61 -7
c46 0 82.5 17.1667 109.5 51.5c27 34.3333 40.5 84.8333 40.5 151.5c0 27.3333 -2.33334 52.1667 -7 74.5c-4.66666 22.3333 -12.1667 41.3333 -22.5 57s-23.6667 27.8333 -40 36.5c-16.3333 8.66666 -36.5 13 -60.5 13z" />
    <glyph glyph-name="ydieresis" unicode="&#xff;" horiz-adv-x="466" 
d="M224 176l28 -96h5l22 97l97 323h81l-148 -449l-33.5 -95c-11 -30.6667 -23.1667 -58 -36.5 -82s-28.3333 -43.1667 -45 -57.5s-36 -21.5 -58 -21.5c-24 0 -43.6667 3.33333 -59 10l14 69c8.66666 -3.33333 17 -5 25 -5c18.6667 0 36.6667 9.83334 54 29.5
s31.6667 53.5 43 101.5l-201 500h92zM89 653c0 15.3333 4.5 27.6666 13.5 37c9 9.33331 20.8333 14 35.5 14s26.5 -4.66669 35.5 -14s13.5 -21.6666 13.5 -37c0 -14 -4.5 -25.6667 -13.5 -35s-20.8333 -14 -35.5 -14s-26.5 4.66669 -35.5 14s-13.5 21 -13.5 35zM281 653
c0 15.3333 4.5 27.6666 13.5 37c9 9.33331 20.8333 14 35.5 14c15.3333 0 27.5 -4.66669 36.5 -14s13.5 -21.6666 13.5 -37c0 -14 -4.5 -25.6667 -13.5 -35s-21.1667 -14 -36.5 -14c-14.6667 0 -26.5 4.66669 -35.5 14s-13.5 21 -13.5 35z" />
    <glyph glyph-name="Amacron" unicode="&#x100;" horiz-adv-x="585" 
d="M418 194h-258l-70 -194h-82l265 711h38l266 -711h-87zM187 266h206l-78 213l-25 106h-1l-25 -108zM133 843h316v-62h-316v62z" />
    <glyph glyph-name="amacron" unicode="&#x101;" horiz-adv-x="496" 
d="M69 463c25.3333 15.3333 54.8333 26.6667 88.5 34c33.6667 7.33334 68.8333 11 105.5 11c34.6667 0 62.5 -4.66666 83.5 -14s37 -21.5 48 -36.5s18.3333 -31.5 22 -49.5s5.5 -36 5.5 -54c0 -40 -1 -79 -3 -117s-3 -74 -3 -108c0 -24.6667 1 -48 3 -70
s5.66666 -42.3333 11 -61h-59l-21 70h-5c-6 -9.33334 -13.5 -18.5 -22.5 -27.5s-19.8333 -17 -32.5 -24s-27.3333 -12.8333 -44 -17.5c-16.6667 -4.66667 -35.6667 -7 -57 -7s-41.1667 3.33333 -59.5 10s-34.1667 16.1667 -47.5 28.5
c-13.3333 12.3333 -23.8333 27.1667 -31.5 44.5c-7.66667 17.3333 -11.5 37 -11.5 59c0 29.3333 6 53.8333 18 73.5s28.8333 35.3333 50.5 47c21.6667 11.6667 47.6667 20 78 25s63.8333 7.5 100.5 7.5h27.5c9 0 18.1667 -0.666656 27.5 -2c2 20 3 38 3 54
c0 36.6667 -7.33334 62.3333 -22 77c-14.6667 14.6667 -41.3333 22 -80 22c-11.3333 0 -23.5 -0.833344 -36.5 -2.5s-26.3333 -4 -40 -7s-26.6667 -6.66666 -39 -11c-12.3333 -4.33334 -23.1667 -9.16669 -32.5 -14.5zM211 62c18.6667 0 35.3333 2.5 50 7.5
s27.3333 11.3333 38 19c10.6667 7.66666 19.5 16.1667 26.5 25.5s12.1667 18.3333 15.5 27v83c-9.33334 0.666672 -18.8333 1.16667 -28.5 1.5s-19.1667 0.5 -28.5 0.5c-20.6667 0 -40.8333 -1.16667 -60.5 -3.5s-37 -6.66666 -52 -13c-15 -6.33333 -27 -15 -36 -26
s-13.5 -24.8333 -13.5 -41.5c0 -23.3333 8.33333 -42.5 25 -57.5s38 -22.5 64 -22.5zM101 643h296v-62h-296v62z" />
    <glyph glyph-name="Abreve" unicode="&#x102;" horiz-adv-x="585" 
d="M418 194h-258l-70 -194h-82l265 711h38l266 -711h-87zM187 266h206l-78 213l-25 106h-1l-25 -108zM164 871c11.3333 -22.6667 28.6667 -40.1667 52 -52.5s50.6667 -18.5 82 -18.5c32 0 59 7 81 21s37.6667 30.6667 47 50l40 -19c-6 -19.3333 -14.5 -36.5 -25.5 -51.5
s-24 -27.8333 -39 -38.5s-31.5 -18.6667 -49.5 -24s-36.3333 -8 -55 -8c-18 0 -35.8333 2.33331 -53.5 7c-17.6667 4.66669 -34.1667 11.6667 -49.5 21c-15.3333 9.33331 -29.3333 21.5 -42 36.5s-23 32.5 -31 52.5z" />
    <glyph glyph-name="abreve" unicode="&#x103;" horiz-adv-x="496" 
d="M69 463c25.3333 15.3333 54.8333 26.6667 88.5 34c33.6667 7.33334 68.8333 11 105.5 11c34.6667 0 62.5 -4.66666 83.5 -14s37 -21.5 48 -36.5s18.3333 -31.5 22 -49.5s5.5 -36 5.5 -54c0 -40 -1 -79 -3 -117s-3 -74 -3 -108c0 -24.6667 1 -48 3 -70
s5.66666 -42.3333 11 -61h-59l-21 70h-5c-6 -9.33334 -13.5 -18.5 -22.5 -27.5s-19.8333 -17 -32.5 -24s-27.3333 -12.8333 -44 -17.5c-16.6667 -4.66667 -35.6667 -7 -57 -7s-41.1667 3.33333 -59.5 10s-34.1667 16.1667 -47.5 28.5
c-13.3333 12.3333 -23.8333 27.1667 -31.5 44.5c-7.66667 17.3333 -11.5 37 -11.5 59c0 29.3333 6 53.8333 18 73.5s28.8333 35.3333 50.5 47c21.6667 11.6667 47.6667 20 78 25s63.8333 7.5 100.5 7.5h27.5c9 0 18.1667 -0.666656 27.5 -2c2 20 3 38 3 54
c0 36.6667 -7.33334 62.3333 -22 77c-14.6667 14.6667 -41.3333 22 -80 22c-11.3333 0 -23.5 -0.833344 -36.5 -2.5s-26.3333 -4 -40 -7s-26.6667 -6.66666 -39 -11c-12.3333 -4.33334 -23.1667 -9.16669 -32.5 -14.5zM211 62c18.6667 0 35.3333 2.5 50 7.5
s27.3333 11.3333 38 19c10.6667 7.66666 19.5 16.1667 26.5 25.5s12.1667 18.3333 15.5 27v83c-9.33334 0.666672 -18.8333 1.16667 -28.5 1.5s-19.1667 0.5 -28.5 0.5c-20.6667 0 -40.8333 -1.16667 -60.5 -3.5s-37 -6.66666 -52 -13c-15 -6.33333 -27 -15 -36 -26
s-13.5 -24.8333 -13.5 -41.5c0 -23.3333 8.33333 -42.5 25 -57.5s38 -22.5 64 -22.5zM141 720h1.52588e-05c12 -24 28 -42.8333 48 -56.5s41.3333 -20.5 64 -20.5s43.1667 6.66669 61.5 20c18.3333 13.3333 33.1667 32.3333 44.5 57l42 -18
c-2 -16 -7.16666 -31.8333 -15.5 -47.5s-19 -29.5 -32 -41.5s-28.1667 -21.6667 -45.5 -29c-17.3333 -7.33331 -36 -11 -56 -11c-18.6667 0 -36.3333 2.83331 -53 8.5c-16.6667 5.66669 -31.8333 14 -45.5 25s-25.5 24 -35.5 39s-17.3333 32.1667 -22 51.5z" />
    <glyph glyph-name="Aogonek" unicode="&#x104;" horiz-adv-x="585" 
d="M418 194h-258l-70 -194h-82l265 711h38l266 -711h-22c-17.3333 -10.6667 -31.1666 -23.1667 -41.5 -37.5c-10.3333 -14.3333 -15.5 -31.1667 -15.5 -50.5c0 -13.3333 4.5 -25 13.5 -35s21.8333 -15 38.5 -15c12.6667 0 26 3 40 9l11 -42c-10 -8 -23.3333 -14 -40 -18
s-32 -6 -46 -6c-29.3333 0 -53.1667 7.83333 -71.5 23.5c-18.3333 15.6667 -27.5 37.1667 -27.5 64.5c0 23.3333 7.16666 44.1667 21.5 62.5s34.1667 33.1667 59.5 44.5h-7zM187 266h206l-78 213l-25 106h-1l-25 -108z" />
    <glyph glyph-name="aogonek" unicode="&#x105;" horiz-adv-x="496" 
d="M69 463c25.3333 15.3333 54.8333 26.6667 88.5 34c33.6667 7.33334 68.8333 11 105.5 11c34.6667 0 62.5 -4.66666 83.5 -14s37 -21.5 48 -36.5s18.3333 -31.5 22 -49.5s5.5 -36 5.5 -54c0 -40 -1 -79 -3 -117s-3 -74 -3 -108c0 -24.6667 1 -48 3 -70
s5.66666 -42.3333 11 -61h-23c-16.6667 -10.6667 -29.6667 -23.1667 -39 -37.5s-14 -30.1667 -14 -47.5c0 -13.3333 4.33334 -25.1667 13 -35.5s21.3333 -15.5 38 -15.5c12.6667 0 26 3.33333 40 10l11 -43c-10 -8 -23.3333 -14 -40 -18s-32 -6 -46 -6c-30 0 -54 8 -72 24
s-27 37.6667 -27 65c0 26 8.66666 48.5 26 67.5s41 34.1667 71 45.5l-18 61h-5c-6 -9.33334 -13.5 -18.5 -22.5 -27.5s-19.8333 -17 -32.5 -24s-27.3333 -12.8333 -44 -17.5c-16.6667 -4.66667 -35.6667 -7 -57 -7s-41.1667 3.33333 -59.5 10s-34.1667 16.1667 -47.5 28.5
c-13.3333 12.3333 -23.8333 27.1667 -31.5 44.5c-7.66667 17.3333 -11.5 37 -11.5 59c0 29.3333 6 53.8333 18 73.5s28.8333 35.3333 50.5 47c21.6667 11.6667 47.6667 20 78 25s63.8333 7.5 100.5 7.5h27.5c9 0 18.1667 -0.666656 27.5 -2c2 20 3 38 3 54
c0 36.6667 -7.33334 62.3333 -22 77c-14.6667 14.6667 -41.3333 22 -80 22c-11.3333 0 -23.5 -0.666656 -36.5 -2s-26.3333 -3.5 -40 -6.5s-26.6667 -6.5 -39 -10.5c-12.3333 -4 -23.1667 -8.66666 -32.5 -14zM211 62c18.6667 0 35.3333 2.5 50 7.5s27.3333 11.3333 38 19
c10.6667 7.66666 19.5 16.1667 26.5 25.5s12.1667 18.3333 15.5 27v83c-9.33334 0.666672 -18.8333 1.16667 -28.5 1.5s-19.1667 0.5 -28.5 0.5c-20.6667 0 -40.8333 -1.16667 -60.5 -3.5s-37 -6.66666 -52 -13c-15 -6.33333 -27 -15 -36 -26s-13.5 -24.8333 -13.5 -41.5
c0 -23.3333 8.33333 -42.5 25 -57.5s38 -22.5 64 -22.5z" />
    <glyph glyph-name="Cacute" unicode="&#x106;" horiz-adv-x="571" 
d="M533 29c-20 -15.3333 -45.3333 -26 -76 -32s-63.3333 -9 -98 -9c-42 0 -81.3333 7.16667 -118 21.5c-36.6667 14.3333 -68.6667 36.1667 -96 65.5c-27.3333 29.3333 -49 66.8333 -65 112.5c-16 45.6667 -24 99.8333 -24 162.5c0 65.3333 8.83334 120.833 26.5 166.5
c17.6667 45.6667 41 83 70 112s61.5 50.1667 97.5 63.5s72.6667 20 110 20c40 0 72.6667 -2.16669 98 -6.5s47 -10.1666 65 -17.5l-20 -73c-32 15.3333 -77.6667 23 -137 23c-27.3333 0 -54.3333 -5 -81 -15s-50.5 -26.3333 -71.5 -49
c-21 -22.6667 -37.8333 -52.3334 -50.5 -89c-12.6667 -36.6667 -19 -81.6667 -19 -135c0 -48 6 -90 18 -126s28.5 -66 49.5 -90s45.6667 -42 74 -54s59.1667 -18 92.5 -18c30 0 56.1667 3 78.5 9s41.1667 13.6667 56.5 23zM417 870h114v-21l-163 -97h-69z" />
    <glyph glyph-name="cacute" unicode="&#x107;" horiz-adv-x="451" 
d="M418 33c-20 -14.6667 -43.6667 -25.8333 -71 -33.5s-56 -11.5 -86 -11.5c-38.6667 0 -71.3333 6.16667 -98 18.5c-26.6667 12.3333 -48.5 30 -65.5 53s-29.3333 50.6667 -37 83c-7.66667 32.3333 -11.5 68.1667 -11.5 107.5c0 84.6667 18.6667 149.5 56 194.5
c37.3333 45 91 67.5 161 67.5c32 0 59.1667 -2.5 81.5 -7.5s42.5 -12.1667 60.5 -21.5l-23 -69c-15.3333 8.66666 -32.3333 15.5 -51 20.5s-38.6667 7.5 -60 7.5c-94.6667 0 -142 -64 -142 -192c0 -25.3333 2.5 -49.5 7.5 -72.5s13.3333 -43.3333 25 -61
c11.6667 -17.6667 27 -31.8333 46 -42.5s42.5 -16 70.5 -16c24 0 45.5 3.66666 64.5 11s34.5 15.6667 46.5 25zM290 720h89v-21l-101 -128h-47z" />
    <glyph glyph-name="Ccircumflex" unicode="&#x108;" horiz-adv-x="571" 
d="M533 29c-20 -15.3333 -45.3333 -26 -76 -32s-63.3333 -9 -98 -9c-42 0 -81.3333 7.16667 -118 21.5c-36.6667 14.3333 -68.6667 36.1667 -96 65.5c-27.3333 29.3333 -49 66.8333 -65 112.5c-16 45.6667 -24 99.8333 -24 162.5c0 65.3333 8.83334 120.833 26.5 166.5
c17.6667 45.6667 41 83 70 112s61.5 50.1667 97.5 63.5s72.6667 20 110 20c40 0 72.6667 -2.16669 98 -6.5s47 -10.1666 65 -17.5l-20 -73c-32 15.3333 -77.6667 23 -137 23c-27.3333 0 -54.3333 -5 -81 -15s-50.5 -26.3333 -71.5 -49
c-21 -22.6667 -37.8333 -52.3334 -50.5 -89c-12.6667 -36.6667 -19 -81.6667 -19 -135c0 -48 6 -90 18 -126s28.5 -66 49.5 -90s45.6667 -42 74 -54s59.1667 -18 92.5 -18c30 0 56.1667 3 78.5 9s41.1667 13.6667 56.5 23zM320 870h60l127 -102v-21h-81l-60 49l-17 35
l-19 -34l-64 -50h-79v22z" />
    <glyph glyph-name="ccircumflex" unicode="&#x109;" horiz-adv-x="451" 
d="M418 33c-20 -14.6667 -43.6667 -25.8333 -71 -33.5s-56 -11.5 -86 -11.5c-38.6667 0 -71.3333 6.16667 -98 18.5c-26.6667 12.3333 -48.5 30 -65.5 53s-29.3333 50.6667 -37 83c-7.66667 32.3333 -11.5 68.1667 -11.5 107.5c0 84.6667 18.6667 149.5 56 194.5
c37.3333 45 91 67.5 161 67.5c32 0 59.1667 -2.5 81.5 -7.5s42.5 -12.1667 60.5 -21.5l-23 -69c-15.3333 8.66666 -32.3333 15.5 -51 20.5s-38.6667 7.5 -60 7.5c-94.6667 0 -142 -64 -142 -192c0 -25.3333 2.5 -49.5 7.5 -72.5s13.3333 -43.3333 25 -61
c11.6667 -17.6667 27 -31.8333 46 -42.5s42.5 -16 70.5 -16c24 0 45.5 3.66666 64.5 11s34.5 15.6667 46.5 25zM237 732h32l111 -182h-72l-39 66l-21 58l-22 -58l-45 -66h-67z" />
    <glyph glyph-name="Ccaron" unicode="&#x10c;" horiz-adv-x="571" 
d="M533 29c-20 -15.3333 -45.3333 -26 -76 -32s-63.3333 -9 -98 -9c-42 0 -81.3333 7.16667 -118 21.5c-36.6667 14.3333 -68.6667 36.1667 -96 65.5c-27.3333 29.3333 -49 66.8333 -65 112.5c-16 45.6667 -24 99.8333 -24 162.5c0 65.3333 8.83334 120.833 26.5 166.5
c17.6667 45.6667 41 83 70 112s61.5 50.1667 97.5 63.5s72.6667 20 110 20c40 0 72.6667 -2.16669 98 -6.5s47 -10.1666 65 -17.5l-20 -73c-32 15.3333 -77.6667 23 -137 23c-27.3333 0 -54.3333 -5 -81 -15s-50.5 -26.3333 -71.5 -49
c-21 -22.6667 -37.8333 -52.3334 -50.5 -89c-12.6667 -36.6667 -19 -81.6667 -19 -135c0 -48 6 -90 18 -126s28.5 -66 49.5 -90s45.6667 -42 74 -54s59.1667 -18 92.5 -18c30 0 56.1667 3 78.5 9s41.1667 13.6667 56.5 23zM382 746h-58l-127 103v21h82l59 -50l17 -34l19 33
l63 51h78v-22z" />
    <glyph glyph-name="ccaron" unicode="&#x10d;" horiz-adv-x="451" 
d="M418 33c-20 -14.6667 -43.6667 -25.8333 -71 -33.5s-56 -11.5 -86 -11.5c-38.6667 0 -71.3333 6.16667 -98 18.5c-26.6667 12.3333 -48.5 30 -65.5 53s-29.3333 50.6667 -37 83c-7.66667 32.3333 -11.5 68.1667 -11.5 107.5c0 84.6667 18.6667 149.5 56 194.5
c37.3333 45 91 67.5 161 67.5c32 0 59.1667 -2.5 81.5 -7.5s42.5 -12.1667 60.5 -21.5l-23 -69c-15.3333 8.66666 -32.3333 15.5 -51 20.5s-38.6667 7.5 -60 7.5c-94.6667 0 -142 -64 -142 -192c0 -25.3333 2.5 -49.5 7.5 -72.5s13.3333 -43.3333 25 -61
c11.6667 -17.6667 27 -31.8333 46 -42.5s42.5 -16 70.5 -16c24 0 45.5 3.66666 64.5 11s34.5 15.6667 46.5 25zM270 550h-37l-115 182h78l39 -66l21 -58l22 58l45 66h70z" />
    <glyph glyph-name="Dcaron" unicode="&#x10e;" horiz-adv-x="654" 
d="M85 700c12.6667 2 26.8333 3.5 42.5 4.5s32 1.66669 49 2l50 1c16.3333 0.333313 31.5 0.5 45.5 0.5c56 0 104.5 -8.66669 145.5 -26s74.8333 -41.5 101.5 -72.5c26.6667 -31 46.5 -68.1667 59.5 -111.5c13 -43.3333 19.5 -91 19.5 -143
c0 -47.3333 -6.16669 -92.8333 -18.5 -136.5c-12.3333 -43.6667 -31.8333 -82.3333 -58.5 -116c-26.6667 -33.6667 -61.3333 -60.6667 -104 -81c-42.6667 -20.3333 -94.3333 -30.5 -155 -30.5c-10.6667 0 -24.5 0.166672 -41.5 0.5s-34.5 1 -52.5 2
s-34.6667 1.83333 -50 2.5c-15.3333 0.666672 -26.3333 1.66667 -33 3v701zM274 634h-28.5c-10.3333 0 -20.5 -0.333313 -30.5 -1s-19.1667 -1.33337 -27.5 -2c-8.33333 -0.666687 -14.8333 -1.33337 -19.5 -2v-560c3.33333 -0.666656 9.66666 -1.16666 19 -1.5l29 -1l29 -1
c9.33333 -0.333344 15.6667 -0.5 19 -0.5c46.6667 0 85.8333 8 117.5 24c31.6667 16 57 37.5 76 64.5s32.5 58 40.5 93s12 71.1667 12 108.5c0 32.6667 -3.66666 65.5 -11 98.5s-20 62.8333 -38 89.5s-42.1667 48.5 -72.5 65.5s-68.5 25.5 -114.5 25.5zM306 746h-58
l-127 103v21h82l59 -50l17 -34l19 33l63 51h78v-22z" />
    <glyph glyph-name="dcaron" unicode="&#x10f;" horiz-adv-x="589" 
d="M461 172c0 -34 0.333344 -64.8333 1 -92.5s3.66666 -54.8333 9 -81.5h-54l-20 71h-4c-13.3333 -23.3333 -32.6667 -42.6667 -58 -58c-25.3333 -15.3333 -55 -23 -89 -23c-66.6667 0 -116.167 21 -148.5 63c-32.3333 42 -48.5 107.667 -48.5 197
c0 85.3333 20.1667 150.167 60.5 194.5c40.3333 44.3333 95.8333 66.5 166.5 66.5c24.6667 0 44.1667 -1.33334 58.5 -4s29.8333 -7 46.5 -13v208h80v-528zM259 58c34 0 61 8.83334 81 26.5s33.6667 44.5 41 80.5v248c-12 9.33334 -25.6667 16 -41 20s-35.6667 6 -61 6
c-46 0 -82 -15.1667 -108 -45.5s-39 -78.8333 -39 -145.5c0 -27.3333 2.16667 -52.6667 6.5 -76c4.33333 -23.3333 11.5 -43.3333 21.5 -60c10 -16.6667 23.1667 -29.8333 39.5 -39.5s36.1667 -14.5 59.5 -14.5zM614 700c-1.33337 -19.3333 -5.33337 -39.1666 -12 -59.5
c-6.66663 -20.3333 -14.1666 -39.1666 -22.5 -56.5c-8.33337 -17.3333 -16.8334 -32.6666 -25.5 -46c-8.66669 -13.3333 -16 -23 -22 -29l-33 18c11.3333 24 20 51.1667 26 81.5s9 60.8333 9 91.5h80z" />
    <glyph glyph-name="Dcroat" unicode="&#x110;" horiz-adv-x="658" 
d="M-1 392h90v308c12.6667 2 26.8333 3.5 42.5 4.5s32 1.66669 49 2l50 1c16.3333 0.333313 31.5 0.5 45.5 0.5c56 0 104.5 -8.66669 145.5 -26s74.8333 -41.5 101.5 -72.5c26.6667 -31 46.5 -68.1667 59.5 -111.5c13 -43.3333 19.5 -91 19.5 -143
c0 -47.3333 -6.16669 -92.8333 -18.5 -136.5c-12.3333 -43.6667 -31.8333 -82.3333 -58.5 -116c-26.6667 -33.6667 -61.3333 -60.6667 -104 -81c-42.6667 -20.3333 -94.3333 -30.5 -155 -30.5c-10.6667 0 -24.5 0.166672 -41.5 0.5s-34.5 1 -52.5 2
s-34.6667 1.83333 -50 2.5c-15.3333 0.666672 -26.3333 1.66667 -33 3v333h-90v60zM278 634h-28.5c-10.3333 0 -20.5 -0.333313 -30.5 -1s-19.1667 -1.33337 -27.5 -2c-8.33333 -0.666687 -14.8333 -1.33337 -19.5 -2v-237h147v-60h-147v-263
c3.33333 -0.666656 9.66666 -1.16666 19 -1.5l29 -1l29 -1c9.33334 -0.333344 15.6667 -0.5 19 -0.5c46.6667 0 85.8333 8 117.5 24c31.6667 16 57 37.5 76 64.5s32.5 58 40.5 93s12 71.1667 12 108.5c0 32.6667 -3.66666 65.5 -11 98.5s-20 62.8333 -38 89.5
s-42.1667 48.5 -72.5 65.5s-68.5 25.5 -114.5 25.5z" />
    <glyph glyph-name="dcroat" unicode="&#x111;" horiz-adv-x="540" 
d="M461 632h81v-60h-81v-400c0 -34 0.333344 -64.8333 1 -92.5s3.66666 -54.8333 9 -81.5h-54l-20 71h-4c-13.3333 -23.3333 -32.6667 -42.6667 -58 -58c-25.3333 -15.3333 -55 -23 -89 -23c-66.6667 0 -116.167 21 -148.5 63c-32.3333 42 -48.5 107.667 -48.5 197
c0 85.3333 20.1667 150.167 60.5 194.5c40.3333 44.3333 95.8333 66.5 166.5 66.5c24.6667 0 44.1667 -1.33334 58.5 -4s29.8333 -7 46.5 -13v80h-157v60h157v68h80v-68zM259 58c34 0 61 8.83334 81 26.5s33.6667 44.5 41 80.5v249c-12 9.33334 -25.6667 15.8333 -41 19.5
s-35.6667 5.5 -61 5.5c-46 0 -82 -15.1667 -108 -45.5s-39 -78.8333 -39 -145.5c0 -27.3333 2.16667 -52.6667 6.5 -76c4.33333 -23.3333 11.5 -43.5 21.5 -60.5s23.1667 -30.1667 39.5 -39.5s36.1667 -14 59.5 -14z" />
    <glyph glyph-name="Emacron" unicode="&#x112;" horiz-adv-x="536" 
d="M85 700h381v-74h-298v-229h273v-74h-273v-249h303v-74h-386v700zM109 843h316v-62h-316v62z" />
    <glyph glyph-name="emacron" unicode="&#x113;" horiz-adv-x="508" 
d="M442 40c-20 -16 -45.1667 -28.6667 -75.5 -38s-62.5 -14 -96.5 -14c-38 0 -71 6.16667 -99 18.5s-51 30 -69 53s-31.3333 50.5 -40 82.5c-8.66667 32 -13 68 -13 108c0 85.3333 19 150.333 57 195s92.3333 67 163 67c22.6667 0 45.3333 -2.5 68 -7.5
c22.6667 -5 43 -14.5 61 -28.5s32.6667 -33.8333 44 -59.5s17 -59.5 17 -101.5c0 -22 -2 -46.3333 -6 -73h-321c0 -29.3333 3 -55.3333 9 -78s15.3333 -41.8333 28 -57.5s29.1667 -27.6667 49.5 -36s45.1667 -12.5 74.5 -12.5c22.6667 0 45.3333 4 68 12
c22.6667 8 39.6667 17.3333 51 28zM270 442c-39.3333 0 -70.8333 -10.3333 -94.5 -31s-37.8333 -56 -42.5 -106h248c0 50.6667 -9.66666 86.1667 -29 106.5s-46.6667 30.5 -82 30.5zM107 643h296v-62h-296v62z" />
    <glyph glyph-name="Edotaccent" unicode="&#x116;" horiz-adv-x="536" 
d="M85 700h381v-74h-298v-229h273v-74h-273v-249h303v-74h-386v700zM212 797c0 14 5.5 26.1667 16.5 36.5s26.1667 15.5 45.5 15.5c19.3333 0 34.8333 -5.16669 46.5 -15.5s17.5 -22.5 17.5 -36.5c0 -15.3333 -5.83331 -28 -17.5 -38s-27.1667 -15 -46.5 -15
c-19.3333 0 -34.5 5 -45.5 15s-16.5 22.6667 -16.5 38z" />
    <glyph glyph-name="edotaccent" unicode="&#x117;" horiz-adv-x="508" 
d="M442 40c-20 -16 -45.1667 -28.6667 -75.5 -38s-62.5 -14 -96.5 -14c-38 0 -71 6.16667 -99 18.5s-51 30 -69 53s-31.3333 50.5 -40 82.5c-8.66667 32 -13 68 -13 108c0 85.3333 19 150.333 57 195s92.3333 67 163 67c22.6667 0 45.3333 -2.5 68 -7.5
c22.6667 -5 43 -14.5 61 -28.5s32.6667 -33.8333 44 -59.5s17 -59.5 17 -101.5c0 -22 -2 -46.3333 -6 -73h-321c0 -29.3333 3 -55.3333 9 -78s15.3333 -41.8333 28 -57.5s29.1667 -27.6667 49.5 -36s45.1667 -12.5 74.5 -12.5c22.6667 0 45.3333 4 68 12
c22.6667 8 39.6667 17.3333 51 28zM270 442c-39.3333 0 -70.8333 -10.3333 -94.5 -31s-37.8333 -56 -42.5 -106h248c0 50.6667 -9.66666 86.1667 -29 106.5s-46.6667 30.5 -82 30.5zM216 652c0 15.3333 5.16666 28.5 15.5 39.5s23.5 16.5 39.5 16.5s29.6667 -5.5 41 -16.5
s17 -24.1667 17 -39.5s-5.66669 -28 -17 -38s-25 -15 -41 -15s-29.1667 5 -39.5 15s-15.5 22.6667 -15.5 38z" />
    <glyph glyph-name="Eogonek" unicode="&#x118;" horiz-adv-x="536" 
d="M85 700h381v-74h-298v-229h273v-74h-273v-249h303v-74h-36c-17.3333 -10.6667 -31.1667 -23 -41.5 -37c-10.3333 -14 -15.5 -30.6667 -15.5 -50c0 -13.3333 4.33334 -25.1667 13 -35.5s21.3333 -15.5 38 -15.5c12.6667 0 26 3.33333 40 10l11 -43
c-10 -8 -23.3333 -14 -40 -18s-32 -6 -46 -6c-30 0 -54 8 -72 24s-27 37.6667 -27 65c0 23.3333 7 44 21 62s33.6667 32.6667 59 44h-290v700z" />
    <glyph glyph-name="eogonek" unicode="&#x119;" horiz-adv-x="508" 
d="M442 40c-7.33334 -6 -15.3333 -11.3333 -24 -16s-17.6667 -9 -27 -13c-22.6667 -11.3333 -40.3333 -25.1667 -53 -41.5c-12.6667 -16.3333 -19.3333 -35.1667 -20 -56.5c0.666656 -14 5.5 -26 14.5 -36s21.8333 -15.3333 38.5 -16c12.6667 0.666672 26 4 40 10l11 -43
c-10 -8 -23.5 -13.8333 -40.5 -17.5s-32.5 -5.5 -46.5 -5.5c-30 0.666672 -53.8333 8.83334 -71.5 24.5c-17.6667 15.6667 -26.8333 37.1667 -27.5 64.5c0 20 5 38 15 54s23.6667 29.6667 41 41c-3.33334 -0.666672 -7 -1 -11 -1h-11c-38 0 -71 6.16667 -99 18.5
s-51 30 -69 53s-31.3333 50.5 -40 82.5c-8.66667 32 -13 68 -13 108c0 85.3333 19 150.333 57 195s92.3333 67 163 67c22.6667 0 45.3333 -2.5 68 -7.5c22.6667 -5 43 -14.5 61 -28.5s32.6667 -33.8333 44 -59.5s17 -59.5 17 -101.5c0 -22 -2 -46.3333 -6 -73h-321
c0 -29.3333 3 -55.3333 9 -78s15.3333 -42 28 -58s29.1667 -28 49.5 -36s45.1667 -12 74.5 -12c22.6667 0 45.3333 4 68 12c22.6667 8 39.6667 17.3333 51 28zM270 442c-39.3333 0 -70.8333 -10.3333 -94.5 -31s-37.8333 -56 -42.5 -106h248
c0 50.6667 -9.66666 86.1667 -29 106.5s-46.6667 30.5 -82 30.5z" />
    <glyph glyph-name="Ecaron" unicode="&#x11a;" horiz-adv-x="536" 
d="M85 700h381v-74h-298v-229h273v-74h-273v-249h303v-74h-386v700zM294 746h-58l-127 103v21h82l59 -50l17 -34l19 33l63 51h78v-22z" />
    <glyph glyph-name="ecaron" unicode="&#x11b;" horiz-adv-x="508" 
d="M442 40c-20 -16 -45.1667 -28.6667 -75.5 -38s-62.5 -14 -96.5 -14c-38 0 -71 6.16667 -99 18.5s-51 30 -69 53s-31.3333 50.5 -40 82.5c-8.66667 32 -13 68 -13 108c0 85.3333 19 150.333 57 195s92.3333 67 163 67c22.6667 0 45.3333 -2.5 68 -7.5
c22.6667 -5 43 -14.5 61 -28.5s32.6667 -33.8333 44 -59.5s17 -59.5 17 -101.5c0 -22 -2 -46.3333 -6 -73h-321c0 -29.3333 3 -55.3333 9 -78s15.3333 -41.8333 28 -57.5s29.1667 -27.6667 49.5 -36s45.1667 -12.5 74.5 -12.5c22.6667 0 45.3333 4 68 12
c22.6667 8 39.6667 17.3333 51 28zM270 442c-39.3333 0 -70.8333 -10.3333 -94.5 -31s-37.8333 -56 -42.5 -106h248c0 50.6667 -9.66666 86.1667 -29 106.5s-46.6667 30.5 -82 30.5zM279 550h-37l-115 182h78l39 -66l21 -58l22 58l45 66h70z" />
    <glyph glyph-name="Gcircumflex" unicode="&#x11c;" horiz-adv-x="612" 
d="M321 349h235v-308c-10.6667 -8 -23.5 -15.3333 -38.5 -22s-31 -12.3333 -48 -17s-34.6667 -8.16667 -53 -10.5s-36.1667 -3.5 -53.5 -3.5c-44.6667 0 -85.6667 7.16667 -123 21.5c-37.3333 14.3333 -69.6667 36.3333 -97 66c-27.3333 29.6667 -48.6667 67.3333 -64 113
c-15.3333 45.6667 -23 99.5 -23 161.5c0 64.6667 9.33334 120 28 166s43 83.5 73 112.5s63.6667 50.1667 101 63.5c37.3333 13.3333 74.6667 20 112 20c40 0 73 -2.16669 99 -6.5s48 -10.1666 66 -17.5l-21 -73c-32 15.3333 -77.6667 23 -137 23
c-28 0 -55.8333 -4.83331 -83.5 -14.5s-52.5 -25.8334 -74.5 -48.5c-22 -22.6667 -40 -52.3334 -54 -89c-14 -36.6667 -21 -82 -21 -136c0 -49.3333 5.66667 -92 17 -128s27.1667 -65.8333 47.5 -89.5c20.3333 -23.6667 44.8333 -41.3333 73.5 -53
c28.6667 -11.6667 60 -17.5 94 -17.5c42.6667 0 79 8.33334 109 25v195l-164 20v47zM331 870h60l127 -102v-21h-81l-60 49l-17 35l-19 -34l-64 -50h-79v22z" />
    <glyph glyph-name="gcircumflex" unicode="&#x11d;" horiz-adv-x="537" 
d="M460 -23c0 -64.6667 -17.1667 -112.333 -51.5 -143s-85.1667 -46 -152.5 -46c-40 0 -72.1667 2.5 -96.5 7.5s-45.1667 11.5 -62.5 19.5l21 68c15.3333 -6 32.3333 -11.6667 51 -17s43 -8 73 -8c28 0 50.8333 2.5 68.5 7.5s31.8333 13.3333 42.5 25
c10.6667 11.6667 18 26.6667 22 45s6 40.1667 6 65.5v48h-4c-13.3333 -19.3333 -30.3333 -34.1667 -51 -44.5s-47.6667 -15.5 -81 -15.5c-67.3333 0 -116.833 21 -148.5 63s-47.5 107.333 -47.5 196c0 85.3333 20.3333 150.167 61 194.5
c40.6667 44.3333 100.667 66.5 180 66.5c38 0 70.5 -3 97.5 -9s51.1667 -13 72.5 -21v-502zM259 59c34 0 60.6667 8.5 80 25.5s33 43.5 41 79.5v256c-26.6667 12.6667 -60.6667 19 -102 19c-45.3333 0 -81 -15.3333 -107 -46s-39 -78.6667 -39 -144
c0 -28 2.33333 -53.6667 7 -77s12 -43.3333 22 -60c10 -16.6667 23 -29.6667 39 -39s35.6667 -14 59 -14zM260 732h32l111 -182h-72l-39 66l-21 58l-22 -58l-45 -66h-67z" />
    <glyph glyph-name="Gbreve" unicode="&#x11e;" horiz-adv-x="612" 
d="M321 349h235v-308c-10.6667 -8 -23.5 -15.3333 -38.5 -22s-31 -12.3333 -48 -17s-34.6667 -8.16667 -53 -10.5s-36.1667 -3.5 -53.5 -3.5c-44.6667 0 -85.6667 7.16667 -123 21.5c-37.3333 14.3333 -69.6667 36.3333 -97 66c-27.3333 29.6667 -48.6667 67.3333 -64 113
c-15.3333 45.6667 -23 99.5 -23 161.5c0 64.6667 9.33334 120 28 166s43 83.5 73 112.5s63.6667 50.1667 101 63.5c37.3333 13.3333 74.6667 20 112 20c40 0 73 -2.16669 99 -6.5s48 -10.1666 66 -17.5l-21 -73c-32 15.3333 -77.6667 23 -137 23
c-28 0 -55.8333 -4.83331 -83.5 -14.5s-52.5 -25.8334 -74.5 -48.5c-22 -22.6667 -40 -52.3334 -54 -89c-14 -36.6667 -21 -82 -21 -136c0 -49.3333 5.66667 -92 17 -128s27.1667 -65.8333 47.5 -89.5c20.3333 -23.6667 44.8333 -41.3333 73.5 -53
c28.6667 -11.6667 60 -17.5 94 -17.5c42.6667 0 79 8.33334 109 25v195l-164 20v47zM223 871c11.3333 -22.6667 28.6667 -40.1667 52 -52.5c23.3333 -12.3333 50.6667 -18.5 82 -18.5c32 0 59 7 81 21s37.6667 30.6667 47 50l40 -19c-6 -19.3333 -14.5 -36.5 -25.5 -51.5
s-24 -27.8333 -39 -38.5s-31.5 -18.6667 -49.5 -24s-36.3333 -8 -55 -8c-18 0 -35.8333 2.33331 -53.5 7s-34.1667 11.6667 -49.5 21c-15.3333 9.33331 -29.3333 21.5 -42 36.5s-23 32.5 -31 52.5z" />
    <glyph glyph-name="gbreve" unicode="&#x11f;" horiz-adv-x="537" 
d="M460 -23c0 -64.6667 -17.1667 -112.333 -51.5 -143s-85.1667 -46 -152.5 -46c-40 0 -72.1667 2.5 -96.5 7.5s-45.1667 11.5 -62.5 19.5l21 68c15.3333 -6 32.3333 -11.6667 51 -17s43 -8 73 -8c28 0 50.8333 2.5 68.5 7.5s31.8333 13.3333 42.5 25
c10.6667 11.6667 18 26.6667 22 45s6 40.1667 6 65.5v48h-4c-13.3333 -19.3333 -30.3333 -34.1667 -51 -44.5s-47.6667 -15.5 -81 -15.5c-67.3333 0 -116.833 21 -148.5 63s-47.5 107.333 -47.5 196c0 85.3333 20.3333 150.167 61 194.5
c40.6667 44.3333 100.667 66.5 180 66.5c38 0 70.5 -3 97.5 -9s51.1667 -13 72.5 -21v-502zM259 59c34 0 60.6667 8.5 80 25.5s33 43.5 41 79.5v256c-26.6667 12.6667 -60.6667 19 -102 19c-45.3333 0 -81 -15.3333 -107 -46s-39 -78.6667 -39 -144
c0 -28 2.33333 -53.6667 7 -77s12 -43.3333 22 -60c10 -16.6667 23 -29.6667 39 -39s35.6667 -14 59 -14zM161 720c12 -24 28 -42.8333 48 -56.5s41.3333 -20.5 64 -20.5c22.6667 0 43.1667 6.66669 61.5 20c18.3333 13.3333 33.1667 32.3333 44.5 57l42 -18
c-2 -16 -7.16666 -31.8333 -15.5 -47.5s-19 -29.5 -32 -41.5s-28.1667 -21.6667 -45.5 -29c-17.3333 -7.33331 -36 -11 -56 -11c-18.6667 0 -36.3333 2.83331 -53 8.5c-16.6667 5.66669 -31.8333 14 -45.5 25s-25.5 24 -35.5 39s-17.3333 32.1667 -22 51.5z" />
    <glyph glyph-name="Gcommaaccent" unicode="&#x122;" horiz-adv-x="612" 
d="M321 349h235v-308c-10.6667 -8 -23.5 -15.3333 -38.5 -22s-31 -12.3333 -48 -17s-34.6667 -8.16667 -53 -10.5s-36.1667 -3.5 -53.5 -3.5c-44.6667 0 -85.6667 7.16667 -123 21.5c-37.3333 14.3333 -69.6667 36.3333 -97 66c-27.3333 29.6667 -48.6667 67.3333 -64 113
c-15.3333 45.6667 -23 99.5 -23 161.5c0 64.6667 9.33334 120 28 166s43 83.5 73 112.5s63.6667 50.1667 101 63.5c37.3333 13.3333 74.6667 20 112 20c40 0 73 -2.16669 99 -6.5s48 -10.1666 66 -17.5l-21 -73c-32 15.3333 -77.6667 23 -137 23
c-28 0 -55.8333 -4.83331 -83.5 -14.5s-52.5 -25.8334 -74.5 -48.5c-22 -22.6667 -40 -52.3334 -54 -89c-14 -36.6667 -21 -82 -21 -136c0 -49.3333 5.66667 -92 17 -128s27.1667 -65.8333 47.5 -89.5c20.3333 -23.6667 44.8333 -41.3333 73.5 -53
c28.6667 -11.6667 60 -17.5 94 -17.5c42.6667 0 79 8.33334 109 25v195l-164 20v47zM294 -102h3.05176e-05c0 14 5.16666 25.3333 15.5 34c10.3333 8.66667 22.1667 13 35.5 13c16.6667 0 31.5 -5.83333 44.5 -17.5c13 -11.6667 19.5 -30.8333 19.5 -57.5
c0 -17.3333 -3 -32.5 -9 -45.5s-13.1667 -24.3333 -21.5 -34s-17 -17.3333 -26 -23c-9 -5.66667 -16.8333 -9.83334 -23.5 -12.5l-28 32c13.3333 7.33333 24 16.6667 32 28c8 11.3333 12 25 12 41c-2.66666 -0.666672 -6 -1 -10 -1c-12 0 -21.8333 4 -29.5 12
c-7.66669 8 -11.5 18.3333 -11.5 31z" />
    <glyph glyph-name="gcommaaccent" unicode="&#x123;" horiz-adv-x="537" 
d="M460 -23c0 -64.6667 -17.1667 -112.333 -51.5 -143s-85.1667 -46 -152.5 -46c-40 0 -72.1667 2.5 -96.5 7.5s-45.1667 11.5 -62.5 19.5l21 68c15.3333 -6 32.3333 -11.6667 51 -17s43 -8 73 -8c28 0 50.8333 2.5 68.5 7.5s31.8333 13.3333 42.5 25
c10.6667 11.6667 18 26.6667 22 45s6 40.1667 6 65.5v48h-4c-13.3333 -19.3333 -30.3333 -34.1667 -51 -44.5s-47.6667 -15.5 -81 -15.5c-67.3333 0 -116.833 21 -148.5 63s-47.5 107.333 -47.5 196c0 85.3333 20.3333 150.167 61 194.5
c40.6667 44.3333 100.667 66.5 180 66.5c38 0 70.5 -3 97.5 -9s51.1667 -13 72.5 -21v-502zM259 59c34 0 60.6667 8.5 80 25.5s33 43.5 41 79.5v256c-26.6667 12.6667 -60.6667 19 -102 19c-45.3333 0 -81 -15.3333 -107 -46s-39 -78.6667 -39 -144
c0 -28 2.33333 -53.6667 7 -77s12 -43.3333 22 -60c10 -16.6667 23 -29.6667 39 -39s35.6667 -14 59 -14zM345.004 608.994c0 14 5.16666 25.3333 -15.499 -33.998c10.3333 8.66669 22.1667 13 -35.498 -12.999c16.6667 0 31.5 -5.83331 -44.4971 17.499
c13 -11.6667 19.5 -30.8334 -19.499 57.4961c0 -17.3333 -3 -32.5 8.99902 45.4971c-6 -13 -13.1667 -24.3333 21.499 33.998c-8.33333 -9.66669 -17 -17.3334 25.998 22.999c-9 -5.66669 -16.8333 -9.83337 23.499 12.499l27.998 -31.998
c13.3333 7.33331 24 16.6666 -31.998 -27.999c8 11.3333 12 25 -11.999 -40.9971c-2.66666 -0.666687 -6 -1 9.99902 1c-12 0 -21.8333 4 29.498 -11.999c-7.66666 8 -11.5 18.3333 11.5 -30.998z" />
    <glyph glyph-name="Hcircumflex" unicode="&#x124;" horiz-adv-x="672" 
d="M504 321h-336v-321h-83v700h83v-305h336v305h83v-700h-83v321zM307 870h60l127 -102v-21h-81l-60 49l-17 35l-19 -34l-64 -50h-79v22z" />
    <glyph glyph-name="hcircumflex" unicode="&#x125;" horiz-adv-x="547" 
d="M398 0v285c0 26 -1.5 48.8333 -4.5 68.5s-8.5 36 -16.5 49s-18.8333 22.8333 -32.5 29.5s-31.5 10 -53.5 10c-31.3333 0 -59.6667 -10.1667 -85 -30.5s-41.6667 -46.5 -49 -78.5v-333h-80v700h80v-256h4c17.3333 20.6667 38.1667 37.1667 62.5 49.5
c24.3333 12.3333 54.5 18.5 90.5 18.5c28 0 52.3333 -3.16666 73 -9.5s37.8333 -17.5 51.5 -33.5c13.6667 -16 23.6667 -37.5 30 -64.5s9.5 -61.1667 9.5 -102.5v-302h-80zM93 870h60l127 -102v-21h-81l-60 49l-17 35l-19 -34l-64 -50h-79v22z" />
    <glyph glyph-name="Hbar" unicode="&#x126;" horiz-adv-x="677" 
d="M9 587h79v113h83v-113h336v113h83v-113h79v-64h-79v-523h-83v321h-336v-321h-83v523h-79v64zM507 395v128h-336v-128h336z" />
    <glyph glyph-name="hbar" unicode="&#x127;" horiz-adv-x="549" 
d="M-1 632h80v68h80v-68h160v-60h-160v-128h4c17.3333 20.6667 38.1667 37.1667 62.5 49.5c24.3333 12.3333 54.5 18.5 90.5 18.5c28 0 52.3333 -3.16666 73 -9.5s37.8333 -17.5 51.5 -33.5c13.6667 -16 23.6667 -37.5 30 -64.5s9.5 -61.1667 9.5 -102.5v-302h-80v285
c0 26 -1.5 48.8333 -4.5 68.5s-8.5 36 -16.5 49s-18.8333 22.8333 -32.5 29.5s-31.5 10 -53.5 10c-31.3333 0 -59.6667 -10.1667 -85 -30.5s-41.6667 -46.5 -49 -78.5v-333h-80v572h-80v60z" />
    <glyph glyph-name="Imacron" unicode="&#x12a;" horiz-adv-x="291" 
d="M104 700h83v-700h-83v700zM-11 843h316v-62h-316v62z" />
    <glyph glyph-name="imacron" unicode="&#x12b;" horiz-adv-x="268" 
d="M94 500h80v-500h-80v500zM-13 643h296v-62h-296v62z" />
    <glyph glyph-name="Iogonek" unicode="&#x12e;" horiz-adv-x="291" 
d="M104 700h83v-700h-14c-17.3333 -10.6667 -31 -23.1667 -41 -37.5s-15 -31.1667 -15 -50.5c0 -13.3333 4.33334 -25.1667 13 -35.5c8.66667 -10.3333 21.3333 -15.5 38 -15.5c12.6667 0 26 3.33333 40 10l11 -43c-10 -8 -23.3333 -13.8333 -40 -17.5s-32 -5.5 -46 -5.5
c-30 0 -54 7.83333 -72 23.5s-27 37.1667 -27 64.5c0 23.3333 7 44.1667 21 62.5s33.6667 33.1667 59 44.5h-10v700z" />
    <glyph glyph-name="iogonek" unicode="&#x12f;" horiz-adv-x="269" 
d="M94 500h80v-500h-18c-16.6667 -10.6667 -29.8333 -23.3333 -39.5 -38c-9.66666 -14.6667 -14.5 -31.3333 -14.5 -50c0 -13.3333 4.33334 -25.1667 13 -35.5s21.3333 -15.5 38 -15.5c12.6667 0 26 3.33333 40 10l11 -43c-10 -8 -23.3333 -13.8333 -40 -17.5
s-32.3333 -5.5 -47 -5.5c-30 0 -53.8333 7.83333 -71.5 23.5c-17.6667 15.6667 -26.5 37.1667 -26.5 64.5c0 23.3333 7 44.1667 21 62.5s33.6667 33.1667 59 44.5h-5v500zM77 652c0 15.3333 5.16666 28.5 15.5 39.5s23.5 16.5 39.5 16.5s29.6667 -5.5 41 -16.5
s17 -24.1667 17 -39.5s-5.66667 -28 -17 -38s-25 -15 -41 -15s-29.1667 5 -39.5 15s-15.5 22.6667 -15.5 38z" />
    <glyph glyph-name="Idotaccent" unicode="&#x130;" horiz-adv-x="291" 
d="M104 700h83v-700h-83v700zM84 797c0 14 5.5 26.1667 16.5 36.5s26.1667 15.5 45.5 15.5c19.3333 0 34.8333 -5.16669 46.5 -15.5s17.5 -22.5 17.5 -36.5c0 -15.3333 -5.83333 -28 -17.5 -38s-27.1667 -15 -46.5 -15c-19.3333 0 -34.5 5 -45.5 15s-16.5 22.6667 -16.5 38z
" />
    <glyph glyph-name="dotlessi" unicode="&#x131;" horiz-adv-x="268" 
d="M94 500h80v-500h-80v500z" />
    <glyph glyph-name="Jcircumflex" unicode="&#x134;" horiz-adv-x="291" 
d="M112 700h83v-546c0 -53.3333 -11.8333 -94 -35.5 -122s-59.5 -42 -107.5 -42c-5.33334 0 -12 0.333328 -20 1s-16 1.66667 -24 3s-15.8333 3 -23.5 5s-13.8333 4.33333 -18.5 7l16 71c18.6667 -8.66666 39 -13 61 -13c28 0 46.5 9.83334 55.5 29.5s13.5 46.5 13.5 80.5
v526zM125 870h60l127 -102v-21h-81l-60 49l-17 35l-19 -34l-64 -50h-79v22z" />
    <glyph glyph-name="jcircumflex" unicode="&#x135;" horiz-adv-x="267" 
d="M93 500h80v-527c0 -62 -10.6667 -108.333 -32 -139c-21.3333 -30.6667 -55.3333 -46 -102 -46c-5.33334 0 -10.3333 0.166672 -15 0.5s-9.66667 0.833328 -15 1.5v68c18.6667 0 33.5 2.83333 44.5 8.5c11 5.66666 19.5 14.5 25.5 26.5s9.83334 27.1667 11.5 45.5
s2.5 39.8333 2.5 64.5v497zM124 732h32l111 -182h-72l-39 66l-21 58l-22 -58l-45 -66h-67z" />
    <glyph glyph-name="Kcommaaccent" unicode="&#x136;" horiz-adv-x="610" 
d="M215 324h-47v-324h-83v700h83v-326l45 14l235 312h96l-234 -301l-42 -33l51 -40l256 -326h-105zM232 -102h3.05176e-05c0 14 5.16666 25.3333 15.5 34c10.3333 8.66667 22.1667 13 35.5 13c16.6667 0 31.5 -5.83333 44.5 -17.5c13 -11.6667 19.5 -30.8333 19.5 -57.5
c0 -17.3333 -3 -32.5 -9 -45.5s-13.1667 -24.3333 -21.5 -34s-17 -17.3333 -26 -23c-9 -5.66667 -16.8333 -9.83334 -23.5 -12.5l-28 32c13.3333 7.33333 24 16.6667 32 28c8 11.3333 12 25 12 41c-2.66666 -0.666672 -6 -1 -10 -1c-12 0 -21.8333 4 -29.5 12
c-7.66667 8 -11.5 18.3333 -11.5 31z" />
    <glyph glyph-name="kcommaaccent" unicode="&#x137;" horiz-adv-x="479" 
d="M203 225h-46v-225h-80v700h80v-426l41 14l155 212h93l-153 -201l-41 -33l50 -40l167 -226h-99zM183 -102c0 14 5.16666 25.3333 15.5 34c10.3333 8.66667 22.1667 13 35.5 13c16.6667 0 31.5 -5.83333 44.5 -17.5c13 -11.6667 19.5 -30.8333 19.5 -57.5
c0 -17.3333 -3 -32.5 -9 -45.5s-13.1667 -24.3333 -21.5 -34s-17 -17.3333 -26 -23c-9 -5.66667 -16.8333 -9.83334 -23.5 -12.5l-28 32c13.3333 7.33333 24 16.6667 32 28c8 11.3333 12 25 12 41c-2.66666 -0.666672 -6 -1 -10 -1c-12 0 -21.8333 4 -29.5 12
c-7.66667 8 -11.5 18.3333 -11.5 31z" />
    <glyph glyph-name="Lacute" unicode="&#x139;" horiz-adv-x="517" 
d="M499 0h-414v700h83v-626h331v-74zM231 870h114v-21l-163 -97h-69z" />
    <glyph glyph-name="lacute" unicode="&#x13a;" horiz-adv-x="292" 
d="M166 123c0 -23.3333 4 -40 12 -50s19.3333 -15 34 -15c8.66667 0 18 0.666656 28 2c10 1.33333 21.3333 4.33333 34 9l9 -63c-10.6667 -5.33333 -25.5 -9.66667 -44.5 -13s-35.5 -5 -49.5 -5c-30 0 -54.6667 8.5 -74 25.5c-19.3333 17 -29 45.8333 -29 86.5v600h80v-577z
M208 870h114v-21l-163 -97h-69z" />
    <glyph glyph-name="Lcommaaccent" unicode="&#x13b;" horiz-adv-x="517" 
d="M499 0h-414v700h83v-626h331v-74zM192 -102c0 14 5.16666 25.3333 15.5 34c10.3333 8.66667 22.1667 13 35.5 13c16.6667 0 31.5 -5.83333 44.5 -17.5c13 -11.6667 19.5 -30.8333 19.5 -57.5c0 -17.3333 -3 -32.5 -9 -45.5s-13.1667 -24.3333 -21.5 -34
s-17 -17.3333 -26 -23c-9 -5.66667 -16.8333 -9.83334 -23.5 -12.5l-28 32c13.3333 7.33333 24 16.6667 32 28c8 11.3333 12 25 12 41c-2.66666 -0.666672 -6 -1 -10 -1c-12 0 -21.8333 4 -29.5 12c-7.66667 8 -11.5 18.3333 -11.5 31z" />
    <glyph glyph-name="lcommaaccent" unicode="&#x13c;" horiz-adv-x="292" 
d="M166 123c0 -23.3333 4 -40 12 -50s19.3333 -15 34 -15c8.66667 0 18 0.666656 28 2c10 1.33333 21.3333 4.33333 34 9l9 -63c-10.6667 -5.33333 -25.5 -9.66667 -44.5 -13s-35.5 -5 -49.5 -5c-30 0 -54.6667 8.5 -74 25.5c-19.3333 17 -29 45.8333 -29 86.5v600h80v-577z
M117 -102c0 14 5.16666 25.3333 15.5 34c10.3333 8.66667 22.1667 13 35.5 13c16.6667 0 31.5 -5.83333 44.5 -17.5c13 -11.6667 19.5 -30.8333 19.5 -57.5c0 -17.3333 -3 -32.5 -9 -45.5s-13.1667 -24.3333 -21.5 -34s-17 -17.3333 -26 -23
c-9 -5.66667 -16.8333 -9.83334 -23.5 -12.5l-28 32c13.3333 7.33333 24 16.6667 32 28c8 11.3333 12 25 12 41c-2.66666 -0.666672 -6 -1 -10 -1c-12 0 -21.8333 4 -29.5 12c-7.66667 8 -11.5 18.3333 -11.5 31z" />
    <glyph glyph-name="Lcaron" unicode="&#x13d;" horiz-adv-x="517" 
d="M499 0h-414v700h83v-626h331v-74zM429 700c-1.33334 -19.3333 -5.33334 -39.1666 -12 -59.5c-6.66666 -20.3333 -14.1667 -39.1666 -22.5 -56.5c-8.33334 -17.3333 -16.8333 -32.6666 -25.5 -46c-8.66669 -13.3333 -16 -23 -22 -29l-33 18c11.3333 24 20 51.1667 26 81.5
s9 60.8333 9 91.5h80z" />
    <glyph glyph-name="lcaron" unicode="&#x13e;" horiz-adv-x="292" 
d="M166 123c0 -23.3333 4 -40 12 -50s19.3333 -15 34 -15c8.66667 0 18 0.666656 28 2c10 1.33333 21.3333 4.33333 34 9l9 -63c-10.6667 -5.33333 -25.5 -9.66667 -44.5 -13s-35.5 -5 -49.5 -5c-30 0 -54.6667 8.5 -74 25.5c-19.3333 17 -29 45.8333 -29 86.5v600h80v-577z
M321 700c-1.33334 -19.3333 -5.33334 -39.1666 -12 -59.5c-6.66666 -20.3333 -14.1667 -39.1666 -22.5 -56.5c-8.33334 -17.3333 -16.8333 -32.6666 -25.5 -46c-8.66667 -13.3333 -16 -23 -22 -29l-33 18c11.3333 24 20 51.1667 26 81.5s9 60.8333 9 91.5h80z" />
    <glyph glyph-name="Lslash" unicode="&#x141;" horiz-adv-x="517" 
d="M15 287l70 55v358h83v-293l107 84v-80l-107 -82v-255h331v-74h-414v265l-70 -54v76z" />
    <glyph glyph-name="lslash" unicode="&#x142;" horiz-adv-x="292" 
d="M10 285l76 59v356h80v-293l104 82v-80l-104 -80v-206c0 -23.3333 4 -40 12 -50s19.3333 -15 34 -15c8.66667 0 18 0.666656 28 2c10 1.33333 21.3333 4.33333 34 9l9 -63c-10.6667 -5.33333 -25.5 -9.66667 -44.5 -13s-35.5 -5 -49.5 -5c-30 0 -54.6667 8.5 -74 25.5
c-19.3333 17 -29 45.8333 -29 86.5v167l-76 -58v76z" />
    <glyph glyph-name="Nacute" unicode="&#x143;" horiz-adv-x="673" 
d="M211 458l-54 101h-4l10 -101v-458h-78v711h44l335 -467l52 -96h5l-11 96v456h78v-711h-44zM407 870h114v-21l-163 -97h-69z" />
    <glyph glyph-name="nacute" unicode="&#x144;" horiz-adv-x="547" 
d="M398 0v285c0 52 -7.5 91.1667 -22.5 117.5s-42.5 39.5 -82.5 39.5c-35.3333 0 -64.5 -9.5 -87.5 -28.5c-23 -19 -39.1667 -42.8333 -48.5 -71.5v-342h-80v500h56l15 -61h4c16 21.3333 37.5 38.8333 64.5 52.5s59.1667 20.5 96.5 20.5c27.3333 0 51.3333 -3.16666 72 -9.5
s37.8333 -17.5 51.5 -33.5c13.6667 -16 24 -37.5 31 -64.5s10.5 -61.1667 10.5 -102.5v-302h-80zM300 720h89v-21l-101 -128h-47z" />
    <glyph glyph-name="Ncommaaccent" unicode="&#x145;" horiz-adv-x="673" 
d="M211 458l-54 101h-4l10 -101v-458h-78v711h44l335 -467l52 -96h5l-11 96v456h78v-711h-44zM279 -102h3.05176e-05c0 14 5.16666 25.3333 15.5 34c10.3333 8.66667 22.1667 13 35.5 13c16.6667 0 31.5 -5.83333 44.5 -17.5c13 -11.6667 19.5 -30.8333 19.5 -57.5
c0 -17.3333 -3 -32.5 -9 -45.5s-13.1667 -24.3333 -21.5 -34s-17 -17.3333 -26 -23c-9 -5.66667 -16.8333 -9.83334 -23.5 -12.5l-28 32c13.3333 7.33333 24 16.6667 32 28c8 11.3333 12 25 12 41c-2.66666 -0.666672 -6 -1 -10 -1c-12 0 -21.8333 4 -29.5 12
c-7.66669 8 -11.5 18.3333 -11.5 31z" />
    <glyph glyph-name="ncommaaccent" unicode="&#x146;" horiz-adv-x="547" 
d="M398 0v285c0 52 -7.5 91.1667 -22.5 117.5s-42.5 39.5 -82.5 39.5c-35.3333 0 -64.5 -9.5 -87.5 -28.5c-23 -19 -39.1667 -42.8333 -48.5 -71.5v-342h-80v500h56l15 -61h4c16 21.3333 37.5 38.8333 64.5 52.5s59.1667 20.5 96.5 20.5c27.3333 0 51.3333 -3.16666 72 -9.5
s37.8333 -17.5 51.5 -33.5c13.6667 -16 24 -37.5 31 -64.5s10.5 -61.1667 10.5 -102.5v-302h-80zM216 -102c0 14 5.16666 25.3333 15.5 34c10.3333 8.66667 22.1667 13 35.5 13c16.6667 0 31.5 -5.83333 44.5 -17.5c13 -11.6667 19.5 -30.8333 19.5 -57.5
c0 -17.3333 -3 -32.5 -9 -45.5s-13.1667 -24.3333 -21.5 -34s-17 -17.3333 -26 -23c-9 -5.66667 -16.8333 -9.83334 -23.5 -12.5l-28 32c13.3333 7.33333 24 16.6667 32 28c8 11.3333 12 25 12 41c-2.66666 -0.666672 -6 -1 -10 -1c-12 0 -21.8333 4 -29.5 12
c-7.66667 8 -11.5 18.3333 -11.5 31z" />
    <glyph glyph-name="Ncaron" unicode="&#x147;" horiz-adv-x="673" 
d="M211 458l-54 101h-4l10 -101v-458h-78v711h44l335 -467l52 -96h5l-11 96v456h78v-711h-44zM364 746h-58l-127 103v21h82l59 -50l17 -34l19 33l63 51h78v-22z" />
    <glyph glyph-name="ncaron" unicode="&#x148;" horiz-adv-x="547" 
d="M398 0v285c0 52 -7.5 91.1667 -22.5 117.5s-42.5 39.5 -82.5 39.5c-35.3333 0 -64.5 -9.5 -87.5 -28.5c-23 -19 -39.1667 -42.8333 -48.5 -71.5v-342h-80v500h56l15 -61h4c16 21.3333 37.5 38.8333 64.5 52.5s59.1667 20.5 96.5 20.5c27.3333 0 51.3333 -3.16666 72 -9.5
s37.8333 -17.5 51.5 -33.5c13.6667 -16 24 -37.5 31 -64.5s10.5 -61.1667 10.5 -102.5v-302h-80zM289 550h-37l-115 182h78l39 -66l21 -58l22 58l45 66h70z" />
    <glyph glyph-name="Omacron" unicode="&#x14c;" horiz-adv-x="684" 
d="M56 350c0 116.667 24.6667 206.167 74 268.5c49.3333 62.3333 119.667 93.5 211 93.5c49.3333 0 92 -8.66669 128 -26s65.8333 -41.8333 89.5 -73.5s41.1667 -69.6667 52.5 -114c11.3333 -44.3333 17 -93.8333 17 -148.5c0 -116.667 -24.8333 -206.167 -74.5 -268.5
c-49.6667 -62.3333 -120.5 -93.5 -212.5 -93.5c-48.6667 0 -90.8333 8.66667 -126.5 26s-65.3333 41.8333 -89 73.5s-41.1667 69.6667 -52.5 114c-11.3333 44.3333 -17 93.8333 -17 148.5zM144 350c0 -38.6667 3.83333 -75.3333 11.5 -110
c7.66667 -34.6667 19.5 -65.1667 35.5 -91.5c16 -26.3333 36.5 -47.3333 61.5 -63s54.5 -23.5 88.5 -23.5c62 0 110.667 23.5 146 70.5c35.3333 47 53 119.5 53 217.5c0 38 -3.83331 74.5 -11.5 109.5s-19.6667 65.6667 -36 92c-16.3333 26.3333 -37 47.3333 -62 63
s-54.8333 23.5 -89.5 23.5c-61.3333 0 -109.5 -23.5 -144.5 -70.5c-35 -47 -52.5 -119.5 -52.5 -217.5zM190 843h316v-62h-316v62z" />
    <glyph glyph-name="omacron" unicode="&#x14d;" horiz-adv-x="536" 
d="M49 250c0 84.6667 18.8333 149.5 56.5 194.5c37.6667 45 91.8333 67.5 162.5 67.5c37.3333 0 69.8333 -6.16666 97.5 -18.5s50.5 -30 68.5 -53s31.3333 -50.6667 40 -83s13 -68.1667 13 -107.5c0 -84.6667 -18.8333 -149.5 -56.5 -194.5s-91.8333 -67.5 -162.5 -67.5
c-37.3333 0 -69.8333 6.16667 -97.5 18.5s-50.5 30 -68.5 53s-31.3333 50.6667 -40 83c-8.66667 32.3333 -13 68.1667 -13 107.5zM132 250c0 -25.3333 2.5 -49.6667 7.5 -73c5 -23.3333 12.8333 -43.6667 23.5 -61s24.6667 -31.3333 42 -42
c17.3333 -10.6667 38.3333 -16 63 -16c90.6667 -0.666672 136 63.3333 136 192c0 26 -2.5 50.6667 -7.5 74s-12.8333 43.6667 -23.5 61c-10.6667 17.3333 -24.6667 31.1667 -42 41.5c-17.3333 10.3333 -38.3333 15.5 -63 15.5c-90.6667 0.666656 -136 -63.3333 -136 -192z
M120 643h296v-62h-296v62z" />
    <glyph glyph-name="Ohungarumlaut" unicode="&#x150;" horiz-adv-x="684" 
d="M56 350c0 116.667 24.6667 206.167 74 268.5c49.3333 62.3333 119.667 93.5 211 93.5c49.3333 0 92 -8.66669 128 -26s65.8333 -41.8333 89.5 -73.5s41.1667 -69.6667 52.5 -114c11.3333 -44.3333 17 -93.8333 17 -148.5c0 -116.667 -24.8333 -206.167 -74.5 -268.5
c-49.6667 -62.3333 -120.5 -93.5 -212.5 -93.5c-48.6667 0 -90.8333 8.66667 -126.5 26s-65.3333 41.8333 -89 73.5s-41.1667 69.6667 -52.5 114c-11.3333 44.3333 -17 93.8333 -17 148.5zM144 350c0 -38.6667 3.83333 -75.3333 11.5 -110
c7.66667 -34.6667 19.5 -65.1667 35.5 -91.5c16 -26.3333 36.5 -47.3333 61.5 -63s54.5 -23.5 88.5 -23.5c62 0 110.667 23.5 146 70.5c35.3333 47 53 119.5 53 217.5c0 38 -3.83331 74.5 -11.5 109.5s-19.6667 65.6667 -36 92c-16.3333 26.3333 -37 47.3333 -62 63
s-54.8333 23.5 -89.5 23.5c-61.3333 0 -109.5 -23.5 -144.5 -70.5c-35 -47 -52.5 -119.5 -52.5 -217.5zM306 850h93v-16l-100 -93h-57zM468 850h99v-16l-143 -93h-58z" />
    <glyph glyph-name="ohungarumlaut" unicode="&#x151;" horiz-adv-x="536" 
d="M49 250c0 84.6667 18.8333 149.5 56.5 194.5c37.6667 45 91.8333 67.5 162.5 67.5c37.3333 0 69.8333 -6.16666 97.5 -18.5s50.5 -30 68.5 -53s31.3333 -50.6667 40 -83s13 -68.1667 13 -107.5c0 -84.6667 -18.8333 -149.5 -56.5 -194.5s-91.8333 -67.5 -162.5 -67.5
c-37.3333 0 -69.8333 6.16667 -97.5 18.5s-50.5 30 -68.5 53s-31.3333 50.6667 -40 83c-8.66667 32.3333 -13 68.1667 -13 107.5zM132 250c0 -25.3333 2.5 -49.6667 7.5 -73c5 -23.3333 12.8333 -43.6667 23.5 -61s24.6667 -31.3333 42 -42
c17.3333 -10.6667 38.3333 -16 63 -16c90.6667 -0.666672 136 63.3333 136 192c0 26 -2.5 50.6667 -7.5 74s-12.8333 43.6667 -23.5 61c-10.6667 17.3333 -24.6667 31.1667 -42 41.5c-17.3333 10.3333 -38.3333 15.5 -63 15.5c-90.6667 0.666656 -136 -63.3333 -136 -192z
M211 700h78v-16l-71 -113h-42zM357 700h86v-16l-114 -113h-45z" />
    <glyph glyph-name="OE" unicode="&#x152;" horiz-adv-x="932" 
d="M481 618c-18.6667 7.33331 -40.3333 12.5 -65 15.5c-24.6667 3 -49.6667 4.5 -75 4.5c-61.3333 0 -109.5 -23.5 -144.5 -70.5c-35 -47 -52.5 -119.5 -52.5 -217.5c0 -38.6667 3.83333 -75.3333 11.5 -110c7.66667 -34.6667 19.8333 -65.1667 36.5 -91.5
c16.6667 -26.3333 38 -47.3333 64 -63s57 -23.5 93 -23.5c19.3333 0 39.1667 0.666656 59.5 2c20.3333 1.33334 44.5 6.33334 72.5 15v539zM481 0c-16.6667 -3.33333 -36.6667 -6.16667 -60 -8.5s-50 -3.5 -80 -3.5c-48.6667 0 -90.8333 8.66667 -126.5 26
s-65.3333 41.8333 -89 73.5s-41.1667 69.6667 -52.5 114c-11.3333 44.3333 -17 93.8333 -17 148.5c0 116.667 24.6667 206.167 74 268.5c49.3333 62.3333 119.667 93.5 211 93.5c31.3333 0 57.1667 -1.16669 77.5 -3.5c20.3333 -2.33331 41.1667 -5.16663 62.5 -8.5h381v-74
h-298v-229h273v-74h-273v-249h303v-74h-386z" />
    <glyph glyph-name="oe" unicode="&#x153;" horiz-adv-x="858" 
d="M132 250c0 -25.3333 2.5 -49.6667 7.5 -73c5 -23.3333 12.8333 -43.8333 23.5 -61.5c10.6667 -17.6667 24.6667 -31.6667 42 -42s38.3333 -15.5 63 -15.5c90 -0.666672 135 63.3333 135 192c0 26 -2.33334 50.6667 -7 74s-12.3333 43.6667 -23 61
c-10.6667 17.3333 -24.6667 31.1667 -42 41.5c-17.3333 10.3333 -38.3333 15.5 -63 15.5c-90.6667 0.666656 -136 -63.3333 -136 -192zM442 81c-18 -30 -41.5 -53 -70.5 -69s-63.5 -24 -103.5 -24c-37.3333 0 -69.8333 6.16667 -97.5 18.5s-50.5 30 -68.5 53
s-31.3333 50.6667 -40 83c-8.66667 32.3333 -13 68.1667 -13 107.5c0 84.6667 18.8333 149.5 56.5 194.5c37.6667 45 91.8333 67.5 162.5 67.5c42 0 77.5 -8.66666 106.5 -26s52.1667 -39.3333 69.5 -66c17.3333 28 40.8333 50.3333 70.5 67
c29.6667 16.6667 64.5 25 104.5 25c22.6667 0 45.3334 -2.5 68 -7.5c22.6667 -5 43 -14.5 61 -28.5s32.6667 -33.8333 44 -59.5s17 -59.5 17 -101.5c0 -11.3333 -0.333313 -23 -1 -35s-2 -24.6667 -4 -38h-323c0 -29.3333 3 -55.5 9 -78.5s15.3333 -42.5 28 -58.5
c12.6667 -16 29.3334 -28 50 -36c20.6667 -8 45.6667 -12 75 -12c23.3333 0 46.1666 4.16666 68.5 12.5c22.3333 8.33334 39.1666 17.8333 50.5 28.5l30 -58c-20 -16 -45.1667 -28.6667 -75.5 -38s-62.5 -14 -96.5 -14c-41.3333 0 -77 8.33333 -107 25
s-53.6667 39.3333 -71 68zM620 443c-38.6667 0 -70 -10.5 -94 -31.5s-38.3333 -56.5 -43 -106.5h248v9c0 46 -10 79 -30 99s-47 30 -81 30z" />
    <glyph glyph-name="Racute" unicode="&#x154;" horiz-adv-x="595" 
d="M85 693c25.3333 4.66669 54.5 8.33337 87.5 11c33 2.66669 63.1667 4 90.5 4c30.6667 0 59.8333 -3.33331 87.5 -10c27.6667 -6.66669 52 -17.6667 73 -33s37.8333 -35.3333 50.5 -60s19 -54.6667 19 -90c0 -54.6667 -15 -99 -45 -133s-68 -56.6667 -114 -68l48 -37
l174 -277h-97l-193 302l-98 15v-317h-83v693zM265 636h-27c-9.33333 0 -18.3333 -0.333313 -27 -1s-16.8333 -1.33337 -24.5 -2c-7.66667 -0.666687 -13.8333 -1.66669 -18.5 -3v-258h78c46 0 84 11.3333 114 34s45 58 45 106c0 36 -12.3333 65.6667 -37 89s-59 35 -103 35z
M320 870h114v-21l-163 -97h-69z" />
    <glyph glyph-name="racute" unicode="&#x155;" horiz-adv-x="340" 
d="M313 423c-20 6.66666 -39 10 -57 10c-28.6667 0 -51.3333 -7.83334 -68 -23.5c-16.6667 -15.6667 -27 -35.5 -31 -59.5v-350h-80v500h56l15 -61h4c12.6667 22.6667 27.8333 40.1667 45.5 52.5c17.6667 12.3333 40.1667 18.5 67.5 18.5c19.3333 0 41 -3.33334 65 -10z
M195 720h89v-21l-101 -128h-47z" />
    <glyph glyph-name="Rcommaaccent" unicode="&#x156;" horiz-adv-x="595" 
d="M85 693c25.3333 4.66669 54.5 8.33337 87.5 11c33 2.66669 63.1667 4 90.5 4c30.6667 0 59.8333 -3.33331 87.5 -10c27.6667 -6.66669 52 -17.6667 73 -33s37.8333 -35.3333 50.5 -60s19 -54.6667 19 -90c0 -54.6667 -15 -99 -45 -133s-68 -56.6667 -114 -68l48 -37
l174 -277h-97l-193 302l-98 15v-317h-83v693zM265 636h-27c-9.33333 0 -18.3333 -0.333313 -27 -1s-16.8333 -1.33337 -24.5 -2c-7.66667 -0.666687 -13.8333 -1.66669 -18.5 -3v-258h78c46 0 84 11.3333 114 34s45 58 45 106c0 36 -12.3333 65.6667 -37 89s-59 35 -103 35z
M239 -102h3.05176e-05c0 14 5.16666 25.3333 15.5 34c10.3333 8.66667 22.1667 13 35.5 13c16.6667 0 31.5 -5.83333 44.5 -17.5c13 -11.6667 19.5 -30.8333 19.5 -57.5c0 -17.3333 -3 -32.5 -9 -45.5s-13.1667 -24.3333 -21.5 -34s-17 -17.3333 -26 -23
c-9 -5.66667 -16.8333 -9.83334 -23.5 -12.5l-28 32c13.3333 7.33333 24 16.6667 32 28c8 11.3333 12 25 12 41c-2.66666 -0.666672 -6 -1 -10 -1c-12 0 -21.8333 4 -29.5 12c-7.66667 8 -11.5 18.3333 -11.5 31z" />
    <glyph glyph-name="rcommaaccent" unicode="&#x157;" horiz-adv-x="340" 
d="M313 423c-20 6.66666 -39 10 -57 10c-28.6667 0 -51.3333 -7.83334 -68 -23.5c-16.6667 -15.6667 -27 -35.5 -31 -59.5v-350h-80v500h56l15 -61h4c12.6667 22.6667 27.8333 40.1667 45.5 52.5c17.6667 12.3333 40.1667 18.5 67.5 18.5c19.3333 0 41 -3.33334 65 -10z
M85 -102c0 14 5.16666 25.3333 15.5 34c10.3333 8.66667 22.1667 13 35.5 13c16.6667 0 31.5 -5.83333 44.5 -17.5c13 -11.6667 19.5 -30.8333 19.5 -57.5c0 -17.3333 -3 -32.5 -9 -45.5s-13.1667 -24.3333 -21.5 -34s-17 -17.3333 -26 -23
c-9 -5.66667 -16.8333 -9.83334 -23.5 -12.5l-28 32c13.3333 7.33333 24 16.6667 32 28c8 11.3333 12 25 12 41c-2.66666 -0.666672 -6 -1 -10 -1c-12 0 -21.8333 4 -29.5 12c-7.66667 8 -11.5 18.3333 -11.5 31z" />
    <glyph glyph-name="Rcaron" unicode="&#x158;" horiz-adv-x="595" 
d="M85 693c25.3333 4.66669 54.5 8.33337 87.5 11c33 2.66669 63.1667 4 90.5 4c30.6667 0 59.8333 -3.33331 87.5 -10c27.6667 -6.66669 52 -17.6667 73 -33s37.8333 -35.3333 50.5 -60s19 -54.6667 19 -90c0 -54.6667 -15 -99 -45 -133s-68 -56.6667 -114 -68l48 -37
l174 -277h-97l-193 302l-98 15v-317h-83v693zM265 636h-27c-9.33333 0 -18.3333 -0.333313 -27 -1s-16.8333 -1.33337 -24.5 -2c-7.66667 -0.666687 -13.8333 -1.66669 -18.5 -3v-258h78c46 0 84 11.3333 114 34s45 58 45 106c0 36 -12.3333 65.6667 -37 89s-59 35 -103 35z
M277 746h-58l-127 103v21h82l59 -50l17 -34l19 33l63 51h78v-22z" />
    <glyph glyph-name="rcaron" unicode="&#x159;" horiz-adv-x="340" 
d="M313 423c-20 6.66666 -39 10 -57 10c-28.6667 0 -51.3333 -7.83334 -68 -23.5c-16.6667 -15.6667 -27 -35.5 -31 -59.5v-350h-80v500h56l15 -61h4c12.6667 22.6667 27.8333 40.1667 45.5 52.5c17.6667 12.3333 40.1667 18.5 67.5 18.5c19.3333 0 41 -3.33334 65 -10z
M206 550h-37l-115 182h78l39 -66l21 -58l22 58l45 66h70z" />
    <glyph glyph-name="Sacute" unicode="&#x15a;" horiz-adv-x="531" 
d="M401 178c0 28 -8.33334 50.8333 -25 68.5c-16.6667 17.6667 -37.5 33.3333 -62.5 47c-25 13.6667 -52.1667 26.5 -81.5 38.5c-29.3333 12 -56.5 26.5 -81.5 43.5s-45.8333 38 -62.5 63s-25 56.8333 -25 95.5c0 54.6667 19 98 57 130s92 48 162 48
c40.6667 0 77.6667 -3 111 -9s59.3333 -13.6667 78 -23l-25 -73c-15.3333 7.33331 -37.8333 14.3333 -67.5 21s-63.1667 10 -100.5 10c-44 0 -77 -9.83331 -99 -29.5s-33 -42.8334 -33 -69.5c0 -26 8.33333 -47.6667 25 -65s37.5 -32.8333 62.5 -46.5
s52.1667 -27.1667 81.5 -40.5s56.5 -28.8333 81.5 -46.5s45.8333 -38.8333 62.5 -63.5c16.6667 -24.6667 25 -55.3333 25 -92c0 -30 -5.33334 -57 -16 -81s-26.3333 -44.6667 -47 -62c-20.6667 -17.3333 -45.6667 -30.6667 -75 -40s-62.6667 -14 -100 -14
c-50 0 -91.3333 3.83333 -124 11.5s-58 16.1667 -76 25.5l28 75c15.3333 -8.66666 38 -17.1667 68 -25.5s63.6667 -12.5 101 -12.5c22 0 42.6667 2.16666 62 6.5s36 11.3333 50 21s25.1667 21.8333 33.5 36.5s12.5 32 12.5 52zM346 870h114v-21l-163 -97h-69z" />
    <glyph glyph-name="sacute" unicode="&#x15b;" horiz-adv-x="421" 
d="M297 136c0 20 -6 35.6667 -18 47s-26.8333 20.8333 -44.5 28.5s-37 15 -58 22s-40.3333 16 -58 27c-17.6667 11 -32.5 25.1667 -44.5 42.5s-18 40.6667 -18 70c0 48 13.6667 83.1667 41 105.5s65.3333 33.5 114 33.5c36 0 66.1667 -3.16666 90.5 -9.5
s45.5 -13.8333 63.5 -22.5l-19 -66c-15.3333 7.33334 -33.8333 13.8333 -55.5 19.5s-44.8333 8.5 -69.5 8.5c-29.3333 0 -50.8333 -5 -64.5 -15s-20.5 -27.3333 -20.5 -52c0 -17.3333 6 -30.8333 18 -40.5s26.8333 -18.3333 44.5 -26c17.6667 -7.66666 37 -15.1667 58 -22.5
s40.3333 -17 58 -29s32.5 -27.1667 44.5 -45.5s18 -42.5 18 -72.5c0 -21.3333 -3.5 -41.3333 -10.5 -60s-17.8333 -34.6667 -32.5 -48c-14.6667 -13.3333 -32.8333 -23.8333 -54.5 -31.5c-21.6667 -7.66667 -47.1667 -11.5 -76.5 -11.5c-38 0 -70.3333 3.66667 -97 11
c-26.6667 7.33333 -49 16 -67 26l24 68c15.3333 -8.66666 35.3333 -16.6667 60 -24c24.6667 -7.33334 49.6667 -11 75 -11c28.6667 0 52.3333 5.66666 71 17s28 31.6667 28 61zM236 720h89v-21l-101 -128h-47z" />
    <glyph glyph-name="Scircumflex" unicode="&#x15c;" horiz-adv-x="531" 
d="M401 178c0 28 -8.33334 50.8333 -25 68.5c-16.6667 17.6667 -37.5 33.3333 -62.5 47c-25 13.6667 -52.1667 26.5 -81.5 38.5c-29.3333 12 -56.5 26.5 -81.5 43.5s-45.8333 38 -62.5 63s-25 56.8333 -25 95.5c0 54.6667 19 98 57 130s92 48 162 48
c40.6667 0 77.6667 -3 111 -9s59.3333 -13.6667 78 -23l-25 -73c-15.3333 7.33331 -37.8333 14.3333 -67.5 21s-63.1667 10 -100.5 10c-44 0 -77 -9.83331 -99 -29.5s-33 -42.8334 -33 -69.5c0 -26 8.33333 -47.6667 25 -65s37.5 -32.8333 62.5 -46.5
s52.1667 -27.1667 81.5 -40.5s56.5 -28.8333 81.5 -46.5s45.8333 -38.8333 62.5 -63.5c16.6667 -24.6667 25 -55.3333 25 -92c0 -30 -5.33334 -57 -16 -81s-26.3333 -44.6667 -47 -62c-20.6667 -17.3333 -45.6667 -30.6667 -75 -40s-62.6667 -14 -100 -14
c-50 0 -91.3333 3.83333 -124 11.5s-58 16.1667 -76 25.5l28 75c15.3333 -8.66666 38 -17.1667 68 -25.5s63.6667 -12.5 101 -12.5c22 0 42.6667 2.16666 62 6.5s36 11.3333 50 21s25.1667 21.8333 33.5 36.5s12.5 32 12.5 52zM252 870h60l127 -102v-21h-81l-60 49l-17 35
l-19 -34l-64 -50h-79v22z" />
    <glyph glyph-name="scircumflex" unicode="&#x15d;" horiz-adv-x="421" 
d="M297 136c0 20 -6 35.6667 -18 47s-26.8333 20.8333 -44.5 28.5s-37 15 -58 22s-40.3333 16 -58 27c-17.6667 11 -32.5 25.1667 -44.5 42.5s-18 40.6667 -18 70c0 48 13.6667 83.1667 41 105.5s65.3333 33.5 114 33.5c36 0 66.1667 -3.16666 90.5 -9.5
s45.5 -13.8333 63.5 -22.5l-19 -66c-15.3333 7.33334 -33.8333 13.8333 -55.5 19.5s-44.8333 8.5 -69.5 8.5c-29.3333 0 -50.8333 -5 -64.5 -15s-20.5 -27.3333 -20.5 -52c0 -17.3333 6 -30.8333 18 -40.5s26.8333 -18.3333 44.5 -26c17.6667 -7.66666 37 -15.1667 58 -22.5
s40.3333 -17 58 -29s32.5 -27.1667 44.5 -45.5s18 -42.5 18 -72.5c0 -21.3333 -3.5 -41.3333 -10.5 -60s-17.8333 -34.6667 -32.5 -48c-14.6667 -13.3333 -32.8333 -23.8333 -54.5 -31.5c-21.6667 -7.66667 -47.1667 -11.5 -76.5 -11.5c-38 0 -70.3333 3.66667 -97 11
c-26.6667 7.33333 -49 16 -67 26l24 68c15.3333 -8.66666 35.3333 -16.6667 60 -24c24.6667 -7.33334 49.6667 -11 75 -11c28.6667 0 52.3333 5.66666 71 17s28 31.6667 28 61zM201 732h32l111 -182h-72l-39 66l-21 58l-22 -58l-45 -66h-67z" />
    <glyph glyph-name="Scedilla" unicode="&#x15e;" horiz-adv-x="531" 
d="M401 178c0 28 -8.33334 50.8333 -25 68.5c-16.6667 17.6667 -37.5 33.3333 -62.5 47c-25 13.6667 -52.1667 26.5 -81.5 38.5c-29.3333 12 -56.5 26.5 -81.5 43.5s-45.8333 38 -62.5 63s-25 56.8333 -25 95.5c0 54.6667 19 98 57 130s92 48 162 48
c40.6667 0 77.6667 -3 111 -9s59.3333 -13.6667 78 -23l-25 -73c-15.3333 7.33331 -37.8333 14.3333 -67.5 21s-63.1667 10 -100.5 10c-44 0 -77 -9.83331 -99 -29.5s-33 -42.8334 -33 -69.5c0 -26 8.33333 -47.6667 25 -65s37.5 -32.8333 62.5 -46.5
s52.1667 -27.1667 81.5 -40.5s56.5 -28.8333 81.5 -46.5s45.8333 -38.8333 62.5 -63.5c16.6667 -24.6667 25 -55.3333 25 -92c0 -52.6667 -16.3333 -96 -49 -130s-78.3333 -55 -137 -63l-19 -35c28 -5.33333 48.1667 -14 60.5 -26s18.5 -28.3333 18.5 -49
c0 -26 -10.6667 -47.5 -32 -64.5s-51.3333 -25.5 -90 -25.5c-7.33333 0 -14.6667 0.333328 -22 1c-7.33333 0.666672 -15 1.66667 -23 3l9 39c4 -0.666672 7.66667 -1 11 -1h10c14.6667 0 26.1667 1.33333 34.5 4c8.33334 2.66667 14.6667 5.83334 19 9.5
c4.33334 3.66667 7 7.83334 8 12.5c1 4.66667 1.5 9 1.5 13c0 18.6667 -28.6667 31 -86 37l41 78c-48 0.666672 -87.8333 4.66667 -119.5 12c-31.6667 7.33333 -56.1667 15.6667 -73.5 25l28 75c15.3333 -8.66666 38 -17.1667 68 -25.5s63.6667 -12.5 101 -12.5
c22 0 42.6667 2.16666 62 6.5s36 11.3333 50 21s25.1667 21.8333 33.5 36.5s12.5 32 12.5 52z" />
    <glyph glyph-name="scedilla" unicode="&#x15f;" horiz-adv-x="421" 
d="M297 136c0 20 -6 35.6667 -18 47s-26.8333 20.8333 -44.5 28.5s-37 15 -58 22s-40.3333 16 -58 27c-17.6667 11 -32.5 25.1667 -44.5 42.5s-18 40.6667 -18 70c0 48 13.6667 83.1667 41 105.5s65.3333 33.5 114 33.5c36 0 66.1667 -3.16666 90.5 -9.5
s45.5 -13.8333 63.5 -22.5l-19 -65c-15.3333 7.33334 -33.8333 13.6667 -55.5 19c-21.6667 5.33334 -44.8333 8 -69.5 8c-29.3333 0 -50.8333 -5 -64.5 -15s-20.5 -27.3333 -20.5 -52c0 -17.3333 6 -30.8333 18 -40.5s26.8333 -18.3333 44.5 -26
c17.6667 -7.66666 37 -15.1667 58 -22.5s40.3333 -17 58 -29s32.5 -27.1667 44.5 -45.5s18 -42.5 18 -72.5c0 -39.3333 -11.6667 -72.6667 -35 -100c-23.3333 -27.3333 -59 -43.6667 -107 -49l-18 -33c28 -5.33333 48.1667 -14 60.5 -26s18.5 -28.3333 18.5 -49
c0 -26 -10.6667 -47.5 -32 -64.5c-21.3333 -17 -51.3333 -25.5 -90 -25.5c-7.33333 0 -14.6667 0.333328 -22 1c-7.33333 0.666672 -15 1.66667 -23 3l9 39c4 -0.666672 7.66667 -1 11 -1h10c14.6667 0 26.1667 1.33333 34.5 4s14.6667 5.83334 19 9.5
c4.33333 3.66667 7 7.83334 8 12.5c1 4.66667 1.5 9 1.5 13c0 18.6667 -28.6667 31 -86 37l42 79c-31.3333 1.33333 -58.3333 5.33333 -81 12c-22.6667 6.66667 -42 14.6667 -58 24l24 67c15.3333 -8 35.3333 -15.5 60 -22.5c24.6667 -7 49.6667 -10.5 75 -10.5
c28.6667 0 52.3333 5.5 71 16.5s28 31.1667 28 60.5z" />
    <glyph glyph-name="Scaron" unicode="&#x160;" horiz-adv-x="531" 
d="M401 178c0 28 -8.33334 50.8333 -25 68.5c-16.6667 17.6667 -37.5 33.3333 -62.5 47c-25 13.6667 -52.1667 26.5 -81.5 38.5c-29.3333 12 -56.5 26.5 -81.5 43.5s-45.8333 38 -62.5 63s-25 56.8333 -25 95.5c0 54.6667 19 98 57 130s92 48 162 48
c40.6667 0 77.6667 -3 111 -9s59.3333 -13.6667 78 -23l-25 -73c-15.3333 7.33331 -37.8333 14.3333 -67.5 21s-63.1667 10 -100.5 10c-44 0 -77 -9.83331 -99 -29.5s-33 -42.8334 -33 -69.5c0 -26 8.33333 -47.6667 25 -65s37.5 -32.8333 62.5 -46.5
s52.1667 -27.1667 81.5 -40.5s56.5 -28.8333 81.5 -46.5s45.8333 -38.8333 62.5 -63.5c16.6667 -24.6667 25 -55.3333 25 -92c0 -30 -5.33334 -57 -16 -81s-26.3333 -44.6667 -47 -62c-20.6667 -17.3333 -45.6667 -30.6667 -75 -40s-62.6667 -14 -100 -14
c-50 0 -91.3333 3.83333 -124 11.5s-58 16.1667 -76 25.5l28 75c15.3333 -8.66666 38 -17.1667 68 -25.5s63.6667 -12.5 101 -12.5c22 0 42.6667 2.16666 62 6.5s36 11.3333 50 21s25.1667 21.8333 33.5 36.5s12.5 32 12.5 52zM322 746h-58l-127 103v21h82l59 -50l17 -34
l19 33l63 51h78v-22z" />
    <glyph glyph-name="scaron" unicode="&#x161;" horiz-adv-x="421" 
d="M297 136c0 20 -6 35.6667 -18 47s-26.8333 20.8333 -44.5 28.5s-37 15 -58 22s-40.3333 16 -58 27c-17.6667 11 -32.5 25.1667 -44.5 42.5s-18 40.6667 -18 70c0 48 13.6667 83.1667 41 105.5s65.3333 33.5 114 33.5c36 0 66.1667 -3.16666 90.5 -9.5
s45.5 -13.8333 63.5 -22.5l-19 -66c-15.3333 7.33334 -33.8333 13.8333 -55.5 19.5s-44.8333 8.5 -69.5 8.5c-29.3333 0 -50.8333 -5 -64.5 -15s-20.5 -27.3333 -20.5 -52c0 -17.3333 6 -30.8333 18 -40.5s26.8333 -18.3333 44.5 -26c17.6667 -7.66666 37 -15.1667 58 -22.5
s40.3333 -17 58 -29s32.5 -27.1667 44.5 -45.5s18 -42.5 18 -72.5c0 -21.3333 -3.5 -41.3333 -10.5 -60s-17.8333 -34.6667 -32.5 -48c-14.6667 -13.3333 -32.8333 -23.8333 -54.5 -31.5c-21.6667 -7.66667 -47.1667 -11.5 -76.5 -11.5c-38 0 -70.3333 3.66667 -97 11
c-26.6667 7.33333 -49 16 -67 26l24 68c15.3333 -8.66666 35.3333 -16.6667 60 -24c24.6667 -7.33334 49.6667 -11 75 -11c28.6667 0 52.3333 5.66666 71 17s28 31.6667 28 61zM225 550h-37l-115 182h78l39 -66l21 -58l22 58l45 66h70z" />
    <glyph glyph-name="Tcedilla" unicode="&#x162;" horiz-adv-x="555" 
d="M236 0v626h-218v74h519v-74h-218v-626h-12l-24 -43c28 -5.33333 48.1667 -14 60.5 -26s18.5 -28.3333 18.5 -49c0 -26 -10.6667 -47.5 -32 -64.5s-51.3333 -25.5 -90 -25.5c-7.33333 0 -14.6667 0.333328 -22 1c-7.33333 0.666672 -15 1.66667 -23 3l9 39
c4 -0.666672 7.66667 -1 11 -1h10c14.6667 0 26.1667 1.33333 34.5 4c8.33334 2.66667 14.6667 5.83334 19 9.5c4.33334 3.66667 7 7.83334 8 12.5c1 4.66667 1.5 9 1.5 13c0 18.6667 -28.6667 31 -86 37l48 90h-14z" />
    <glyph glyph-name="tcedilla" unicode="&#x163;" horiz-adv-x="339" 
d="M11 500h78v99l80 23v-122h136v-70h-136v-277c0 -34.6667 4.33333 -59.1667 13 -73.5c8.66667 -14.3333 23.3333 -21.5 44 -21.5c17.3333 0 32 1.66666 44 5s25.3333 8 40 14l18 -60c-15.3333 -7.33333 -31.3333 -13.5 -48 -18.5s-34.6667 -8.5 -54 -10.5l-17 -31
c28 -5.33333 48.1667 -14 60.5 -26s18.5 -28.3333 18.5 -49c0 -26 -10.6667 -47.5 -32 -64.5c-21.3333 -17 -51.3333 -25.5 -90 -25.5c-7.33333 0 -14.6667 0.333328 -22 1c-7.33333 0.666672 -15 1.66667 -23 3l9 39c4 -0.666672 7.66667 -1 11 -1h10
c14.6667 0 26.1667 1.33333 34.5 4s14.6667 5.83334 19 9.5c4.33333 3.66667 7 7.83334 8 12.5c1 4.66667 1.5 9 1.5 13c0 18.6667 -28.6667 31 -86 37l42 80c-30 5.33333 -51 19.6667 -63 43c-12 23.3333 -18 58.3333 -18 105v292h-78v70z" />
    <glyph glyph-name="Tcaron" unicode="&#x164;" horiz-adv-x="555" 
d="M537 626h-218v-626h-83v626h-218v74h519v-74zM304 746h-58l-127 103v21h82l59 -50l17 -34l19 33l63 51h78v-22z" />
    <glyph glyph-name="tcaron" unicode="&#x165;" horiz-adv-x="339" 
d="M11 500h78v99l80 23v-122h136v-70h-136v-277c0 -34.6667 4.33333 -59.1667 13 -73.5c8.66667 -14.3333 23.3333 -21.5 44 -21.5c17.3333 0 32 1.83333 44 5.5c12 3.66666 25.3333 8.5 40 14.5l18 -61c-18 -8.66667 -37.6667 -15.6667 -59 -21
c-21.3333 -5.33333 -44.3333 -8 -69 -8c-40.6667 0 -69.3333 11.5 -86 34.5s-25 61.5 -25 115.5v292h-78v70zM312 714c-1.33334 -19.3333 -5.33334 -39.1666 -12 -59.5c-6.66666 -20.3333 -14.1667 -39.1666 -22.5 -56.5c-8.33334 -17.3333 -16.8333 -32.6666 -25.5 -46
c-8.66667 -13.3333 -16 -23 -22 -29l-33 18c11.3333 24 20 51.1667 26 81.5s9 60.8333 9 91.5h80z" />
    <glyph glyph-name="Umacron" unicode="&#x16a;" horiz-adv-x="652" 
d="M487 700h80v-467c0 -42 -5.5 -78.3333 -16.5 -109c-11 -30.6667 -26.6667 -55.8333 -47 -75.5c-20.3333 -19.6667 -44.8333 -34.1667 -73.5 -43.5s-60.3333 -14 -95 -14c-82.6667 0 -145 18.6667 -187 56c-42 37.3333 -63 94 -63 170v483h83v-444
c0 -35.3333 3.5 -65.1667 10.5 -89.5c7 -24.3333 17.5 -44 31.5 -59s31.5 -25.8333 52.5 -32.5s45.5 -10 73.5 -10c54 0 92.6667 14.8333 116 44.5c23.3333 29.6667 35 78.5 35 146.5v444zM170 843h316v-62h-316v62z" />
    <glyph glyph-name="umacron" unicode="&#x16b;" horiz-adv-x="539" 
d="M149 500v-285c0 -26 1.5 -48.8333 4.5 -68.5c3 -19.6667 8.16667 -36 15.5 -49s17.3333 -22.8333 30 -29.5c12.6667 -6.66667 28.6667 -10 48 -10c18 0 34 2.83333 48 8.5c14 5.66666 26.5 13.5 37.5 23.5s20.6667 21.5 29 34.5s15.1667 26.8333 20.5 41.5v334h80v-358
c0 -24 0.833344 -48.8333 2.5 -74.5s4.5 -48.1667 8.5 -67.5h-55l-20 79h-5c-15.3333 -26 -36 -47.6667 -62 -65s-59 -26 -99 -26c-26.6667 0 -50.1667 3.16667 -70.5 9.5s-37.3333 17.5 -51 33.5c-13.6667 16 -24 37.5 -31 64.5s-10.5 61.1667 -10.5 102.5v302h80zM122 643
h296v-62h-296v62z" />
    <glyph glyph-name="Ubreve" unicode="&#x16c;" horiz-adv-x="652" 
d="M487 700h80v-467c0 -42 -5.5 -78.3333 -16.5 -109c-11 -30.6667 -26.6667 -55.8333 -47 -75.5c-20.3333 -19.6667 -44.8333 -34.1667 -73.5 -43.5s-60.3333 -14 -95 -14c-82.6667 0 -145 18.6667 -187 56c-42 37.3333 -63 94 -63 170v483h83v-444
c0 -35.3333 3.5 -65.1667 10.5 -89.5c7 -24.3333 17.5 -44 31.5 -59s31.5 -25.8333 52.5 -32.5s45.5 -10 73.5 -10c54 0 92.6667 14.8333 116 44.5c23.3333 29.6667 35 78.5 35 146.5v444zM197 871h-1.52588e-05c11.3333 -22.6667 28.6667 -40.1667 52 -52.5
s50.6667 -18.5 82 -18.5c32 0 59 7 81 21s37.6667 30.6667 47 50l40 -19c-6 -19.3333 -14.5 -36.5 -25.5 -51.5s-24 -27.8333 -39 -38.5s-31.5 -18.6667 -49.5 -24s-36.3333 -8 -55 -8c-18 0 -35.8333 2.33331 -53.5 7s-34.1667 11.6667 -49.5 21
c-15.3333 9.33331 -29.3333 21.5 -42 36.5s-23 32.5 -31 52.5z" />
    <glyph glyph-name="ubreve" unicode="&#x16d;" horiz-adv-x="539" 
d="M149 500v-285c0 -26 1.5 -48.8333 4.5 -68.5c3 -19.6667 8.16667 -36 15.5 -49s17.3333 -22.8333 30 -29.5c12.6667 -6.66667 28.6667 -10 48 -10c18 0 34 2.83333 48 8.5c14 5.66666 26.5 13.5 37.5 23.5s20.6667 21.5 29 34.5s15.1667 26.8333 20.5 41.5v334h80v-358
c0 -24 0.833344 -48.8333 2.5 -74.5s4.5 -48.1667 8.5 -67.5h-55l-20 79h-5c-15.3333 -26 -36 -47.6667 -62 -65s-59 -26 -99 -26c-26.6667 0 -50.1667 3.16667 -70.5 9.5s-37.3333 17.5 -51 33.5c-13.6667 16 -24 37.5 -31 64.5s-10.5 61.1667 -10.5 102.5v302h80zM162 720
c12 -24 28 -42.8333 48 -56.5s41.3333 -20.5 64 -20.5c22.6667 0 43.1667 6.66669 61.5 20c18.3333 13.3333 33.1667 32.3333 44.5 57l42 -18c-2 -16 -7.16666 -31.8333 -15.5 -47.5s-19 -29.5 -32 -41.5s-28.1667 -21.6667 -45.5 -29c-17.3333 -7.33331 -36 -11 -56 -11
c-18.6667 0 -36.3333 2.83331 -53 8.5c-16.6667 5.66669 -31.8333 14 -45.5 25s-25.5 24 -35.5 39s-17.3333 32.1667 -22 51.5z" />
    <glyph glyph-name="Uring" unicode="&#x16e;" horiz-adv-x="652" 
d="M487 700h80v-467c0 -42 -5.5 -78.3333 -16.5 -109c-11 -30.6667 -26.6667 -55.8333 -47 -75.5c-20.3333 -19.6667 -44.8333 -34.1667 -73.5 -43.5s-60.3333 -14 -95 -14c-82.6667 0 -145 18.6667 -187 56c-42 37.3333 -63 94 -63 170v483h83v-444
c0 -35.3333 3.5 -65.1667 10.5 -89.5c7 -24.3333 17.5 -44 31.5 -59s31.5 -25.8333 52.5 -32.5s45.5 -10 73.5 -10c54 0 92.6667 14.8333 116 44.5c23.3333 29.6667 35 78.5 35 146.5v444zM225 768h-3.05176e-05c0 24.6667 8.33334 45 25 61s43.3333 24 80 24
c33.3333 0 59.3333 -7.16669 78 -21.5c18.6667 -14.3333 28 -35.5 28 -63.5c0 -24 -8.83334 -43.8333 -26.5 -59.5c-17.6667 -15.6667 -44.1667 -23.5 -79.5 -23.5c-34 0 -60 7.5 -78 22.5s-27 35.1667 -27 60.5zM286 768h3.05176e-05c0 -11.3333 3.5 -20.8333 10.5 -28.5
s18.1667 -11.5 33.5 -11.5c14.6667 0 25.8333 3.66669 33.5 11c7.66669 7.33331 11.5 17 11.5 29c0 12.6667 -3.66669 22.8334 -11 30.5c-7.33331 7.66669 -18.6667 11.5 -34 11.5c-14.6667 0 -25.6667 -3.83331 -33 -11.5s-11 -17.8334 -11 -30.5z" />
    <glyph glyph-name="uring" unicode="&#x16f;" horiz-adv-x="539" 
d="M149 500v-285c0 -26 1.5 -48.8333 4.5 -68.5c3 -19.6667 8.16667 -36 15.5 -49s17.3333 -22.8333 30 -29.5c12.6667 -6.66667 28.6667 -10 48 -10c18 0 34 2.83333 48 8.5c14 5.66666 26.5 13.5 37.5 23.5s20.6667 21.5 29 34.5s15.1667 26.8333 20.5 41.5v334h80v-358
c0 -24 0.833344 -48.8333 2.5 -74.5s4.5 -48.1667 8.5 -67.5h-55l-20 79h-5c-15.3333 -26 -36 -47.6667 -62 -65s-59 -26 -99 -26c-26.6667 0 -50.1667 3.16667 -70.5 9.5s-37.3333 17.5 -51 33.5c-13.6667 16 -24 37.5 -31 64.5s-10.5 61.1667 -10.5 102.5v302h80zM172 643
c0 28 8.83334 50.1667 26.5 66.5s41.1667 24.5 70.5 24.5c28 0 51.3333 -7.33331 70 -22s28 -37.6667 28 -69c0 -26 -9.33331 -47.5 -28 -64.5s-42 -25.5 -70 -25.5s-51.1667 7.83331 -69.5 23.5s-27.5 37.8334 -27.5 66.5zM226 643h1.52588e-05
c0 -13.3333 4.33334 -23.6666 13 -31c8.66667 -7.33331 18.6667 -11 30 -11c12.6667 0 23.1667 3.33331 31.5 10s12.5 17.3334 12.5 32c0 14.6667 -4.5 25.5 -13.5 32.5s-19.1667 10.5 -30.5 10.5s-21.3333 -3.33331 -30 -10c-8.66666 -6.66669 -13 -17.6667 -13 -33z" />
    <glyph glyph-name="Uhungarumlaut" unicode="&#x170;" horiz-adv-x="652" 
d="M487 700h80v-467c0 -42 -5.5 -78.3333 -16.5 -109c-11 -30.6667 -26.6667 -55.8333 -47 -75.5c-20.3333 -19.6667 -44.8333 -34.1667 -73.5 -43.5s-60.3333 -14 -95 -14c-82.6667 0 -145 18.6667 -187 56c-42 37.3333 -63 94 -63 170v483h83v-444
c0 -35.3333 3.5 -65.1667 10.5 -89.5c7 -24.3333 17.5 -44 31.5 -59s31.5 -25.8333 52.5 -32.5s45.5 -10 73.5 -10c54 0 92.6667 14.8333 116 44.5c23.3333 29.6667 35 78.5 35 146.5v444zM277 850h93v-16l-100 -93h-57zM439 850h99v-16l-143 -93h-58z" />
    <glyph glyph-name="uhungarumlaut" unicode="&#x171;" horiz-adv-x="539" 
d="M149 500v-285c0 -26 1.5 -48.8333 4.5 -68.5c3 -19.6667 8.16667 -36 15.5 -49s17.3333 -22.8333 30 -29.5c12.6667 -6.66667 28.6667 -10 48 -10c18 0 34 2.83333 48 8.5c14 5.66666 26.5 13.5 37.5 23.5s20.6667 21.5 29 34.5s15.1667 26.8333 20.5 41.5v334h80v-358
c0 -24 0.833344 -48.8333 2.5 -74.5s4.5 -48.1667 8.5 -67.5h-55l-20 79h-5c-15.3333 -26 -36 -47.6667 -62 -65s-59 -26 -99 -26c-26.6667 0 -50.1667 3.16667 -70.5 9.5s-37.3333 17.5 -51 33.5c-13.6667 16 -24 37.5 -31 64.5s-10.5 61.1667 -10.5 102.5v302h80zM210 700
h78v-16l-71 -113h-42zM356 700h86v-16l-114 -113h-45z" />
    <glyph glyph-name="Uogonek" unicode="&#x172;" horiz-adv-x="652" 
d="M487 700h80v-467c-1.33331 -64.6667 -14 -115.5 -38 -152.5c-24 -37 -57.6667 -62.5 -101 -76.5c-20 -10.6667 -35.3333 -23.6667 -46 -39s-16 -32.6667 -16 -52c0.666656 -14 5.33331 -25.8333 14 -35.5c8.66666 -9.66667 21 -14.8333 37 -15.5c14 0 27.6667 3 41 9
l11 -43c-9.33334 -7.33333 -22 -13 -38 -17s-31.6667 -6 -47 -6c-30 0 -54.1667 8 -72.5 24s-27.5 37.6667 -27.5 65c0 20 5.33334 38.3333 16 55s25.3333 30.6667 44 42h-9c-82.6667 0 -145 18.6667 -187 56c-42 37.3333 -63 94 -63 170v483h83v-444
c0 -35.3333 3.5 -65.1667 10.5 -89.5c7 -24.3333 17.5 -44 31.5 -59s31.5 -25.8333 52.5 -32.5s45.5 -10 73.5 -10c53.3333 0 91.6667 14.8333 115 44.5c23.3333 29.6667 35.3333 78.5 36 146.5v444z" />
    <glyph glyph-name="uogonek" unicode="&#x173;" horiz-adv-x="539" 
d="M149 500v-285c0 -26 1.5 -48.8333 4.5 -68.5c3 -19.6667 8.16667 -36 15.5 -49s17.3333 -22.8333 30 -29.5c12.6667 -6.66667 28.6667 -10 48 -10c18 0 34 2.83333 48 8.5c14 5.66666 26.5 13.5 37.5 23.5s20.6667 21.5 29 34.5s15.1667 26.8333 20.5 41.5v334h80v-358
c0 -24 0.833344 -48.8333 2.5 -74.5s4.5 -48.1667 8.5 -67.5h-18c-20 -8 -35.5 -20 -46.5 -36s-15.8333 -34.3333 -14.5 -55c2 -14 7.16666 -25.3333 15.5 -34c8.33334 -8.66667 20.8333 -13 37.5 -13c12.6667 0 25.6667 3 39 9l11 -43
c-10 -8 -23.1667 -13.8333 -39.5 -17.5s-31.5 -5.5 -45.5 -5.5c-29.3333 0 -52.8333 7.16667 -70.5 21.5s-27.5 35.5 -29.5 63.5c0 27.3333 8.5 51 25.5 71s42.5 36.3333 76.5 49l-17 69h-5c-14.6667 -26 -35.5 -47.6667 -62.5 -65s-59.5 -26 -97.5 -26
c-26.6667 0 -50.1667 3.16667 -70.5 9.5s-37.3333 17.5 -51 33.5c-13.6667 16 -24 37.5 -31 64.5s-10.5 61.1667 -10.5 102.5v302h80z" />
    <glyph glyph-name="Ydieresis" unicode="&#x178;" horiz-adv-x="558" 
d="M239 278l-231 422h97l164 -306l17 -61h1l18 63l157 304h89l-229 -421v-279h-83v278zM133 794c0 14 5 25.3333 15 34s23 13 39 13c15.3333 0 27.8333 -4.33331 37.5 -13s14.5 -20 14.5 -34c0 -13.3333 -4.83333 -24.3333 -14.5 -33s-22.1667 -13 -37.5 -13
c-16 0 -29 4.33331 -39 13s-15 19.6667 -15 33zM325 794h-3.05176e-05c0 14 4.83334 25.3333 14.5 34s22.1667 13 37.5 13c16 0 29 -4.33331 39 -13s15 -20 15 -34c0 -13.3333 -5 -24.3333 -15 -33s-23 -13 -39 -13c-15.3333 0 -27.8333 4.33331 -37.5 13
s-14.5 19.6667 -14.5 33z" />
    <glyph glyph-name="Zacute" unicode="&#x179;" 
d="M38 75l353 511l42 40h-395v74h470v-75l-355 -514l-42 -37h397v-74h-470v75zM329 870h114v-21l-163 -97h-69z" />
    <glyph glyph-name="zacute" unicode="&#x17a;" horiz-adv-x="447" 
d="M42 70l231 318l42 42h-273v70h356v-70l-233 -321l-41 -39h274v-70h-356v70zM236 720h89v-21l-101 -128h-47z" />
    <glyph glyph-name="Zdotaccent" unicode="&#x17b;" 
d="M38 75l353 511l42 40h-395v74h470v-75l-355 -514l-42 -37h397v-74h-470v75zM211 797c0 14 5.5 26.1667 16.5 36.5s26.1667 15.5 45.5 15.5c19.3333 0 34.8333 -5.16669 46.5 -15.5s17.5 -22.5 17.5 -36.5c0 -15.3333 -5.83331 -28 -17.5 -38s-27.1667 -15 -46.5 -15
c-19.3333 0 -34.5 5 -45.5 15s-16.5 22.6667 -16.5 38z" />
    <glyph glyph-name="zdotaccent" unicode="&#x17c;" horiz-adv-x="447" 
d="M42 70l231 318l42 42h-273v70h356v-70l-233 -321l-41 -39h274v-70h-356v70zM173 652h1.52588e-05c0 15.3333 5.16666 28.5 15.5 39.5s23.5 16.5 39.5 16.5s29.6667 -5.5 41 -16.5s17 -24.1667 17 -39.5s-5.66669 -28 -17 -38s-25 -15 -41 -15s-29.1667 5 -39.5 15
s-15.5 22.6667 -15.5 38z" />
    <glyph glyph-name="Zcaron" unicode="&#x17d;" 
d="M38 75l353 511l42 40h-395v74h470v-75l-355 -514l-42 -37h397v-74h-470v75zM286 746h-58l-127 103v21h82l59 -50l17 -34l19 33l63 51h78v-22z" />
    <glyph glyph-name="zcaron" unicode="&#x17e;" horiz-adv-x="447" 
d="M42 70l231 318l42 42h-273v70h356v-70l-233 -321l-41 -39h274v-70h-356v70zM235 550h-37l-115 182h78l39 -66l21 -58l22 58l45 66h70z" />
    <glyph glyph-name="longs" unicode="&#x17f;" horiz-adv-x="249" 
d="M22 500h78v28c0 62 10.6667 107.167 32 135.5c21.3333 28.3333 58.6667 42.5 112 42.5c21.3333 0 40 -1.33331 56 -4s33 -7.66669 51 -15l-18 -67c-15.3333 6.66669 -29.8333 11 -43.5 13s-26.5 3 -38.5 3c-16 0 -28.8333 -2.16669 -38.5 -6.5s-16.8333 -11 -21.5 -20
c-4.66667 -9 -7.66667 -20.3333 -9 -34s-2 -29.1667 -2 -46.5v-529h-80v431h-78v69z" />
    <glyph glyph-name="florin" unicode="&#x192;" 
d="M316 430l-79 -464c-4 -24.6667 -9.66667 -47.5 -17 -68.5s-17.1667 -39.3333 -29.5 -55c-12.3333 -15.6667 -27.5 -28 -45.5 -37s-39.3333 -13.5 -64 -13.5c-19.3333 0 -39.3333 2.33333 -60 7c-20.6667 4.66667 -39 10.3333 -55 17l21 66
c15.3333 -6.66666 29.8333 -11.6667 43.5 -15c13.6667 -3.33333 28.5 -5 44.5 -5c25.3333 0 44.5 11.1667 57.5 33.5s23.8333 59.8333 32.5 112.5l68 422h-85v70h96l11 67c8 49.3333 22.5 85.8333 43.5 109.5s55.5 35.5 103.5 35.5c22 0 43.5 -2.33331 64.5 -7
s39.8333 -10.6667 56.5 -18l-23 -65c-32 13.3333 -62.6667 20 -92 20c-12.6667 0 -23 -1.83331 -31 -5.5s-14.6667 -9.33337 -20 -17c-5.33334 -7.66669 -9.83334 -18 -13.5 -31s-6.83331 -28.8333 -9.5 -47.5l-7 -41h120v-70h-131z" />
    <glyph glyph-name="uni01F4" unicode="&#x1f4;" horiz-adv-x="612" 
d="M321 349h235v-308c-10.6667 -8 -23.5 -15.3333 -38.5 -22s-31 -12.3333 -48 -17s-34.6667 -8.16667 -53 -10.5s-36.1667 -3.5 -53.5 -3.5c-44.6667 0 -85.6667 7.16667 -123 21.5c-37.3333 14.3333 -69.6667 36.3333 -97 66c-27.3333 29.6667 -48.6667 67.3333 -64 113
c-15.3333 45.6667 -23 99.5 -23 161.5c0 64.6667 9.33334 120 28 166s43 83.5 73 112.5s63.6667 50.1667 101 63.5c37.3333 13.3333 74.6667 20 112 20c40 0 73 -2.16669 99 -6.5s48 -10.1666 66 -17.5l-21 -73c-32 15.3333 -77.6667 23 -137 23
c-28 0 -55.8333 -4.83331 -83.5 -14.5s-52.5 -25.8334 -74.5 -48.5c-22 -22.6667 -40 -52.3334 -54 -89c-14 -36.6667 -21 -82 -21 -136c0 -49.3333 5.66667 -92 17 -128s27.1667 -65.8333 47.5 -89.5c20.3333 -23.6667 44.8333 -41.3333 73.5 -53
c28.6667 -11.6667 60 -17.5 94 -17.5c42.6667 0 79 8.33334 109 25v195l-164 20v47zM428 870h114v-21l-163 -97h-69z" />
    <glyph glyph-name="uni01F5" unicode="&#x1f5;" horiz-adv-x="537" 
d="M460 -23c0 -64.6667 -17.1667 -112.333 -51.5 -143s-85.1667 -46 -152.5 -46c-40 0 -72.1667 2.5 -96.5 7.5s-45.1667 11.5 -62.5 19.5l21 68c15.3333 -6 32.3333 -11.6667 51 -17s43 -8 73 -8c28 0 50.8333 2.5 68.5 7.5s31.8333 13.3333 42.5 25
c10.6667 11.6667 18 26.6667 22 45s6 40.1667 6 65.5v48h-4c-13.3333 -19.3333 -30.3333 -34.1667 -51 -44.5s-47.6667 -15.5 -81 -15.5c-67.3333 0 -116.833 21 -148.5 63s-47.5 107.333 -47.5 196c0 85.3333 20.3333 150.167 61 194.5
c40.6667 44.3333 100.667 66.5 180 66.5c38 0 70.5 -3 97.5 -9s51.1667 -13 72.5 -21v-502zM259 59c34 0 60.6667 8.5 80 25.5s33 43.5 41 79.5v256c-26.6667 12.6667 -60.6667 19 -102 19c-45.3333 0 -81 -15.3333 -107 -46s-39 -78.6667 -39 -144
c0 -28 2.33333 -53.6667 7 -77s12 -43.3333 22 -60c10 -16.6667 23 -29.6667 39 -39s35.6667 -14 59 -14zM304 720h89v-21l-101 -128h-47z" />
    <glyph glyph-name="Scommaaccent" unicode="&#x218;" horiz-adv-x="531" 
d="M401 178c0 28 -8.33334 50.8333 -25 68.5c-16.6667 17.6667 -37.5 33.3333 -62.5 47c-25 13.6667 -52.1667 26.5 -81.5 38.5c-29.3333 12 -56.5 26.5 -81.5 43.5s-45.8333 38 -62.5 63s-25 56.8333 -25 95.5c0 54.6667 19 98 57 130s92 48 162 48
c40.6667 0 77.6667 -3 111 -9s59.3333 -13.6667 78 -23l-25 -73c-15.3333 7.33331 -37.8333 14.3333 -67.5 21s-63.1667 10 -100.5 10c-44 0 -77 -9.83331 -99 -29.5s-33 -42.8334 -33 -69.5c0 -26 8.33333 -47.6667 25 -65s37.5 -32.8333 62.5 -46.5
s52.1667 -27.1667 81.5 -40.5s56.5 -28.8333 81.5 -46.5s45.8333 -38.8333 62.5 -63.5c16.6667 -24.6667 25 -55.3333 25 -92c0 -30 -5.33334 -57 -16 -81s-26.3333 -44.6667 -47 -62c-20.6667 -17.3333 -45.6667 -30.6667 -75 -40s-62.6667 -14 -100 -14
c-50 0 -91.3333 3.83333 -124 11.5s-58 16.1667 -76 25.5l28 75c15.3333 -8.66666 38 -17.1667 68 -25.5s63.6667 -12.5 101 -12.5c22 0 42.6667 2.16666 62 6.5s36 11.3333 50 21s25.1667 21.8333 33.5 36.5s12.5 32 12.5 52zM203 -102c0 14 5.16666 25.3333 15.5 34
c10.3333 8.66667 22.1667 13 35.5 13c16.6667 0 31.5 -5.83333 44.5 -17.5c13 -11.6667 19.5 -30.8333 19.5 -57.5c0 -17.3333 -3 -32.5 -9 -45.5s-13.1667 -24.3333 -21.5 -34s-17 -17.3333 -26 -23c-9 -5.66667 -16.8333 -9.83334 -23.5 -12.5l-28 32
c13.3333 7.33333 24 16.6667 32 28c8 11.3333 12 25 12 41c-2.66666 -0.666672 -6 -1 -10 -1c-12 0 -21.8333 4 -29.5 12c-7.66667 8 -11.5 18.3333 -11.5 31z" />
    <glyph glyph-name="scommaaccent" unicode="&#x219;" horiz-adv-x="421" 
d="M297 136c0 20 -6 35.6667 -18 47s-26.8333 20.8333 -44.5 28.5s-37 15 -58 22s-40.3333 16 -58 27c-17.6667 11 -32.5 25.1667 -44.5 42.5s-18 40.6667 -18 70c0 48 13.6667 83.1667 41 105.5s65.3333 33.5 114 33.5c36 0 66.1667 -3.16666 90.5 -9.5
s45.5 -13.8333 63.5 -22.5l-19 -66c-15.3333 7.33334 -33.8333 13.8333 -55.5 19.5s-44.8333 8.5 -69.5 8.5c-29.3333 0 -50.8333 -5 -64.5 -15s-20.5 -27.3333 -20.5 -52c0 -17.3333 6 -30.8333 18 -40.5s26.8333 -18.3333 44.5 -26c17.6667 -7.66666 37 -15.1667 58 -22.5
s40.3333 -17 58 -29s32.5 -27.1667 44.5 -45.5s18 -42.5 18 -72.5c0 -21.3333 -3.5 -41.3333 -10.5 -60s-17.8333 -34.6667 -32.5 -48c-14.6667 -13.3333 -32.8333 -23.8333 -54.5 -31.5c-21.6667 -7.66667 -47.1667 -11.5 -76.5 -11.5c-38 0 -70.3333 3.66667 -97 11
c-26.6667 7.33333 -49 16 -67 26l24 68c15.3333 -8.66666 35.3333 -16.6667 60 -24c24.6667 -7.33334 49.6667 -11 75 -11c28.6667 0 52.3333 5.66666 71 17s28 31.6667 28 61zM154 -102c0 14 5.16666 25.3333 15.5 34c10.3333 8.66667 22.1667 13 35.5 13
c16.6667 0 31.5 -5.83333 44.5 -17.5c13 -11.6667 19.5 -30.8333 19.5 -57.5c0 -17.3333 -3 -32.5 -9 -45.5s-13.1667 -24.3333 -21.5 -34s-17 -17.3333 -26 -23c-9 -5.66667 -16.8333 -9.83334 -23.5 -12.5l-28 32c13.3333 7.33333 24 16.6667 32 28c8 11.3333 12 25 12 41
c-2.66666 -0.666672 -6 -1 -10 -1c-12 0 -21.8333 4 -29.5 12c-7.66667 8 -11.5 18.3333 -11.5 31z" />
    <glyph glyph-name="Tcommaaccent" unicode="&#x21a;" horiz-adv-x="555" 
d="M537 626h-218v-626h-83v626h-218v74h519v-74zM218 -102c0 14 5.16666 25.3333 15.5 34c10.3333 8.66667 22.1667 13 35.5 13c16.6667 0 31.5 -5.83333 44.5 -17.5c13 -11.6667 19.5 -30.8333 19.5 -57.5c0 -17.3333 -3 -32.5 -9 -45.5s-13.1667 -24.3333 -21.5 -34
s-17 -17.3333 -26 -23c-9 -5.66667 -16.8333 -9.83334 -23.5 -12.5l-28 32c13.3333 7.33333 24 16.6667 32 28c8 11.3333 12 25 12 41c-2.66666 -0.666672 -6 -1 -10 -1c-12 0 -21.8333 4 -29.5 12c-7.66667 8 -11.5 18.3333 -11.5 31z" />
    <glyph glyph-name="tcommaaccent" unicode="&#x21b;" horiz-adv-x="339" 
d="M11 500h78v99l80 23v-122h136v-70h-136v-277c0 -34.6667 4.33333 -59.1667 13 -73.5c8.66667 -14.3333 23.3333 -21.5 44 -21.5c17.3333 0 32 1.83333 44 5.5c12 3.66666 25.3333 8.5 40 14.5l18 -61c-18 -8.66667 -37.6667 -15.6667 -59 -21
c-21.3333 -5.33333 -44.3333 -8 -69 -8c-40.6667 0 -69.3333 11.5 -86 34.5s-25 61.5 -25 115.5v292h-78v70zM130 -102c0 14 5.16666 25.3333 15.5 34c10.3333 8.66667 22.1667 13 35.5 13c16.6667 0 31.5 -5.83333 44.5 -17.5c13 -11.6667 19.5 -30.8333 19.5 -57.5
c0 -17.3333 -3 -32.5 -9 -45.5s-13.1667 -24.3333 -21.5 -34s-17 -17.3333 -26 -23c-9 -5.66667 -16.8333 -9.83334 -23.5 -12.5l-28 32c13.3333 7.33333 24 16.6667 32 28c8 11.3333 12 25 12 41c-2.66666 -0.666672 -6 -1 -10 -1c-12 0 -21.8333 4 -29.5 12
c-7.66667 8 -11.5 18.3333 -11.5 31z" />
    <glyph glyph-name="uni0237" unicode="&#x237;" horiz-adv-x="267" 
d="M93 500h80v-527c0 -62 -10.6667 -108.333 -32 -139c-21.3333 -30.6667 -55.3333 -46 -102 -46c-5.33334 0 -10.3333 0.166672 -15 0.5s-9.66667 0.833328 -15 1.5v68c18.6667 0 33.5 2.83333 44.5 8.5c11 5.66666 19.5 14.5 25.5 26.5s9.83334 27.1667 11.5 45.5
s2.5 39.8333 2.5 64.5v497z" />
    <glyph glyph-name="afii57929" unicode="&#x2bc;" horiz-adv-x="194" 
d="M40 659c0 15.3333 4.83333 27.3333 14.5 36c9.66666 8.66669 22.1667 13 37.5 13c18.6667 0 33.8333 -5.83331 45.5 -17.5s17.5 -29.1667 17.5 -52.5c0 -22 -3.16667 -41 -9.5 -57s-14 -29.5 -23 -40.5s-18.5 -19.8333 -28.5 -26.5
c-10 -6.66666 -18.6667 -11.3333 -26 -14l-25 34c15.3333 8 27.3333 18 36 30c8.66666 12 13 27.6667 13 47c-2.66666 -0.666687 -6.33333 -1 -11 -1c-12.6667 0 -22.6667 4.5 -30 13.5s-11 20.8333 -11 35.5z" />
    <glyph glyph-name="circumflex" unicode="&#x2c6;" horiz-adv-x="386" 
d="M183 732h32l111 -182h-72l-39 66l-21 58l-22 -58l-45 -66h-67z" />
    <glyph glyph-name="caron" unicode="&#x2c7;" horiz-adv-x="395" 
d="M212 550h-37l-115 182h78l39 -66l21 -58l22 58l45 66h70z" />
    <glyph glyph-name="breve" unicode="&#x2d8;" horiz-adv-x="425" 
d="M105 720c12 -24 28 -42.8333 48 -56.5s41.3333 -20.5 64 -20.5s43.1667 6.66669 61.5 20c18.3333 13.3333 33.1667 32.3333 44.5 57l42 -18c-2 -16 -7.16666 -31.8333 -15.5 -47.5s-19 -29.5 -32 -41.5s-28.1667 -21.6667 -45.5 -29c-17.3333 -7.33331 -36 -11 -56 -11
c-18.6667 0 -36.3333 2.83331 -53 8.5c-16.6667 5.66669 -31.8333 14 -45.5 25s-25.5 24 -35.5 39s-17.3333 32.1667 -22 51.5z" />
    <glyph glyph-name="dotaccent" unicode="&#x2d9;" horiz-adv-x="233" 
d="M60 652c0 15.3333 5.16666 28.5 15.5 39.5s23.5 16.5 39.5 16.5s29.6667 -5.5 41 -16.5s17 -24.1667 17 -39.5s-5.66667 -28 -17 -38s-25 -15 -41 -15s-29.1667 5 -39.5 15s-15.5 22.6667 -15.5 38z" />
    <glyph glyph-name="ring" unicode="&#x2da;" horiz-adv-x="315" 
d="M60 643c0 28 8.83334 50.1667 26.5 66.5s41.1667 24.5 70.5 24.5c28 0 51.3333 -7.33331 70 -22s28 -37.6667 28 -69c0 -26 -9.33333 -47.5 -28 -64.5s-42 -25.5 -70 -25.5s-51.1667 7.83331 -69.5 23.5s-27.5 37.8334 -27.5 66.5zM114 643
c0 -13.3333 4.33334 -23.6666 13 -31c8.66667 -7.33331 18.6667 -11 30 -11c12.6667 0 23.1667 3.33331 31.5 10s12.5 17.3334 12.5 32c0 14.6667 -4.5 25.5 -13.5 32.5s-19.1667 10.5 -30.5 10.5s-21.3333 -3.33331 -30 -10c-8.66666 -6.66669 -13 -17.6667 -13 -33z" />
    <glyph glyph-name="ogonek" unicode="&#x2db;" horiz-adv-x="305" 
d="M218 10c-23.3333 -10.6667 -41.6667 -24.1667 -55 -40.5c-13.3333 -16.3333 -20 -35.1667 -20 -56.5c0 -13.3333 4.33333 -25.1667 13 -35.5s21.3333 -15.5 38 -15.5c12.6667 0 26 3.33333 40 10l11 -43c-10 -8 -23.3333 -14 -40 -18s-32 -6 -46 -6c-30 0 -54 8 -72 24
s-27 37.6667 -27 65c0 27.3333 9.16666 50.6667 27.5 70s43.5 34.6667 75.5 46h55z" />
    <glyph glyph-name="tilde" unicode="&#x2dc;" horiz-adv-x="399" 
d="M60 656c19.3333 22 37 37.1667 53 45.5s30.6667 12.5 44 12.5c11.3333 0 21.8333 -2.16669 31.5 -6.5s19 -9 28 -14s17.6667 -9.5 26 -13.5s17.1667 -6 26.5 -6c14.6667 0 30 8 46 24l24 -43c-17.3333 -19.3333 -33.1667 -32.5 -47.5 -39.5
c-14.3333 -7 -27.5 -10.5 -39.5 -10.5c-10.6667 0 -20.6667 2 -30 6s-18.5 8.5 -27.5 13.5s-18 9.66669 -27 14s-18.1667 6.5 -27.5 6.5c-8.66667 0 -17.5 -2.33331 -26.5 -7s-19.1667 -12.6667 -30.5 -24z" />
    <glyph glyph-name="hungarumlaut" unicode="&#x2dd;" horiz-adv-x="387" 
d="M95 700h78v-16l-71 -113h-42zM241 700h86v-16l-114 -113h-45z" />
    <glyph glyph-name="acutecomb" unicode="&#x301;" horiz-adv-x="2" 
d="M-231 720h89v-21l-101 -128h-47z" />
    <glyph glyph-name="uni0394" unicode="&#x394;" horiz-adv-x="568" 
d="M14 0v37l254 674h34l256 -674v-37h-544zM106 72h355l-155 403l-24 105h-1l-28 -107z" />
    <glyph glyph-name="uni0394" unicode="&#x2206;" horiz-adv-x="568" 
d="M14 0v37l254 674h34l256 -674v-37h-544zM106 72h355l-155 403l-24 105h-1l-28 -107z" />
    <glyph glyph-name="uni03A9" unicode="&#x3a9;" horiz-adv-x="802" 
d="M76 70h116l94 -10v26l-54 10c-21.3333 10 -41.5 23.8333 -60.5 41.5c-19 17.6667 -35.5 38.3333 -49.5 62c-14 23.6667 -25.1667 50.3333 -33.5 80s-12.5 61.8333 -12.5 96.5c0 52 7.66666 98.6667 23 140c15.3333 41.3333 37 76.5 65 105.5s62 51.3333 102 67
s84.6667 23.5 134 23.5c52 0 98.1667 -8.33331 138.5 -25c40.3333 -16.6667 74.5 -40 102.5 -70s49.1667 -65.8333 63.5 -107.5c14.3333 -41.6667 21.5 -87.5 21.5 -137.5c0 -36 -4.66669 -68.6667 -14 -98c-9.33331 -29.3333 -21.5 -55.5 -36.5 -78.5
s-31.6667 -42.6667 -50 -59c-18.3333 -16.3333 -36.5 -29.5 -54.5 -39.5l-57 -11v-26l96 10h116v-70h-287v125c20 4 41.5 11.3333 64.5 22s44.5 25.8333 64.5 45.5c20 19.6667 36.6667 44.6667 50 75c13.3333 30.3333 20 66.8333 20 109.5c0 32 -4.5 63.5 -13.5 94.5
s-23.1667 58.8333 -42.5 83.5s-44.1666 44.6667 -74.5 60c-30.3333 15.3333 -66.5 23 -108.5 23c-75.3333 0 -133.333 -22.1667 -174 -66.5c-40.6667 -44.3333 -61 -110.167 -61 -197.5c0 -42 6.16667 -77.8333 18.5 -107.5c12.3333 -29.6667 28.1667 -54.5 47.5 -74.5
c19.3333 -20 40.6667 -35.3333 64 -46s46 -17.6667 68 -21v-125h-286v70z" />
    <glyph glyph-name="uni03A9" unicode="&#x2126;" horiz-adv-x="802" 
d="M76 70h116l94 -10v26l-54 10c-21.3333 10 -41.5 23.8333 -60.5 41.5c-19 17.6667 -35.5 38.3333 -49.5 62c-14 23.6667 -25.1667 50.3333 -33.5 80s-12.5 61.8333 -12.5 96.5c0 52 7.66666 98.6667 23 140c15.3333 41.3333 37 76.5 65 105.5s62 51.3333 102 67
s84.6667 23.5 134 23.5c52 0 98.1667 -8.33331 138.5 -25c40.3333 -16.6667 74.5 -40 102.5 -70s49.1667 -65.8333 63.5 -107.5c14.3333 -41.6667 21.5 -87.5 21.5 -137.5c0 -36 -4.66669 -68.6667 -14 -98c-9.33331 -29.3333 -21.5 -55.5 -36.5 -78.5
s-31.6667 -42.6667 -50 -59c-18.3333 -16.3333 -36.5 -29.5 -54.5 -39.5l-57 -11v-26l96 10h116v-70h-287v125c20 4 41.5 11.3333 64.5 22s44.5 25.8333 64.5 45.5c20 19.6667 36.6667 44.6667 50 75c13.3333 30.3333 20 66.8333 20 109.5c0 32 -4.5 63.5 -13.5 94.5
s-23.1667 58.8333 -42.5 83.5s-44.1666 44.6667 -74.5 60c-30.3333 15.3333 -66.5 23 -108.5 23c-75.3333 0 -133.333 -22.1667 -174 -66.5c-40.6667 -44.3333 -61 -110.167 -61 -197.5c0 -42 6.16667 -77.8333 18.5 -107.5c12.3333 -29.6667 28.1667 -54.5 47.5 -74.5
c19.3333 -20 40.6667 -35.3333 64 -46s46 -17.6667 68 -21v-125h-286v70z" />
    <glyph glyph-name="pi" unicode="&#x3c0;" horiz-adv-x="664" 
d="M514 116c0 -18.6667 3 -31.6667 9 -39s13.6667 -11 23 -11c6.66669 0 14.1667 0.666656 22.5 2s15.5 2.66667 21.5 4l19 -54c-10.6667 -4.66667 -23.8334 -9.5 -39.5 -14.5c-15.6667 -5 -33.5 -7.5 -53.5 -7.5c-33.3333 0 -55.3333 9.66667 -66 29
c-10.6667 19.3333 -16 46.3333 -16 81v324h-190v-430h-80v430h-14c-14 0 -25.3333 -3.83334 -34 -11.5s-17.6667 -18.8333 -27 -33.5l-53 32c12.6667 25.3333 28.3333 45.5 47 60.5s45.6667 22.5 81 22.5h433v-70h-83v-314z" />
    </font>
</defs>
</svg>
